<?xml version="1.0" standalone="no"?>
<!DOCTYPE svg PUBLIC "-//W3C//DTD SVG 1.1//EN" "http://www.w3.org/Graphics/SVG/1.1/DTD/svg11.dtd" >
<svg xmlns="http://www.w3.org/2000/svg">
<metadata>Generated by IcoMoon</metadata>
<defs>
<font id="icomoon" horiz-adv-x="1024">
<font-face units-per-em="1024" ascent="960" descent="-64" />
<missing-glyph horiz-adv-x="1024" />
<glyph unicode="&#x20;" horiz-adv-x="512" d="" />
<glyph unicode="&#xe900;" glyph-name="Logofcamara" d="M132.642 532.781c-28.14-0.010-55.125-11.193-75.023-31.091s-31.081-46.883-31.091-75.023v0c0.010-28.14 11.193-55.125 31.091-75.023s46.883-31.081 75.023-31.091c28.14 0.010 55.125 11.193 75.023 31.091s31.081 46.883 31.091 75.023v106.114h-106.114zM185.98 486.181h-61.759v-50.343h47.162c2.656 0 5.202-1.055 7.080-2.933s2.932-4.424 2.932-7.080c0-2.656-1.055-5.202-2.932-7.080s-4.424-2.932-7.080-2.932h-47.162v-57.829c0-2.805-1.114-5.494-3.097-7.477s-4.673-3.097-7.477-3.097c-2.804 0-5.494 1.114-7.477 3.097s-3.097 4.672-3.097 7.477v137.181c0.017 2.859 1.135 5.602 3.122 7.658s4.689 3.268 7.546 3.384h72.24c1.315 0 2.617-0.259 3.832-0.762s2.318-1.241 3.248-2.171c0.93-0.93 1.667-2.033 2.171-3.248s0.762-2.517 0.762-3.832c0-1.315-0.259-2.617-0.762-3.832s-1.241-2.319-2.171-3.248c-0.93-0.93-2.033-1.667-3.248-2.17s-2.517-0.762-3.832-0.762zM335.888 505.831c18.971 0.28 37.347-6.604 51.465-19.276 1.032-0.897 1.878-1.989 2.488-3.213s0.974-2.556 1.069-3.92c0.096-1.364-0.077-2.734-0.512-4.031-0.432-1.297-1.117-2.496-2.016-3.528-0.897-1.032-1.987-1.878-3.213-2.488-1.223-0.61-2.555-0.974-3.918-1.069s-2.735 0.079-4.032 0.512c-1.297 0.434-2.494 1.119-3.528 2.016-10.314 9.471-23.799 14.744-37.803 14.785-32.378 0-57.455-26.575-57.455-59.326s25.077-59.139 57.455-59.139c13.999 0.066 27.476 5.336 37.803 14.785 2.085 1.812 4.804 2.721 7.561 2.528 2.754-0.193 5.319-1.473 7.131-3.557s2.722-4.804 2.528-7.559c-0.191-2.755-1.472-5.321-3.557-7.132-14.118-12.673-32.495-19.556-51.465-19.276-43.793 0-78.416 35.559-78.416 79.539s34.623 79.352 78.416 79.352zM410.001 430.223c-1.348 2.097-1.865 4.621-1.448 7.078s1.732 4.671 3.693 6.21c11.604 9.919 25.828 12.726 37.243 12.726 29.943 0 47.91-14.972 47.91-43.98v-53.899c0.005-1.353-0.257-2.694-0.775-3.945-0.515-1.251-1.273-2.388-2.228-3.345-0.958-0.957-2.096-1.715-3.345-2.23-1.252-0.515-2.592-0.778-3.945-0.773-1.329 0.019-2.642 0.302-3.86 0.83-1.22 0.529-2.321 1.294-3.244 2.25-0.921 0.957-1.645 2.087-2.128 3.325s-0.716 2.559-0.687 3.887v4.305c-7.675-10.855-23.77-15.721-36.869-15.721-23.767 0-39.488 12.165-39.488 32.564 0 17.966 12.163 32.938 44.915 32.938 9.731 0 19.276-1.871 31.442-5.614v5.427c0 15.346-10.481 25.64-29.195 25.64-9.025-0.237-17.713-3.463-24.706-9.17-4.491-2.995-10.667-2.433-13.285 1.497zM477.187 380.254l-0.188 10.293c-10.113 3.259-20.634 5.086-31.253 5.427-21.523 0-25.64-9.357-25.64-16.469 0-7.86 6.55-14.411 20.586-14.411 10.855 0 28.261 4.117 36.495 15.159zM523.224 444.82c0 1.339 0.265 2.666 0.777 3.903s1.265 2.362 2.212 3.309c0.947 0.947 2.069 1.698 3.308 2.211 1.236 0.513 2.563 0.776 3.902 0.776s2.666-0.264 3.905-0.776c1.236-0.513 2.361-1.264 3.308-2.211s1.698-2.071 2.21-3.309c0.515-1.238 0.777-2.564 0.777-3.903v-6.55c5.613 11.603 20.4 17.218 29.009 17.966 3.82 0.236 7.656-0.015 11.415-0.749 13.288-2.059 22.459-9.357 27.324-20.961 9.731 18.715 26.014 21.522 36.307 21.522 26.202 0 40.424-17.030 40.424-46.413v-51.466c0-2.705-1.074-5.3-2.987-7.212s-4.507-2.987-7.213-2.987c-2.703 0-5.298 1.075-7.21 2.987s-2.987 4.507-2.987 7.212v50.343c0 17.218-8.985 27.885-23.955 27.885-17.22 0.187-27.887-13.1-27.887-30.505v-47.349c0-1.339-0.263-2.666-0.777-3.903-0.512-1.237-1.263-2.362-2.21-3.309s-2.072-1.698-3.308-2.211c-1.239-0.513-2.565-0.776-3.905-0.776s-2.666 0.264-3.902 0.776c-1.239 0.513-2.361 1.264-3.308 2.211s-1.7 2.072-2.212 3.309c-0.512 1.238-0.777 2.564-0.777 3.903v50.156c0 17.218-8.983 28.072-22.645 28.072-14.596 0-29.195-8.983-29.195-31.067v-47.349c0-2.705-1.074-5.299-2.987-7.212s-4.507-2.988-7.213-2.988c-2.703 0-5.298 1.075-7.21 2.988s-2.99 4.507-2.99 7.212v86.463zM715.614 430.223c-1.345 2.097-1.862 4.621-1.446 7.078 0.414 2.457 1.732 4.671 3.693 6.21 11.604 9.919 25.825 12.726 37.243 12.726 29.943 0 47.908-14.972 47.908-43.98v-53.899c0.005-1.353-0.257-2.694-0.772-3.945s-1.273-2.388-2.231-3.345c-0.955-0.957-2.093-1.715-3.345-2.23-1.249-0.515-2.592-0.778-3.945-0.773-1.326 0.019-2.64 0.302-3.857 0.83-1.22 0.529-2.324 1.294-3.244 2.25-0.923 0.957-1.645 2.087-2.13 3.325-0.483 1.238-0.716 2.559-0.687 3.887v4.305c-7.672-10.855-23.767-15.721-36.867-15.721-23.77 0-39.49 12.165-39.49 32.564 0 17.966 12.166 32.938 44.918 32.938 9.731 0 19.276-1.871 31.439-5.614v5.427c0 15.346-10.479 25.64-29.195 25.64-9.022-0.237-17.71-3.463-24.703-9.17-4.491-2.995-10.667-2.433-13.288 1.497zM782.8 380.254l-0.186 10.293c-10.113 3.259-20.634 5.086-31.253 5.427-21.523 0-25.64-9.357-25.64-16.469 0-7.86 6.55-14.411 20.586-14.411 10.855 0 28.447 4.117 36.493 15.159zM878.061 436.773c-20.212 0-28.821-21.522-28.821-49.407v-29.008c0-2.705-1.074-5.299-2.987-7.212s-4.507-2.987-7.213-2.987c-2.706 0-5.3 1.075-7.213 2.987s-2.987 4.507-2.987 7.212v86.463c0 2.705 1.074 5.3 2.987 7.212s4.507 2.987 7.213 2.987c2.706 0 5.3-1.075 7.213-2.987s2.987-4.507 2.987-7.212v-14.411c5.428 18.341 15.532 25.827 29.195 25.827 7.672 0 20.212-1.497 18.342-12.539-1.125-6.55-6.927-7.86-14.225-7.111-1.491 0.152-2.992 0.214-4.491 0.187zM909.689 430.223c-1.348 2.097-1.862 4.621-1.448 7.078 0.416 2.457 1.732 4.671 3.693 6.21 11.604 9.919 25.828 12.726 37.243 12.726 29.945 0 47.91-14.972 47.91-43.98v-53.899c0.005-1.353-0.257-2.694-0.772-3.945-0.517-1.251-1.276-2.388-2.231-3.345-0.958-0.957-2.093-1.715-3.345-2.23s-2.592-0.778-3.945-0.773c-1.329 0.019-2.64 0.302-3.86 0.83-1.218 0.529-2.321 1.294-3.242 2.25-0.923 0.957-1.647 2.087-2.13 3.325s-0.716 2.559-0.687 3.887v4.305c-7.672-10.855-23.767-15.721-36.869-15.721-23.767 0-39.488 12.165-39.488 32.564 0 17.966 12.166 32.938 44.915 32.938 9.733 0 19.278-1.871 31.442-5.614v5.427c0 15.346-10.481 25.64-29.195 25.64-9.022-0.237-17.713-3.463-24.703-9.17-4.491-2.995-10.667-2.433-13.288 1.497zM976.875 380.254l-0.186 10.293c-10.115 3.259-20.634 5.086-31.256 5.427-21.523 0-25.64-9.357-25.64-16.469 0-7.86 6.553-14.411 20.589-14.411 10.853 0 28.258 4.117 36.493 15.159zM748.926 483.561c-1.894-2.020-4.184-3.628-6.728-4.723s-5.287-1.653-8.057-1.64c-3.412 0.014-6.783 0.714-9.919 2.059-3.048 1.366-5.786 3.341-8.046 5.802-2.34 2.5-4.181 5.421-5.428 8.609-1.348 3.396-2.045 7.014-2.059 10.667 0.013 3.532 0.714 7.028 2.059 10.293 1.295 3.108 3.13 5.96 5.428 8.422 2.342 2.448 5.139 4.419 8.234 5.802 3.231 1.452 6.752 2.155 10.293 2.059 4.51 0.106 8.967-0.992 12.914-3.182 3.435-1.974 6.232-4.898 8.046-8.422l-7.672-5.614c-1.202 2.534-3.165 4.628-5.616 5.989-2.406 1.334-5.109 2.042-7.86 2.059-2.146-0.007-4.263-0.52-6.176-1.497-1.894-0.93-3.557-2.273-4.865-3.93-1.358-1.656-2.374-3.564-2.995-5.614-0.661-2.188-1.037-4.453-1.122-6.737-0.024-2.355 0.355-4.698 1.122-6.924 0.669-2.11 1.823-4.033 3.369-5.614 1.348-1.649 3.083-2.936 5.054-3.743 1.926-0.916 4.043-1.365 6.176-1.31 5.054 0 9.731 2.433 13.848 7.299v3.743h-10.667v7.486h19.278v-27.324h-8.611v5.989zM773.632 477.572v53.151h23.581c2.327-0.008 4.624-0.519 6.736-1.497 2.075-0.985 3.921-2.387 5.428-4.117 1.464-1.68 2.663-3.573 3.557-5.614 0.881-2.005 1.326-4.173 1.308-6.363-0.003-3.3-0.907-6.536-2.618-9.357-1.637-2.708-4.048-4.86-6.924-6.176l12.163-20.025h-11.789l-10.855 17.779h-10.107v-17.779h-10.479zM784.111 504.334h12.914c0.931-0.041 1.852 0.222 2.621 0.749 0.814 0.467 1.515 1.106 2.059 1.872 0.647 0.849 1.151 1.797 1.496 2.807 0.369 1.085 0.557 2.223 0.562 3.369 0.027 1.148-0.162 2.292-0.562 3.369-0.377 1.035-0.95 1.988-1.685 2.807-0.7 0.678-1.451 1.304-2.244 1.872-0.828 0.364-1.719 0.555-2.621 0.562h-12.54v-17.405zM853.358 486.368c2.151-0.039 4.279 0.477 6.176 1.497 1.671 0.954 3.085 2.303 4.117 3.93 1.048 1.67 1.807 3.505 2.244 5.427 0.475 2.086 0.663 4.227 0.562 6.363v27.137h10.293v-27.137c0.050-3.475-0.393-6.941-1.311-10.293-0.836-3.040-2.231-5.896-4.117-8.422-1.913-2.464-4.425-4.398-7.298-5.614-3.316-1.398-6.884-2.099-10.481-2.059-3.743-0.113-7.462 0.656-10.853 2.246-2.847 1.35-5.343 3.335-7.301 5.802-1.899 2.493-3.239 5.365-3.929 8.422-0.817 3.245-1.255 6.573-1.311 9.919v27.137h10.293v-27.137c-0.008-2.196 0.18-4.388 0.562-6.55 0.318-1.958 1.088-3.816 2.244-5.427 1.117-1.49 2.441-2.814 3.932-3.93 1.926-0.916 4.043-1.365 6.176-1.31zM894.53 477.572v53.151h22.456c2.329-0.008 4.627-0.519 6.738-1.497 2.072-0.985 3.921-2.387 5.428-4.117 1.462-1.68 2.661-3.573 3.555-5.614 0.881-2.005 1.326-4.173 1.311-6.363 0.008-2.232-0.371-4.448-1.122-6.55-0.756-2.069-1.899-3.975-3.369-5.614-1.446-1.669-3.234-3.010-5.239-3.93-2.112-0.979-4.412-1.489-6.738-1.497h-12.54v-17.779l-10.479-0.187zM905.009 504.334h11.978c0.905-0.030 1.801 0.159 2.616 0.55s1.523 0.973 2.064 1.696c1.308 1.856 1.966 4.094 1.87 6.363 0.027 1.209-0.162 2.414-0.56 3.556-0.345 1.010-0.852 1.958-1.499 2.807-0.615 0.719-1.382 1.295-2.244 1.685-0.886 0.383-1.844 0.575-2.807 0.561h-11.604l0.186-17.218zM971.447 477.197c-3.68-0.054-7.322 0.713-10.667 2.246-3.075 1.497-5.863 3.524-8.234 5.989-2.305 2.49-4.088 5.418-5.242 8.609-1.265 3.152-1.902 6.522-1.87 9.919 0.013 3.471 0.714 6.906 2.059 10.106 1.292 3.165 3.128 6.079 5.428 8.609 2.335 2.506 5.131 4.54 8.234 5.989 3.284 1.513 6.863 2.28 10.481 2.246 3.642 0.084 7.245-0.753 10.479-2.433 3.096-1.456 5.842-3.562 8.049-6.176 2.199-2.567 3.971-5.475 5.239-8.609 1.268-3.152 1.902-6.522 1.873-9.919 0.048-3.459-0.589-6.894-1.873-10.106-1.334-3.142-3.168-6.049-5.428-8.609-2.335-2.507-5.131-4.54-8.234-5.989-3.297-1.212-6.781-1.846-10.293-1.872zM955.915 504.147c0.008-2.292 0.385-4.567 1.122-6.737 0.655-2.035 1.669-3.937 2.995-5.614 1.308-1.657 2.969-3 4.865-3.93 2.998-1.551 6.446-1.988 9.739-1.234 3.29 0.754 6.205 2.65 8.226 5.351 1.329 1.746 2.342 3.709 2.995 5.802 0.69 2.113 1.005 4.329 0.936 6.55-0.008 2.292-0.387 4.567-1.122 6.737-0.655 2.035-1.669 3.937-2.995 5.614-1.361 1.606-3.011 2.939-4.865 3.93-2.040 0.999-4.282 1.512-6.553 1.497-2.327-0.008-4.624-0.518-6.736-1.497-1.905-0.999-3.565-2.405-4.865-4.117-1.289-1.702-2.3-3.597-2.995-5.614-0.424-2.223-0.674-4.476-0.748-6.737z" />
<glyph unicode="&#xe901;" glyph-name="Size-32px" d="M512 853.334c84.387 0 166.877-25.023 237.043-71.906s124.851-113.519 157.146-191.48c32.294-77.965 40.742-163.754 24.278-246.518-16.461-82.765-57.098-158.79-116.768-218.461s-135.696-100.307-218.461-116.768c-82.765-16.464-168.554-8.016-246.515 24.278-77.965 32.294-144.601 86.982-191.484 157.146-46.883 70.166-71.906 152.656-71.906 237.043 0 113.158 44.952 221.684 124.968 301.699s188.54 124.968 301.699 124.968zM512 938.667c-101.264 0-200.254-30.028-284.452-86.287s-149.822-136.223-188.574-229.779c-38.752-93.556-48.891-196.5-29.136-295.819s68.519-190.55 140.123-262.154c71.604-71.603 162.834-120.368 262.154-140.125 99.318-19.754 202.262-9.616 295.818 29.136s173.52 104.378 229.779 188.576c56.259 84.198 86.288 183.187 86.288 284.451 0 135.792-53.942 266.020-149.962 362.039s-226.246 149.961-362.038 149.961z" />
<glyph unicode="&#xe902;" glyph-name="SizeLarge" d="M230.775 424.44c0.086 6.582 2.114 12.991 5.831 18.423s8.954 9.646 15.057 12.112c6.102 2.466 12.798 3.073 19.244 1.748s12.359-4.527 16.992-9.202c4.634-4.674 7.784-10.613 9.054-17.071s0.604-13.148-1.914-19.229c-2.519-6.081-6.777-11.282-12.242-14.952s-11.891-5.642-18.473-5.671c-8.911 0.12-17.419 3.733-23.694 10.062s-9.814 14.868-9.857 23.78zM287.719 424.44c0 13.737-10.74 25.35-23.477 25.35s-23.602-11.614-23.602-25.35c0-13.737 10.74-25.475 23.602-25.475s23.477 11.614 23.477 25.475zM348.285 458.157v-8.325c-14.569 0-24.976-8.991-24.976-21.604v-36.090h-9.366v64.52h9.366v-12.613c3.871 8.617 13.112 14.111 24.976 14.111zM413.72 431.433v-39.337h-9.366v10.115c-4.62-7.618-14.236-11.614-22.728-11.614-13.612 0-23.602 7.867-23.602 20.605s11.489 21.479 25.351 21.479c7.136-0.138 14.21-1.359 20.979-3.621v2.373c0 8.741-3.497 18.732-17.483 18.732-6.494 0-12.987-2.872-18.857-5.869l-3.746 7.618c7.151 3.861 15.105 5.999 23.227 6.244 17.608 0 26.224-11.114 26.224-26.724zM404.354 412.327v9.865c-6.346 1.743-12.899 2.625-19.48 2.622-9.616 0-17.733-5.495-17.733-13.237s6.994-12.738 16.11-12.738c8.492 0 18.606 4.371 21.104 13.487zM487.773 433.181v-41.085h-9.366v39.836c0 10.407-6.619 17.858-16.109 17.858-10.864 0-19.98-7.618-19.98-16.65v-41.085h-9.407v64.52h9.366v-10.407c2.196 3.658 5.311 6.677 9.035 8.758s7.928 3.152 12.194 3.106c14.277 0.125 24.268-10.24 24.268-24.851zM566.321 456.659v-57.694c0-16.651-13.112-28.347-31.719-28.347-9.424-0.166-18.626 2.872-26.099 8.617l4.162 7.368c5.743-5.049 13.168-7.767 20.813-7.618 14.86 0 23.601 7.368 23.601 19.98v10.406c-2.481-3.959-5.951-7.205-10.067-9.416s-8.738-3.313-13.41-3.196c-17.357 0-29.72 12.738-29.72 30.72s12.363 30.595 29.72 30.595c4.672 0.117 9.293-0.985 13.41-3.196s7.586-5.457 10.067-9.416v11.114l9.241 0.084zM556.956 427.521c0 12.987-8.992 22.228-21.729 22.228s-21.604-9.241-21.604-22.228c0-12.987 8.991-22.353 21.604-22.353s21.729 9.283 21.729 22.395v-0.042zM635.629 406.707l5.744-6.119c-5.62-6.119-16.983-9.99-25.974-9.99-4.375 0.087-8.69 1.035-12.699 2.79s-7.632 4.283-10.663 7.44c-3.031 3.157-5.41 6.88-7.001 10.956s-2.363 8.427-2.272 12.802c0 19.231 14.57 33.592 31.844 33.592 19.478 0 30.593-14.736 30.593-37.339h-52.904c1.374-12.613 10.24-21.854 22.895-21.854 7.701-0.021 16.441 3.35 20.438 7.721zM592.422 429.185h43.457c-1.249 11.614-8.117 20.605-20.979 20.605-11.489 0-20.73-8.117-22.478-20.605zM728.457 424.44c0-19.856-12.488-33.841-29.721-33.841-4.19-0.074-8.329 0.85-12.088 2.696s-7.018 4.56-9.516 7.918v-30.594h-18.232v86.041h18.232v-8.992c2.529 3.306 5.807 5.971 9.559 7.779s7.88 2.708 12.044 2.628c17.233 0.083 29.721-13.903 29.721-33.634zM710.725 424.44c0 10.74-7.118 18.357-17.233 18.357-8.866 0-15.36-6.493-16.359-15.859v-4.996c0.999-9.491 7.493-15.984 16.359-15.984 10.196-0.104 17.314 7.618 17.314 18.482h-0.081zM737.78 424.44c0 18.357 16.109 33.717 35.384 33.717 19.269 0 35.066-15.36 35.066-33.717s-15.984-33.842-35.066-33.842c-19.088 0-35.384 15.485-35.384 33.842zM790.834 424.44c-0.137 3.491-1.299 6.865-3.334 9.701-2.042 2.836-4.87 5.009-8.136 6.249s-6.825 1.491-10.234 0.722c-3.403-0.769-6.512-2.524-8.929-5.046s-4.040-5.699-4.664-9.137c-0.618-3.437-0.219-6.982 1.161-10.192 1.374-3.211 3.665-5.944 6.587-7.861s6.338-2.932 9.834-2.918c4.795 0.126 9.353 2.135 12.681 5.595 3.322 3.459 5.151 8.089 5.095 12.887h-0.062zM819.681 475.515c0.025 1.941 0.618 3.831 1.711 5.434s2.635 2.848 4.433 3.579c1.798 0.731 3.771 0.916 5.676 0.531 1.898-0.385 3.646-1.322 5.020-2.694 1.367-1.372 2.31-3.118 2.691-5.020 0.387-1.902 0.2-3.875-0.531-5.673s-1.973-3.339-3.578-4.433c-1.605-1.093-3.497-1.69-5.432-1.715-1.317-0.002-2.616 0.254-3.828 0.755-1.218 0.501-2.316 1.237-3.247 2.165-0.924 0.928-1.661 2.031-2.16 3.244-0.506 1.213-0.762 2.514-0.756 3.826zM820.449 456.658h18.313v-64.52h-18.313v64.52zM915.774 433.181v-41.085h-17.608v37.214c0 7.992-4.995 13.487-12.238 13.487-1.711 0.087-3.422-0.169-5.033-0.754s-3.084-1.485-4.346-2.649c-1.255-1.164-2.267-2.567-2.972-4.127s-1.093-3.246-1.136-4.958l-0.125 0.375v-38.587h-18.232v64.521h18.232v-8.117c2.204 3.084 5.132 5.575 8.529 7.253 3.403 1.678 7.162 2.489 10.952 2.363 14.049 0.041 23.977-10.324 23.977-24.934zM969.528 396.217c-4.146-3.54-9.403-5.526-14.86-5.62-11.364 0-19.356 8.117-19.356 19.731v31.594h-8.866v14.736h8.866v17.733h17.483v-17.733h13.986v-14.736h-13.986v-28.722c0-4.163 2.747-7.243 6.119-7.243 2.267-0.082 4.483 0.657 6.244 2.082l4.371-11.822zM112.39 478.699c10.291 0 20.351-3.052 28.907-8.769s15.226-13.843 19.164-23.352c3.938-9.508 4.969-19.969 2.961-30.063s-6.963-19.365-14.24-26.642c-7.277-7.277-16.548-12.232-26.641-14.24s-20.556-0.977-30.063 2.961c-9.508 3.938-17.634 10.607-23.352 19.164s-8.769 18.616-8.769 28.907c0 13.8 5.482 27.035 15.24 36.793s22.993 15.24 36.793 15.24zM112.39 489.106c-12.349 0-24.421-3.662-34.689-10.523s-18.271-16.613-22.997-28.022c-4.726-11.409-5.962-23.963-3.553-36.075s8.356-23.237 17.088-31.97c8.733-8.732 19.858-14.679 31.97-17.088s24.667-1.173 36.075 3.553c11.409 4.726 21.161 12.729 28.022 22.997s10.523 22.34 10.523 34.689c0 16.56-6.579 32.441-18.288 44.151s-27.591 18.288-44.151 18.288z" />
<glyph unicode="&#xe903;" glyph-name="SizeSmall" d="M238.179 424.487c0.084 6.444 2.070 12.719 5.708 18.038s8.767 9.444 14.743 11.859c5.975 2.415 12.53 3.010 18.842 1.712s12.101-4.433 16.638-9.010c4.537-4.576 7.621-10.391 8.864-16.714s0.592-12.873-1.874-18.827c-2.466-5.954-6.635-11.047-11.985-14.639s-11.643-5.524-18.087-5.553c-8.725 0.117-17.055 3.655-23.198 9.852s-9.609 14.557-9.651 23.283zM293.934 424.487c0 13.45-10.515 24.821-22.987 24.821s-23.109-11.371-23.109-24.821c0-13.45 10.515-24.943 23.109-24.943s22.987 11.371 22.987 24.943zM353.234 457.499v-8.151c-14.265 0-24.454-8.803-24.454-21.152v-35.336h-9.17v63.172h9.17v-12.349c3.79 8.437 12.838 13.816 24.454 13.816zM417.302 431.334v-38.515h-9.17v9.904c-4.524-7.458-13.939-11.371-22.253-11.371-13.327 0-23.109 7.703-23.109 20.174s11.249 21.030 24.821 21.030c6.988-0.135 13.913-1.331 20.541-3.546v2.323c0 8.559-3.424 18.34-17.118 18.34-6.358 0-12.716-2.812-18.463-5.747l-3.668 7.458c7.001 3.78 14.789 5.873 22.742 6.113 17.24 0 25.676-10.882 25.676-26.165zM408.132 412.627v9.659c-6.214 1.706-12.63 2.57-19.074 2.568-9.415 0-17.362-5.38-17.362-12.96s6.847-12.471 15.773-12.471c8.314 0 18.218 4.279 20.663 13.205zM489.808 433.046v-40.226h-9.17v39.004c0 10.189-6.48 17.484-15.773 17.484-10.637 0-19.563-7.458-19.563-16.303v-40.226h-9.211v63.172h9.17v-10.189c2.15 3.581 5.2 6.537 8.846 8.574s7.763 3.087 11.94 3.041c13.979 0.122 23.761-10.026 23.761-24.331zM566.714 456.032v-56.488c0-16.303-12.838-27.755-31.056-27.755-9.227-0.163-18.237 2.812-25.554 8.437l4.075 7.214c5.624-4.944 12.892-7.604 20.378-7.458 14.55 0 23.109 7.214 23.109 19.563v10.189c-2.429-3.877-5.827-7.054-9.857-9.22s-8.556-3.244-13.129-3.129c-16.995 0-29.1 12.471-29.1 30.078s12.105 29.956 29.1 29.956c4.574 0.115 9.099-0.964 13.129-3.129s7.428-5.343 9.857-9.22v10.882l9.048 0.082zM557.544 427.502c0 12.716-8.803 21.764-21.275 21.764s-21.152-9.048-21.152-21.764c0-12.716 8.803-21.886 21.152-21.886s21.275 9.089 21.275 21.927v-0.041zM634.575 407.125l5.624-5.991c-5.502-5.991-16.629-9.781-25.432-9.781-4.283 0.085-8.508 1.013-12.433 2.731s-7.473 4.194-10.44 7.285c-2.967 3.090-5.297 6.735-6.855 10.727s-2.314 8.251-2.225 12.534c0 18.829 14.265 32.89 31.179 32.89 19.074 0 29.956-14.428 29.956-36.558h-51.801c1.345-12.349 10.026-21.397 22.416-21.397 7.539-0.020 16.098 3.281 20.011 7.561zM592.27 429.133h42.549c-1.223 11.371-7.947 20.174-20.541 20.174-11.249 0-20.297-7.947-22.008-20.174zM725.46 424.487c0-19.441-12.227-33.135-29.1-33.135-4.098-0.073-8.154 0.832-11.832 2.639s-6.874 4.465-9.321 7.753v-29.956h-17.851v84.243h17.851v-8.803c2.481 3.237 5.688 5.845 9.362 7.616s7.714 2.651 11.791 2.573c16.873 0.082 29.1-13.612 29.1-32.931zM708.098 424.487c0 10.515-6.969 17.973-16.873 17.973-8.681 0-15.039-6.358-16.017-15.528v-4.891c0.978-9.292 7.336-15.65 16.017-15.65 9.986-0.102 16.955 7.458 16.955 18.096h-0.082zM734.589 424.487c0 17.973 15.773 33.013 34.641 33.013 18.875 0 34.342-15.039 34.342-33.013s-15.65-33.135-34.342-33.135c-18.685 0-34.641 15.161-34.641 33.135zM786.531 424.487c-0.13 3.417-1.269 6.721-3.263 9.498s-4.768 4.905-7.963 6.119c-3.194 1.214-6.679 1.459-10.018 0.706-3.336-0.753-6.377-2.471-8.744-4.94s-3.954-5.581-4.564-8.946c-0.611-3.365-0.217-6.836 1.132-9.979s3.592-5.82 6.452-7.697c2.86-1.877 6.205-2.87 9.629-2.857 4.7 0.122 9.155 2.090 12.41 5.477 3.263 3.387 5.051 7.92 4.99 12.619h-0.061zM814.775 474.494c0.031 1.9 0.611 3.75 1.681 5.32s2.583 2.789 4.341 3.504c1.758 0.716 3.691 0.897 5.556 0.52 1.857-0.377 3.569-1.294 4.914-2.637s2.262-3.053 2.636-4.916c0.374-1.862 0.199-3.794-0.52-5.554s-1.933-3.27-3.508-4.341c-1.567-1.071-3.416-1.654-5.319-1.678-1.284-0.003-2.552 0.248-3.744 0.739-1.184 0.491-2.27 1.211-3.179 2.12-0.902 0.909-1.628 1.988-2.117 3.176s-0.741 2.461-0.741 3.746zM815.532 456.032h17.935v-63.172h-17.935v63.172zM908.861 433.046v-40.226h-17.24v36.436c0 7.825-4.891 13.205-11.982 13.205-1.674 0.085-3.347-0.167-4.921-0.739-1.582-0.572-3.026-1.453-4.256-2.593s-2.216-2.513-2.912-4.041c-0.688-1.528-1.070-3.178-1.116-4.854l-0.122 0.367v-37.781h-17.851v63.172h17.851v-7.947c2.163 3.020 5.028 5.459 8.36 7.102 3.324 1.643 7.008 2.438 10.714 2.313 13.755 0.041 23.476-10.107 23.476-24.412zM961.498 396.854c-4.065-3.466-9.208-5.412-14.55-5.502-11.126 0-18.952 7.947-18.952 19.318v30.934h-8.681v14.428h8.681v17.362h17.118v-17.362h13.694v-14.428h-13.694v-28.122c0-4.076 2.69-7.092 5.991-7.092 2.216-0.081 4.394 0.643 6.113 2.037l4.279-11.574zM122.269 477.612c10.076 0 19.926-2.988 28.304-8.586s14.908-13.554 18.764-22.863c3.856-9.308 4.865-19.552 2.899-29.435s-6.818-18.96-13.943-26.084c-7.124-7.125-16.202-11.977-26.084-13.943s-20.125-0.957-29.435 2.899c-9.309 3.856-17.266 10.386-22.863 18.764s-8.586 18.228-8.586 28.304c0 13.511 5.367 26.47 14.922 36.023s22.512 14.922 36.023 14.922zM122.269 487.801c-12.091 0-23.911-3.585-33.965-10.303s-17.889-16.265-22.516-27.436c-4.627-11.171-5.838-23.463-3.479-35.322s8.181-22.752 16.731-31.302c8.55-8.55 19.443-14.373 31.302-16.732s24.151-1.148 35.322 3.479c11.171 4.627 20.718 12.462 27.436 22.516s10.303 21.874 10.303 33.965c0 16.214-6.441 31.764-17.905 43.229s-27.015 17.905-43.229 17.905z" />
<glyph unicode="&#xe904;" glyph-name="TypeArrow-Down, SizeLarge1" d="M512 757.334c17.673 0 32-14.327 32-32v-597.333c0-17.673-14.327-32-32-32s-32 14.327-32 32v597.333c0 17.673 14.327 32 32 32zM190.706 449.293c12.497 12.497 32.758 12.497 45.255 0l276.039-276.036 276.041 276.036c12.497 12.497 32.755 12.497 45.252 0s12.497-32.755 0-45.252l-298.667-298.667c-12.497-12.497-32.755-12.497-45.252 0l-298.668 298.667c-12.497 12.497-12.497 32.755 0 45.252z" />
<glyph unicode="&#xe905;" glyph-name="TypeArrow-Up" d="M512 757.334c17.673 0 32-14.327 32-32v-597.333c0-17.673-14.327-32-32-32s-32 14.327-32 32v597.333c0 17.673 14.327 32 32 32zM489.374 747.961c12.497 12.497 32.755 12.497 45.252 0l298.667-298.668c12.497-12.497 12.497-32.755 0-45.252s-32.755-12.497-45.252 0l-276.041 276.038-276.039-276.038c-12.497-12.497-32.758-12.497-45.255 0s-12.497 32.755 0 45.252l298.668 298.668z" />
<glyph unicode="&#xe906;" glyph-name="TypeBack-Left" d="M181.333 426.667c0 17.673 14.327 32 32 32h597.333c17.673 0 32-14.327 32-32s-14.327-32-32-32h-597.333c-17.673 0-32 14.327-32 32zM534.626 747.961c12.497-12.497 12.497-32.758 0-45.255l-276.038-276.039 276.038-276.041c12.497-12.497 12.497-32.755 0-45.252s-32.755-12.497-45.252 0l-298.668 298.667c-12.497 12.497-12.497 32.755 0 45.252l298.668 298.668c12.497 12.497 32.755 12.497 45.252 0z" />
<glyph unicode="&#xe907;" glyph-name="TypeCalendar" d="M213.333 736c-29.455 0-53.333-23.878-53.333-53.333v-597.333c0-29.457 23.878-53.333 53.333-53.333h597.333c29.457 0 53.333 23.876 53.333 53.333v597.333c0 29.455-23.876 53.333-53.333 53.333h-597.333zM96 682.667c0 64.801 52.532 117.333 117.333 117.333h597.333c64.802 0 117.333-52.532 117.333-117.333v-597.333c0-64.802-52.531-117.333-117.333-117.333h-597.333c-64.801 0-117.333 52.531-117.333 117.333v597.333zM682.667 885.334c17.673 0 32-14.327 32-32v-170.667c0-17.673-14.327-32-32-32s-32 14.327-32 32v170.667c0 17.673 14.327 32 32 32zM341.333 885.334c17.673 0 32-14.327 32-32v-170.667c0-17.673-14.327-32-32-32s-32 14.327-32 32v170.667c0 17.673 14.327 32 32 32zM96 512c0 17.673 14.327 32 32 32h768c17.673 0 32-14.327 32-32s-14.327-32-32-32h-768c-17.673 0-32 14.327-32 32z" />
<glyph unicode="&#xe908;" glyph-name="TypeCheck-Circle" d="M672.631 787.411c-77.743 34.639-164.595 43.22-247.608 24.464-83.014-18.756-157.742-63.844-213.038-128.54s-88.197-145.533-93.797-230.453c-5.6-84.924 16.402-169.382 62.724-240.777 46.322-71.398 114.482-125.909 194.315-155.401 79.834-29.495 167.062-32.393 248.675-8.265 81.613 24.132 153.242 73.997 204.198 142.165 50.961 68.164 78.519 150.976 78.566 236.079v39.236c0 17.673 14.327 32 32 32s32-14.327 32-32v-39.253c-0.055-98.906-32.085-195.166-91.307-274.385s-142.464-137.169-237.312-165.214c-94.848-28.045-196.22-24.678-289 9.6s-171.992 97.626-225.825 180.599-79.403 181.129-72.895 279.821c6.508 98.696 44.745 192.641 109.007 267.828s151.108 127.587 247.584 149.385c96.478 21.797 197.414 11.825 287.761-28.431 16.141-7.193 23.398-26.11 16.205-42.254s-26.112-23.398-42.253-16.206zM961.284 790.639c12.501-12.491 12.51-32.752 0.021-45.255l-426.667-427.095c-5.999-6.003-14.14-9.382-22.63-9.382s-16.631 3.371-22.635 9.374l-128.001 128c-12.497 12.497-12.497 32.755 0 45.252s32.758 12.497 45.255 0l105.36-105.361 404.041 404.445c12.493 12.503 32.751 12.513 45.257 0.023z" />
<glyph unicode="&#xe909;" glyph-name="TypeCheck" d="M979.793 784.258c12.497-12.497 12.497-32.758 0-45.255l-426.667-426.666c-12.497-12.497-32.755-12.497-45.252 0l-128.002 128c-12.497 12.497-12.497 32.755 0 45.252s32.758 12.497 45.255 0l105.373-105.37 404.041 404.038c12.497 12.497 32.755 12.497 45.252 0zM231.833 772.297c-14.145 0-27.71-5.619-37.712-15.621s-15.621-23.567-15.621-37.712v-597.334c0-14.144 5.619-27.712 15.621-37.713s23.567-15.62 37.712-15.62h597.334c14.144 0 27.712 5.619 37.713 15.62s15.62 23.569 15.62 37.713v298.667c0 17.673 14.327 32 32 32s32-14.327 32-32v-298.667c0-31.117-12.361-60.962-34.368-82.965-22.003-22.007-51.849-34.368-82.965-34.368h-597.334c-31.119 0-60.963 12.361-82.967 34.368-22.004 22.003-34.366 51.849-34.366 82.965v597.334c0 31.119 12.362 60.963 34.366 82.967s51.849 34.366 82.967 34.366h469.334c17.673 0 32-14.327 32-32s-14.327-32-32-32h-469.334z" />
<glyph unicode="&#xe90a;" glyph-name="TypeChevron-Down" d="M233.373 577.294c12.497 12.497 32.758 12.497 45.255 0l233.373-233.371 233.374 233.371c12.497 12.497 32.755 12.497 45.252 0s12.497-32.758 0-45.255l-256-255.999c-12.497-12.497-32.755-12.497-45.252 0l-256.001 255.999c-12.497 12.497-12.497 32.758 0 45.255z" />
<glyph unicode="&#xe90b;" glyph-name="TypeChevron-Up" d="M233.373 276.041c12.497-12.497 32.758-12.497 45.255 0l233.373 233.37 233.374-233.37c12.497-12.497 32.755-12.497 45.252 0s12.497 32.755 0 45.252l-256 256.001c-12.497 12.497-32.755 12.497-45.252 0l-256.001-256.001c-12.497-12.497-12.497-32.755 0-45.252z" />
<glyph unicode="&#xe90c;" glyph-name="TypeDelete" d="M96 682.667c0 17.673 14.327 32 32 32h768c17.673 0 32-14.327 32-32s-14.327-32-32-32h-768c-17.673 0-32 14.327-32 32zM426.667 821.334h170.667c14.144 0 27.712-5.619 37.713-15.621s15.62-23.567 15.62-37.712v-53.333h-277.333v53.333c0 14.145 5.619 27.71 15.621 37.712s23.567 15.621 37.712 15.621zM714.667 714.667h96c17.673 0 32-14.327 32-32v-597.333c0-31.117-12.361-60.962-34.368-82.965-22.003-22.007-51.849-34.368-82.965-34.368h-426.667c-31.119 0-60.963 12.361-82.967 34.368-22.004 22.003-34.366 51.849-34.366 82.965v597.333c0 17.673 14.327 32 32 32h96v53.333c0 31.119 12.362 60.963 34.366 82.967s51.848 34.366 82.967 34.366h170.667c31.117 0 60.962-12.362 82.965-34.366 22.007-22.004 34.368-51.848 34.368-82.967v-53.333zM245.333 650.667v-565.333c0-14.144 5.619-27.712 15.621-37.713s23.567-15.62 37.712-15.62h426.667c14.144 0 27.712 5.619 37.713 15.62s15.62 23.569 15.62 37.713v565.333h-533.333z" />
<glyph unicode="&#xe90d;" glyph-name="TypeEdit" d="M86.429 746.592c22.004 22.004 51.849 34.366 82.967 34.366h298.666c17.673 0 32-14.327 32-32s-14.327-32-32-32h-298.666c-14.145 0-27.71-5.619-37.712-15.621s-15.621-23.567-15.621-37.712v-597.334c0-14.144 5.619-27.712 15.621-37.713s23.567-15.62 37.712-15.62h597.333c14.144 0 27.712 5.619 37.713 15.62s15.62 23.569 15.62 37.713v298.667c0 17.673 14.327 32 32 32s32-14.327 32-32v-298.667c0-31.117-12.361-60.962-34.364-82.965-22.007-22.007-51.849-34.368-82.97-34.368h-597.333c-31.119 0-60.963 12.361-82.967 34.368-22.004 22.003-34.366 51.849-34.366 82.965v597.334c0 31.119 12.362 60.963 34.366 82.967zM852.062 807.469c-15.518 0-30.4-6.164-41.37-17.137l-399.068-399.066-27.581-110.327 110.327 27.584 399.066 399.064c10.974 10.973 17.139 25.855 17.139 41.373s-6.165 30.4-17.139 41.373c-10.974 10.973-25.856 17.137-41.374 17.137zM765.436 835.587c22.976 22.975 54.135 35.882 86.626 35.882 32.495 0 63.654-12.907 86.63-35.882 22.972-22.975 35.883-54.136 35.883-86.627s-12.911-63.652-35.883-86.627l-405.333-405.333c-4.105-4.1-9.242-7.010-14.869-8.418l-170.665-42.667c-10.905-2.726-22.44 0.469-30.388 8.418s-11.143 19.482-8.417 30.387l42.667 170.667c1.407 5.628 4.316 10.765 8.417 14.869l405.333 405.332z" />
<glyph unicode="&#xe90e;" glyph-name="TypeError" d="M454.438 831.959c17.57 9.894 37.397 15.091 57.562 15.091 20.169 0 39.991-5.197 57.566-15.091 17.57-9.893 32.294-24.148 42.756-41.39l0.090-0.152 361.651-603.746c10.244-17.745 15.663-37.862 15.718-58.347 0.060-20.489-5.248-40.636-15.394-58.432-10.146-17.801-24.777-32.636-42.432-43.025-17.66-10.389-37.73-15.974-58.214-16.201l-0.354-0.004-723.124 0.004c-20.487 0.226-40.557 5.811-58.214 16.201s-32.287 25.225-42.433 43.025c-10.145 17.796-15.454 37.943-15.396 58.432 0.057 20.484 5.478 40.602 15.723 58.342l0.256 0.444 361.39 603.306 27.451-16.444-27.359 16.596c10.458 17.242 25.183 31.497 42.758 41.39zM466.441 757.443c-0.013-0.022-0.026-0.044-0.038-0.067l-361.149-602.91c-4.584-8.017-7.008-17.088-7.034-26.321-0.026-9.314 2.387-18.47 6.998-26.56 4.612-8.094 11.261-14.835 19.287-19.558 7.981-4.693 17.047-7.232 26.304-7.36h722.385c9.254 0.128 18.321 2.667 26.304 7.36 8.026 4.723 14.673 11.465 19.285 19.558 4.612 8.090 7.023 17.246 6.997 26.56-0.026 9.233-2.449 18.304-7.031 26.321l-361.148 602.91c-0.013 0.022-0.030 0.044-0.043 0.067-4.749 7.807-11.43 14.263-19.392 18.747-7.987 4.497-16.998 6.86-26.167 6.86-9.165 0-18.176-2.362-26.163-6.86-7.966-4.484-14.643-10.94-19.396-18.747zM512 586.667c17.673 0 32-14.327 32-32v-170.667c0-17.673-14.327-32-32-32s-32 14.327-32 32v170.667c0 17.673 14.327 32 32 32zM480 213.334c0 17.673 14.327 32 32 32h0.427c17.673 0 32-14.327 32-32s-14.327-32-32-32h-0.427c-17.673 0-32 14.327-32 32z" />
<glyph unicode="&#xe90f;" glyph-name="TypeEye-Off" d="M489.997 735.38l396.582-396.947c21.47 28.049 40.951 57.566 58.308 88.346-4.962 8.777-12.245 21.116-21.769 35.861-19.921 30.844-49.434 71.888-87.799 112.81-77.308 82.466-186.769 160.553-323.319 160.553h-0.077c-7.317 0.017-14.63-0.191-21.926-0.623zM981.333 426.667l28.621 14.31c4.642-9.28 4.493-20.241-0.401-29.393-26.948-50.419-59.089-97.882-95.893-141.623-5.773-6.861-14.161-10.987-23.121-11.371-8.956-0.384-17.664 3.012-24.004 9.357l-466.772 467.198c-8.207 8.215-11.32 20.231-8.134 31.398s12.172 19.731 23.478 22.377c31.771 7.437 64.3 11.156 96.932 11.082 162.099-0.015 287.292-92.586 369.975-180.781 41.634-44.412 73.455-88.701 94.869-121.86 10.726-16.61 18.893-30.507 24.422-40.337 2.769-4.919 4.877-8.828 6.323-11.554 0.721-1.365 1.276-2.436 1.664-3.191l0.457-0.892 0.137-0.269 0.043-0.085 0.026-0.055c0.009-0.009 0 0-28.621-14.31zM239.139 705.541c12.741 9.728 30.714 8.529 42.048-2.805l162.862-162.864c0.073-0.072 0.145-0.145 0.218-0.217l180.719-180.717c0.073-0.073 0.145-0.145 0.222-0.222l162.859-162.859c6.528-6.528 9.92-15.561 9.301-24.772s-5.184-17.711-12.527-23.305c-78.37-59.738-173.794-92.83-272.316-94.443l-0.525-0.009c-162.118 0-287.323 92.587-370.012 180.787-41.636 44.412-73.455 88.7-94.869 121.856-10.727 16.61-18.895 30.507-24.426 40.341-2.767 4.919-4.877 8.828-6.321 11.554-0.722 1.365-1.278 2.436-1.666 3.191l-0.457 0.892-0.177 0.35c-0.006 0.013-0.027 0.055 28.594 14.366l-28.622-14.31c-4.65 9.301-4.492 20.279 0.425 29.444 55.23 102.924 131.833 192.849 224.669 263.741zM79.128 426.53c4.963-8.777 12.24-21.107 21.753-35.836 19.919-30.839 49.434-71.885 87.797-112.806 77.262-82.415 186.633-160.452 323.061-160.555 72.435 1.233 142.916 22.221 203.968 60.373l-114.88 114.88c-8.431-5.931-17.438-11.042-26.901-15.262-19.627-8.742-40.815-13.444-62.298-13.824s-42.82 3.571-62.746 11.618c-19.921 8.047-38.020 20.028-53.213 35.221-15.194 15.189-27.171 33.289-35.218 53.214-8.047 19.921-11.999 41.259-11.62 62.746 0.379 21.483 5.081 42.667 13.826 62.293 4.216 9.463 9.331 18.47 15.259 26.903l-121.819 121.819c-71.379-58.809-131.375-130.252-176.97-210.785zM424.332 469.082c-1.152-2.133-2.224-4.314-3.214-6.537-5.247-11.776-8.068-24.486-8.296-37.376s2.144-25.694 6.972-37.649c4.829-11.951 12.014-22.81 21.132-31.927 9.114-9.114 19.972-16.303 31.927-21.129 11.955-4.83 24.759-7.202 37.649-6.972 12.89 0.226 25.6 3.046 37.376 8.294 2.223 0.99 4.403 2.061 6.537 3.213l-130.083 130.082zM20.039 918.628c12.497 12.497 32.758 12.497 45.255 0l938.665-938.668c12.497-12.497 12.497-32.755 0-45.252s-32.755-12.497-45.252 0l-938.668 938.665c-12.497 12.497-12.497 32.758 0 45.255z" />
<glyph unicode="&#xe910;" glyph-name="TypeEye-On" d="M79.050 426.667c4.965 8.785 12.268 21.167 21.831 35.972 19.919 30.844 49.434 71.887 87.797 112.808 77.312 82.466 186.772 160.553 323.322 160.553s246.012-78.087 323.319-160.553c38.366-40.921 67.878-81.964 87.799-112.808 9.562-14.805 16.866-27.187 21.833-35.972-4.966-8.785-12.271-21.167-21.833-35.972-19.921-30.844-49.434-71.885-87.799-112.806-77.308-82.466-186.769-160.555-323.319-160.555s-246.010 78.089-323.322 160.555c-38.364 40.922-67.878 81.963-87.797 112.806-9.563 14.805-16.866 27.187-21.831 35.972zM981.333 426.667c28.621 14.31 28.617 14.323 28.608 14.336l-0.013 0.030-0.043 0.085-0.137 0.265-0.457 0.896c-0.388 0.755-0.943 1.826-1.664 3.187-1.446 2.731-3.554 6.639-6.323 11.554-5.53 9.835-13.696 23.731-24.422 40.341-21.414 33.157-53.235 77.446-94.869 121.859-82.692 88.201-207.898 180.78-370.014 180.78-162.118 0-287.323-92.579-370.012-180.78-41.636-44.412-73.455-88.701-94.869-121.859-10.727-16.61-18.895-30.507-24.426-40.341-2.767-4.915-4.877-8.823-6.321-11.554-0.722-1.361-1.278-2.432-1.666-3.187l-0.457-0.896-0.177-0.35-0.016-0.030c-0.006-0.013-0.012-0.026 28.61-14.336l-28.622 14.31c-4.504-9.007-4.504-19.614 0-28.621l28.622 14.31c-28.622-14.31-28.616-14.323-28.61-14.336l0.016-0.030 0.177-0.35 0.457-0.896c0.388-0.755 0.944-1.826 1.666-3.187 1.444-2.731 3.554-6.639 6.321-11.554 5.531-9.835 13.699-23.731 24.426-40.341 21.414-33.156 53.233-77.449 94.869-121.86 82.688-88.201 207.894-180.779 370.012-180.779 162.116 0 287.322 92.578 370.014 180.779 41.634 44.412 73.455 88.704 94.869 121.86 10.726 16.61 18.893 30.507 24.422 40.341 2.769 4.915 4.877 8.823 6.323 11.554 0.721 1.361 1.276 2.432 1.664 3.187l0.457 0.896 0.137 0.265 0.043 0.085 0.013 0.030c0.009 0.013 0.013 0.026-28.608 14.336zM981.333 426.667l28.621-14.31c4.506 9.007 4.506 19.614 0 28.621l-28.621-14.31zM512 522.667c-53.018 0-96-42.982-96-96s42.982-96 96-96c53.018 0 96 42.982 96 96s-42.982 96-96 96zM352 426.667c0 88.366 71.634 160 160 160s160-71.634 160-160c0-88.367-71.633-160-160-160s-160 71.633-160 160z" />
<glyph unicode="&#xe911;" glyph-name="TypeLogout" d="M213.333 778.667c-14.145 0-27.71-5.619-37.712-15.621s-15.621-23.567-15.621-37.712v-597.333c0-14.144 5.619-27.712 15.621-37.713s23.567-15.62 37.712-15.62h170.667c17.673 0 32-14.327 32-32s-14.327-32-32-32h-170.667c-31.119 0-60.963 12.361-82.967 34.368-22.004 22.003-34.366 51.849-34.366 82.965v597.333c0 31.119 12.362 60.963 34.366 82.967s51.848 34.366 82.967 34.366h170.667c17.673 0 32-14.327 32-32s-14.327-32-32-32h-170.667zM660.041 662.628c12.497 12.497 32.755 12.497 45.252 0l213.333-213.335c12.497-12.497 12.497-32.755 0-45.252l-213.333-213.333c-12.497-12.497-32.755-12.497-45.252 0s-12.497 32.755 0 45.252l190.703 190.707-190.703 190.706c-12.497 12.497-12.497 32.758 0 45.255zM352 426.667c0 17.673 14.327 32 32 32h512c17.673 0 32-14.327 32-32s-14.327-32-32-32h-512c-17.673 0-32 14.327-32 32z" />
<glyph unicode="&#xe912;" glyph-name="TypeMenu" d="M112.937 438.682c0 17.673 14.327 32 32 32h768.001c17.673 0 32-14.327 32-32 0-17.677-14.327-32-32-32h-768.001c-17.673 0-32 14.323-32 32zM112.937 694.68c0 17.673 14.327 32 32 32h768.001c17.673 0 32-14.327 32-32s-14.327-32-32-32h-768.001c-17.673 0-32 14.327-32 32zM112.937 182.682c0 17.673 14.327 32 32 32h768.001c17.673 0 32-14.327 32-32 0-17.677-14.327-32-32-32h-768.001c-17.673 0-32 14.323-32 32z" />
<glyph unicode="&#xe913;" glyph-name="TypeMessage" d="M213.333 778.667c-14.145 0-27.71-5.619-37.712-15.621s-15.621-23.567-15.621-37.712v-605.41l116.039 116.036c6.001 6.003 14.141 9.374 22.627 9.374h512c14.144 0 27.712 5.619 37.713 15.62s15.62 23.569 15.62 37.713v426.667c0 14.145-5.619 27.71-15.62 37.712s-23.569 15.621-37.713 15.621h-597.333zM130.366 808.301c22.004 22.004 51.848 34.366 82.967 34.366h597.333c31.117 0 60.962-12.362 82.965-34.366 22.007-22.004 34.368-51.848 34.368-82.967v-426.667c0-31.117-12.361-60.962-34.368-82.965-22.003-22.007-51.849-34.368-82.965-34.368h-498.745l-161.294-161.293c-9.152-9.152-22.916-11.891-34.873-6.938s-19.754 16.623-19.754 29.564v682.667c0 31.119 12.362 60.963 34.366 82.967z" />
<glyph unicode="&#xe914;" glyph-name="TypeMore-Vertical" d="M426.667 405.334c0-35.345 28.655-64 64-64s64 28.655 64 64c0 35.345-28.655 64-64 64s-64-28.655-64-64zM426.667 106.667c0-35.345 28.655-64 64-64s64 28.655 64 64c0 35.345-28.655 64-64 64s-64-28.655-64-64zM426.667 704c0-35.346 28.655-64 64-64s64 28.654 64 64c0 35.346-28.655 64-64 64s-64-28.654-64-64z" />
<glyph unicode="&#xe915;" glyph-name="TypePlace" d="M512 864c-93.356 0-182.889-37.085-248.902-103.098s-103.098-155.545-103.098-248.902c0-136.469 88.503-267.337 183.23-367.326 46.709-49.306 93.527-89.63 128.701-117.641 16.311-12.988 30.067-23.287 40.068-30.554 10.001 7.266 23.757 17.566 40.068 30.554 35.174 28.011 81.993 68.335 128.7 117.641 94.729 99.989 183.232 230.857 183.232 367.326 0 93.356-37.086 182.889-103.1 248.902-66.010 66.013-155.546 103.098-248.9 103.098zM512-42.666c-17.749-26.624-17.758-26.62-17.771-26.615l-0.107 0.073-1.203 0.815c-0.806 0.546-1.963 1.34-3.452 2.368-2.978 2.061-7.275 5.082-12.702 9.003-10.859 7.838-26.261 19.311-44.698 33.993-36.826 29.321-86.008 71.663-135.299 123.691-97.273 102.677-200.77 249.143-200.77 411.341 0 110.33 43.828 216.141 121.844 294.156s183.826 121.844 294.156 121.844c110.332 0 216.141-43.828 294.157-121.844s121.843-183.826 121.843-294.156c0-162.197-103.497-308.663-200.768-411.341-49.293-52.028-98.475-94.37-135.3-123.691-18.436-14.682-33.839-26.155-44.698-33.993-5.427-3.921-9.724-6.942-12.702-9.003-1.489-1.028-2.645-1.822-3.452-2.368l-1.203-0.815-0.081-0.051c-0.009-0.009-0.047-0.030-17.796 26.594zM512-42.666l17.749-26.624c-10.748-7.168-24.768-7.155-35.52 0.009l17.771 26.615zM512 608c-53.018 0-96-42.981-96-96 0-53.018 42.982-96 96-96s96 42.982 96 96c0 53.019-42.982 96-96 96zM352 512c0 88.366 71.634 160 160 160s160-71.634 160-160c0-88.367-71.633-160-160-160s-160 71.633-160 160z" />
<glyph unicode="&#xe916;" glyph-name="TypePlus" d="M512 757.334c17.673 0 32-14.327 32-32v-597.333c0-17.673-14.327-32-32-32s-32 14.327-32 32v597.333c0 17.673 14.327 32 32 32zM181.333 426.667c0 17.673 14.327 32 32 32h597.333c17.673 0 32-14.327 32-32s-14.327-32-32-32h-597.333c-17.673 0-32 14.327-32 32z" />
<glyph unicode="&#xe917;" glyph-name="TypeTime" d="M512 821.334c-217.968 0-394.667-176.698-394.667-394.667 0-217.967 176.698-394.667 394.667-394.667 217.967 0 394.667 176.7 394.667 394.667 0 217.968-176.7 394.667-394.667 394.667zM53.333 426.667c0 253.315 205.352 458.667 458.667 458.667s458.667-205.352 458.667-458.667c0-253.316-205.35-458.667-458.667-458.667-253.315 0-458.667 205.35-458.667 458.667zM512 714.667c17.673 0 32-14.327 32-32v-236.224l152.977-76.489c15.808-7.902 22.217-27.123 14.31-42.931-7.902-15.808-27.123-22.217-42.931-14.31l-170.667 85.333c-10.842 5.419-17.69 16.499-17.69 28.621v256c0 17.673 14.327 32 32 32z" />
<glyph unicode="&#xe918;" glyph-name="TypeUser" d="M198.026 271.309c38.007 38.007 89.556 59.358 143.307 59.358h341.333c53.751 0 105.301-21.35 143.309-59.358s59.358-89.557 59.358-143.309v-85.333c0-17.673-14.327-32-32-32s-32 14.327-32 32v85.333c0 36.779-14.609 72.047-40.614 98.052s-61.274 40.614-98.052 40.614h-341.333c-36.777 0-72.047-14.609-98.052-40.614s-40.614-61.274-40.614-98.052v-85.333c0-17.673-14.327-32-32-32s-32 14.327-32 32v85.333c0 53.751 21.352 105.301 59.36 143.309zM512 778.667c-76.582 0-138.667-62.083-138.667-138.667s62.084-138.667 138.667-138.667c76.582 0 138.667 62.083 138.667 138.667s-62.084 138.667-138.667 138.667zM309.333 640c0 111.93 90.737 202.667 202.667 202.667 111.932 0 202.667-90.737 202.667-202.667s-90.735-202.667-202.667-202.667c-111.93 0-202.667 90.737-202.667 202.667z" />
<glyph unicode="&#xe919;" glyph-name="TypeWork" d="M170.667 608c-29.455 0-53.333-23.878-53.333-53.333v-426.667c0-29.457 23.878-53.333 53.333-53.333h682.667c29.457 0 53.333 23.876 53.333 53.333v426.667c0 29.455-23.876 53.333-53.333 53.333h-682.667zM53.333 554.667c0 64.801 52.532 117.333 117.333 117.333h682.667c64.802 0 117.333-52.532 117.333-117.333v-426.667c0-64.802-52.531-117.333-117.333-117.333h-682.667c-64.801 0-117.333 52.531-117.333 117.333v426.667zM343.7 808.301c22.004 22.004 51.848 34.366 82.967 34.366h170.667c31.117 0 60.962-12.362 82.965-34.366 22.007-22.004 34.368-51.848 34.368-82.967v-682.667c0-17.673-14.327-32-32-32s-32 14.327-32 32v682.667c0 14.145-5.619 27.71-15.62 37.712s-23.569 15.621-37.713 15.621h-170.667c-14.145 0-27.71-5.619-37.712-15.621s-15.621-23.567-15.621-37.712v-682.667c0-17.673-14.327-32-32-32s-32 14.327-32 32v682.667c0 31.119 12.362 60.963 34.366 82.967z" />
<glyph unicode="&#xe91a;" glyph-name="TypeX" d="M790.626 705.294c12.497-12.497 12.497-32.758 0-45.255l-511.999-511.999c-12.497-12.497-32.758-12.497-45.255 0s-12.497 32.755 0 45.252l512.001 512.001c12.497 12.497 32.755 12.497 45.252 0zM233.373 705.294c12.497 12.497 32.758 12.497 45.255 0l511.999-512.001c12.497-12.497 12.497-32.755 0-45.252s-32.755-12.497-45.252 0l-512.001 511.999c-12.497 12.497-12.497 32.758 0 45.255z" />
</font>
</defs>
</svg>
