<svg width="484" height="1099" viewBox="0 0 484 1099" fill="none" xmlns="http://www.w3.org/2000/svg">
<g clip-path="url(#clip0)">
<path d="M209.074 423.772H32.8358C24.1272 423.772 15.7753 420.312 9.61739 414.153C3.45948 407.995 0 399.642 0 390.932V154.865C0 146.155 3.45948 137.802 9.61739 131.644C15.7753 125.485 24.1272 122.026 32.8358 122.026H209.074C217.782 122.026 226.134 125.485 232.292 131.644C238.45 137.802 241.909 146.155 241.909 154.865V390.932C241.909 399.642 238.45 407.995 232.292 414.153C226.134 420.312 217.782 423.772 209.074 423.772ZM32.8358 123.158C24.4275 123.158 16.3636 126.498 10.418 132.445C4.47245 138.391 1.13227 146.456 1.13227 154.865V390.932C1.13227 399.342 4.47245 407.406 10.418 413.352C16.3636 419.299 24.4275 422.639 32.8358 422.639H209.074C213.237 422.639 217.36 421.819 221.206 420.226C225.052 418.632 228.547 416.297 231.491 413.352C234.435 410.408 236.771 406.913 238.364 403.066C239.957 399.219 240.777 395.096 240.777 390.932V154.865C240.777 150.701 239.957 146.578 238.364 142.731C236.771 138.884 234.435 135.389 231.491 132.445C228.547 129.5 225.052 127.165 221.206 125.571C217.36 123.978 213.237 123.158 209.074 123.158H32.8358Z" fill="#E5E5E5"/>
<path d="M363.594 40.494H107.101C99.8941 40.494 92.9822 43.3573 87.886 48.454C82.7898 53.5507 79.9268 60.4633 79.9268 67.6712V349.521C79.9268 356.729 82.7898 363.642 87.886 368.738C92.9822 373.835 99.8941 376.698 107.101 376.698H363.594C370.801 376.698 377.713 373.835 382.809 368.738C387.906 363.642 390.769 356.729 390.769 349.521V67.6712C390.769 60.4633 387.906 53.5507 382.809 48.454C377.713 43.3573 370.801 40.494 363.594 40.494Z" fill="#F1F1F6"/>
<path d="M344.867 59.1443H125.818C118.611 59.1443 111.699 62.0076 106.603 67.1044C101.507 72.2011 98.6436 79.1137 98.6436 86.3215V348.412C98.6436 355.619 101.507 362.532 106.603 367.629C111.699 372.725 118.611 375.589 125.818 375.589H344.867C352.074 375.589 358.986 372.725 364.082 367.629C369.178 362.532 372.041 355.619 372.041 348.412V86.3215C372.041 79.1137 369.178 72.2011 364.082 67.1044C358.986 62.0076 352.074 59.1443 344.867 59.1443Z" fill="white"/>
<path d="M399.918 358.32H70.7669C68.3255 358.32 65.9841 359.29 64.2577 361.016C62.5314 362.743 61.5615 365.084 61.5615 367.526C61.5615 369.968 62.5314 372.309 64.2577 374.036C65.9841 375.762 68.3255 376.732 70.7669 376.732H399.918C402.359 376.732 404.701 375.762 406.427 374.036C408.153 372.309 409.123 369.968 409.123 367.526C409.123 365.084 408.153 362.743 406.427 361.016C404.701 359.29 402.359 358.32 399.918 358.32Z" fill="#F1F1F6"/>
<path d="M385.866 168.748H84.8184V187.149H385.866V168.748Z" fill="#F1F1F6"/>
<path d="M149.969 196.502C149.969 196.502 163.828 197.272 174.166 191.441C183.949 185.926 185.489 177.274 182.092 160.164C182.092 160.164 188.218 156.473 187.606 152.838C187.21 150.392 180.303 147.957 180.303 147.957C179.431 143.269 178.322 136.214 176.544 128.978C172.068 129.865 167.519 130.336 162.957 130.383C149.335 145.806 134.435 146.723 134.435 146.723C132.273 143.494 129.343 140.852 125.909 139.034L105.528 147.176C105.335 147.833 105.177 148.501 105.041 149.18C102.21 165.283 122.184 171.273 122.184 171.273C118.119 186.685 105.041 192.732 95.2129 195.053L96.0168 202.719H151L149.969 196.502Z" fill="#FEBBA2"/>
<path d="M281.629 318.664C329.354 304.554 332.411 191.712 332.411 191.712L307.501 159.519C307.501 159.519 312.2 136.429 307.298 132.138C301.398 126.963 293.948 143.246 285.886 163.448C277.417 184.748 261.622 247.244 260.376 251.57C260.376 251.57 248.51 245.976 234.413 239.476L232.409 246.044L214.293 307.397C234.255 315.561 262.494 324.348 281.629 318.664Z" fill="#FEBBA2"/>
<path d="M122.15 171.205C122.15 171.205 102.188 165.215 105.03 149.112C105.154 148.444 105.324 147.765 105.517 147.108L90.6611 153.008C90.6611 153.427 90.7291 153.823 90.7517 154.23L95.1789 194.996C104.996 192.675 118.13 186.628 122.15 171.205Z" fill="#D17458"/>
<path d="M134.435 146.655C134.435 146.655 149.347 145.726 163.002 130.315C167.564 130.266 172.112 129.799 176.589 128.922C175.851 125.831 174.951 122.78 173.894 119.783L125.863 139.011C129.298 140.829 132.227 143.471 134.389 146.7L134.435 146.655Z" fill="#D17458"/>
<path d="M105.493 147.108L125.874 138.966C117.45 134.686 108.222 137.8 105.493 147.108Z" fill="#303033"/>
<path d="M125.863 139.011L173.826 119.761C172.379 115.312 170.219 111.128 167.428 107.373C157.238 94.5313 132.034 85.2118 109.807 101.484C88.464 117.179 89.7774 142.035 90.6606 152.985L105.493 147.051C108.222 137.8 117.45 134.686 125.863 139.011Z" fill="#303033"/>
<path d="M183.043 229.704L181.582 217.078C172.147 214.199 162.4 212.466 152.551 211.914L151.034 202.708H96.0168L96.8774 210.691C91.4345 210.673 86.0008 211.139 80.6406 212.084L88.3401 229.704H183.043Z" fill="#FE4400"/>
<path d="M104.316 266.518H187.288L185.171 248.105H96.3105L104.316 266.518Z" fill="#FE4400"/>
<path d="M112.332 284.919L120.348 303.32H191.398L190.674 296.356H190.73L189.44 284.919H112.332Z" fill="#FE4400"/>
<path d="M133.777 331.324C133.777 331.324 173.656 333.985 194.92 337.461L193.312 321.733H129.452L133.777 331.324Z" fill="#FE4400"/>
<path d="M185.172 248.105L183.043 229.704H88.2832L96.311 248.105H185.172Z" fill="white"/>
<path d="M104.316 266.518L112.333 284.919H189.406L187.289 266.518H104.316Z" fill="white"/>
<path d="M122.149 305.562L129.452 321.733H193.312L191.399 303.32H121.107L122.149 305.562Z" fill="white"/>
<path d="M234.459 239.454C227.507 236.192 220.023 232.773 213.173 229.681C207.172 226.963 201.646 224.517 197.411 222.706C192.246 220.5 186.953 218.61 181.56 217.044L183.02 229.67L185.149 248.071L187.266 266.484L189.418 284.907L190.765 296.412C191.388 296.729 196.777 299.662 204.941 303.343C207.658 304.577 210.682 305.902 213.931 307.238L214.373 307.419L232.489 246.067L234.493 239.488L234.459 239.454Z" fill="#FE4400"/>
<path d="M129.452 321.733L122.149 305.562L121.107 303.297H120.36L121.979 306.989L62.3311 328.787C72.3743 348.853 83.7536 366.065 92.1664 374.309C121.537 403.14 198.498 385.18 198.498 385.18C204.572 389.677 211.511 392.869 218.879 394.556C239.69 435.662 251.126 421.416 251.126 421.416C251.126 421.416 258.474 429.343 263.977 420.805C274.994 421.416 274.371 414.667 264.588 391.363C275.605 404.849 286.566 405.076 286.804 401.35C287.415 391.533 259.878 359.033 234.606 348.445C219.399 342.07 194.976 337.575 194.976 337.575C173.678 334.177 133.834 331.437 133.834 331.437L129.452 321.733Z" fill="#FEBBA2"/>
<path d="M80.6063 212.084C69.2837 214.02 54.7 218.663 46.2986 229.704C42.1968 235.14 39.8469 241.697 39.5616 248.501C38.1802 270.832 49.0953 302.278 62.3428 328.742L121.979 307.012L80.6063 212.084Z" fill="#FE4400"/>
<path fill-rule="evenodd" clip-rule="evenodd" d="M139.609 202.595C139.733 202.58 139.859 202.591 139.979 202.625C140.099 202.66 140.211 202.717 140.309 202.795C140.407 202.873 140.488 202.969 140.549 203.079C140.609 203.188 140.648 203.308 140.662 203.433L141.873 214.258C141.902 214.509 141.829 214.761 141.672 214.958C141.515 215.156 141.286 215.283 141.035 215.311C140.785 215.34 140.533 215.267 140.335 215.11C140.138 214.953 140.011 214.724 139.982 214.473L138.771 203.648C138.757 203.524 138.767 203.398 138.801 203.278C138.836 203.157 138.894 203.045 138.972 202.947C139.049 202.85 139.146 202.768 139.255 202.708C139.364 202.647 139.484 202.609 139.609 202.595Z" fill="#303033"/>
<path fill-rule="evenodd" clip-rule="evenodd" d="M129.203 202.595C129.454 202.569 129.704 202.642 129.901 202.799C130.097 202.955 130.225 203.183 130.256 203.433L131.479 214.258C131.508 214.509 131.436 214.761 131.278 214.958C131.121 215.156 130.892 215.283 130.641 215.311C130.391 215.34 130.139 215.267 129.941 215.11C129.744 214.953 129.617 214.724 129.588 214.473L128.366 203.648C128.351 203.523 128.362 203.398 128.396 203.278C128.431 203.157 128.488 203.045 128.566 202.947C128.644 202.85 128.74 202.768 128.85 202.708C128.959 202.647 129.079 202.609 129.203 202.595Z" fill="#303033"/>
<path fill-rule="evenodd" clip-rule="evenodd" d="M137.627 194.294C137.681 194.181 137.756 194.08 137.849 193.996C137.941 193.912 138.05 193.847 138.167 193.805C138.285 193.763 138.41 193.744 138.535 193.75C138.66 193.757 138.782 193.788 138.895 193.841C142.403 195.521 146.193 196.531 150.071 196.819C150.202 196.818 150.333 196.844 150.454 196.895C150.575 196.947 150.684 197.023 150.774 197.119C150.864 197.215 150.933 197.328 150.977 197.452C151.021 197.576 151.039 197.708 151.03 197.839C151.02 197.97 150.984 198.098 150.923 198.214C150.861 198.33 150.776 198.433 150.674 198.515C150.571 198.597 150.452 198.656 150.325 198.69C150.198 198.724 150.065 198.731 149.935 198.711C145.818 198.411 141.793 197.343 138.069 195.562C137.842 195.453 137.669 195.257 137.586 195.02C137.503 194.782 137.518 194.521 137.627 194.294Z" fill="#303033"/>
<path fill-rule="evenodd" clip-rule="evenodd" d="M257.908 374.909C258.13 374.789 258.39 374.76 258.632 374.828C258.875 374.895 259.082 375.054 259.21 375.272C261.656 379.62 264.373 385.327 266.729 390.581C266.786 390.696 266.821 390.821 266.829 390.949C266.837 391.078 266.819 391.206 266.776 391.327C266.733 391.448 266.667 391.559 266.58 391.654C266.493 391.748 266.388 391.824 266.271 391.877C266.153 391.93 266.027 391.958 265.899 391.961C265.77 391.964 265.643 391.94 265.524 391.892C265.405 391.844 265.296 391.772 265.206 391.681C265.115 391.59 265.044 391.482 264.996 391.363C262.641 386.12 259.958 380.481 257.546 376.212C257.423 375.99 257.392 375.73 257.46 375.486C257.528 375.242 257.689 375.035 257.908 374.909Z" fill="#303033"/>
<path fill-rule="evenodd" clip-rule="evenodd" d="M246.416 381.024C246.625 380.909 246.87 380.878 247.102 380.936C247.333 380.995 247.533 381.14 247.662 381.341C255.35 394.873 261.249 410.081 264.872 420.34C264.913 420.459 264.93 420.584 264.923 420.709C264.915 420.834 264.883 420.956 264.829 421.068C264.774 421.181 264.698 421.281 264.604 421.364C264.511 421.447 264.402 421.511 264.283 421.552C264.165 421.593 264.04 421.61 263.915 421.603C263.79 421.595 263.668 421.563 263.556 421.509C263.443 421.454 263.343 421.378 263.26 421.284C263.177 421.191 263.113 421.081 263.072 420.963C259.494 410.772 253.617 395.666 246.009 382.281C245.9 382.06 245.882 381.805 245.959 381.57C246.035 381.336 246.199 381.14 246.416 381.024Z" fill="#303033"/>
<path fill-rule="evenodd" clip-rule="evenodd" d="M232.862 388.985C232.972 388.925 233.093 388.888 233.218 388.875C233.342 388.862 233.468 388.874 233.588 388.909C233.708 388.945 233.819 389.004 233.916 389.083C234.013 389.162 234.094 389.26 234.153 389.37C239.679 399.561 245.94 411.734 250.458 420.85C250.514 420.962 250.549 421.083 250.558 421.208C250.568 421.332 250.553 421.458 250.514 421.577C250.475 421.696 250.413 421.806 250.331 421.9C250.25 421.995 250.151 422.073 250.039 422.13C249.811 422.237 249.551 422.252 249.313 422.172C249.074 422.092 248.876 421.922 248.759 421.699C244.23 412.64 237.992 400.399 232.489 390.276C232.367 390.055 232.339 389.795 232.409 389.553C232.479 389.311 232.642 389.107 232.862 388.985Z" fill="#303033"/>
<path fill-rule="evenodd" clip-rule="evenodd" d="M189.168 272.315C189.293 272.301 189.419 272.312 189.539 272.347C189.659 272.383 189.771 272.442 189.868 272.521C189.965 272.6 190.045 272.698 190.104 272.808C190.163 272.919 190.199 273.04 190.21 273.165L192.475 296.039C192.494 296.167 192.487 296.297 192.454 296.422C192.421 296.547 192.363 296.663 192.283 296.765C192.204 296.867 192.104 296.951 191.991 297.014C191.878 297.076 191.753 297.114 191.625 297.126C191.496 297.139 191.367 297.125 191.244 297.085C191.121 297.046 191.007 296.982 190.91 296.897C190.812 296.812 190.733 296.708 190.677 296.592C190.621 296.476 190.589 296.349 190.584 296.22L188.376 273.357C188.347 273.115 188.413 272.87 188.561 272.676C188.709 272.481 188.927 272.352 189.168 272.315Z" fill="#303033"/>
<path fill-rule="evenodd" clip-rule="evenodd" d="M259.29 250.404C259.529 250.465 259.735 250.619 259.862 250.831C259.989 251.042 260.027 251.296 259.969 251.536L255.848 267.741C255.786 267.98 255.633 268.185 255.421 268.313C255.209 268.44 254.956 268.478 254.715 268.42C254.475 268.358 254.269 268.206 254.14 267.994C254.011 267.783 253.97 267.529 254.025 267.288L258.123 251.117C258.151 250.993 258.204 250.875 258.278 250.771C258.352 250.668 258.447 250.58 258.555 250.513C258.664 250.447 258.785 250.403 258.911 250.384C259.038 250.365 259.166 250.372 259.29 250.404Z" fill="#303033"/>
<path fill-rule="evenodd" clip-rule="evenodd" d="M95.6768 209.457C95.6768 209.205 95.777 208.963 95.9554 208.784C96.1338 208.606 96.3757 208.506 96.6279 208.506H104.214C104.466 208.506 104.708 208.606 104.887 208.784C105.065 208.963 105.165 209.205 105.165 209.457C105.165 209.709 105.065 209.951 104.887 210.129C104.708 210.308 104.466 210.408 104.214 210.408H96.6279C96.5026 210.41 96.3783 210.386 96.2622 210.339C96.1461 210.291 96.0406 210.221 95.952 210.133C95.8634 210.044 95.7934 209.939 95.7461 209.823C95.6989 209.707 95.6753 209.582 95.6768 209.457Z" fill="#303033"/>
<path fill-rule="evenodd" clip-rule="evenodd" d="M153.683 211.031C153.809 211.006 153.939 211.008 154.065 211.035C154.191 211.062 154.311 211.114 154.416 211.187C154.522 211.261 154.612 211.356 154.68 211.465C154.749 211.574 154.794 211.696 154.815 211.823L155.947 218.731C155.973 218.858 155.973 218.988 155.947 219.115C155.921 219.242 155.869 219.362 155.795 219.468C155.72 219.574 155.625 219.664 155.515 219.732C155.405 219.8 155.282 219.844 155.154 219.863C155.028 219.891 154.898 219.893 154.771 219.868C154.645 219.843 154.525 219.792 154.418 219.719C154.312 219.646 154.222 219.551 154.154 219.442C154.086 219.332 154.041 219.21 154.022 219.082L152.89 212.175C152.862 212.047 152.861 211.915 152.886 211.787C152.912 211.659 152.963 211.538 153.038 211.43C153.112 211.323 153.208 211.232 153.318 211.163C153.429 211.095 153.553 211.05 153.683 211.031Z" fill="#303033"/>
<path fill-rule="evenodd" clip-rule="evenodd" d="M115.084 328.81C115.09 328.684 115.12 328.561 115.174 328.448C115.229 328.335 115.305 328.233 115.399 328.15C115.493 328.066 115.602 328.003 115.721 327.962C115.84 327.922 115.966 327.906 116.092 327.915L132.793 328.923C132.925 328.919 133.056 328.942 133.179 328.992C133.301 329.042 133.412 329.116 133.504 329.211C133.597 329.306 133.668 329.419 133.714 329.543C133.76 329.667 133.78 329.799 133.772 329.931C133.764 330.063 133.729 330.192 133.668 330.309C133.608 330.427 133.523 330.53 133.42 330.614C133.318 330.697 133.199 330.758 133.071 330.792C132.943 330.827 132.81 330.834 132.679 330.814L115.978 329.818C115.853 329.811 115.731 329.779 115.618 329.724C115.506 329.67 115.405 329.593 115.322 329.5C115.239 329.406 115.175 329.297 115.134 329.179C115.093 329.06 115.076 328.935 115.084 328.81Z" fill="#303033"/>
<path fill-rule="evenodd" clip-rule="evenodd" d="M109.944 278.532C110.174 278.429 110.435 278.421 110.671 278.51C110.906 278.599 111.097 278.778 111.201 279.008L134.208 330.101C134.266 330.216 134.3 330.341 134.308 330.469C134.317 330.597 134.299 330.725 134.256 330.847C134.213 330.968 134.146 331.079 134.059 331.173C133.972 331.268 133.867 331.344 133.75 331.397C133.633 331.449 133.507 331.478 133.378 331.48C133.25 331.483 133.122 331.46 133.003 331.412C132.884 331.363 132.776 331.292 132.685 331.201C132.595 331.11 132.524 331.001 132.476 330.882L109.525 279.789C109.418 279.566 109.401 279.31 109.479 279.076C109.558 278.841 109.724 278.646 109.944 278.532Z" fill="#303033"/>
<path fill-rule="evenodd" clip-rule="evenodd" d="M309.937 153.257C310.177 153.318 310.383 153.471 310.512 153.683C310.641 153.894 310.682 154.148 310.627 154.389C309.257 159.824 307.332 166.981 305.396 172.507C305.464 172.643 305.544 172.802 305.634 173.005C305.917 173.572 306.291 174.398 306.698 175.451C309.025 181.485 310.041 187.945 309.678 194.402C309.315 200.859 307.581 207.164 304.592 212.899C304.476 213.123 304.277 213.291 304.037 213.367C303.797 213.444 303.537 213.422 303.313 213.307C303.201 213.251 303.102 213.173 303.021 213.077C302.94 212.982 302.878 212.872 302.84 212.753C302.802 212.634 302.788 212.508 302.8 212.383C302.811 212.259 302.847 212.138 302.905 212.027C307.306 203.612 308.829 193.987 307.242 184.624C306.763 181.724 305.985 178.882 304.921 176.142C304.536 175.134 304.173 174.353 303.924 173.877L303.63 173.289L303.551 173.141L303.336 172.768L303.483 172.36C305.442 166.823 307.4 159.53 308.804 153.97C308.861 153.726 309.012 153.514 309.224 153.381C309.436 153.247 309.692 153.202 309.937 153.257Z" fill="#303033"/>
<path fill-rule="evenodd" clip-rule="evenodd" d="M116.318 150.607C116.467 150.405 116.69 150.27 116.938 150.232C117.186 150.194 117.439 150.255 117.642 150.403L126.825 157.197C127.029 157.348 127.165 157.573 127.204 157.823C127.242 158.074 127.179 158.329 127.029 158.534C126.879 158.738 126.654 158.874 126.403 158.912C126.152 158.95 125.897 158.888 125.693 158.737L116.51 151.943C116.409 151.868 116.324 151.774 116.26 151.666C116.196 151.559 116.154 151.439 116.136 151.315C116.118 151.191 116.125 151.064 116.156 150.943C116.187 150.821 116.242 150.707 116.318 150.607Z" fill="#303033"/>
<path d="M169.534 150.335C170.039 150.337 170.532 150.19 170.953 149.911C171.373 149.633 171.702 149.236 171.896 148.77C172.091 148.305 172.143 147.792 172.046 147.297C171.949 146.802 171.707 146.347 171.351 145.99C170.995 145.632 170.541 145.388 170.047 145.289C169.552 145.19 169.04 145.24 168.573 145.432C168.107 145.625 167.709 145.951 167.428 146.371C167.148 146.79 166.998 147.283 166.998 147.787C166.998 148.461 167.265 149.107 167.74 149.585C168.216 150.062 168.861 150.332 169.534 150.335Z" fill="#303033"/>
<path d="M73.9482 158.692L190.572 114.371" stroke="#303033" stroke-width="4" stroke-linecap="round" stroke-linejoin="round"/>
<path fill-rule="evenodd" clip-rule="evenodd" d="M166.625 164.297C166.851 164.186 167.111 164.168 167.35 164.246C167.59 164.324 167.789 164.493 167.905 164.716C168.094 165.037 168.34 165.32 168.629 165.554C169.073 165.951 169.573 166.279 170.113 166.528C170.693 166.838 171.343 166.995 172.001 166.983C172.659 166.971 173.303 166.791 173.872 166.46C173.979 166.388 174.1 166.338 174.227 166.313C174.354 166.289 174.485 166.291 174.611 166.319C174.738 166.347 174.857 166.401 174.962 166.477C175.067 166.552 175.155 166.649 175.222 166.76C175.288 166.871 175.331 166.995 175.348 167.123C175.365 167.251 175.356 167.382 175.321 167.507C175.285 167.631 175.225 167.747 175.143 167.848C175.062 167.948 174.96 168.031 174.846 168.091C174.013 168.58 173.07 168.852 172.105 168.882C171.139 168.911 170.182 168.698 169.32 168.261C168.607 167.933 167.947 167.502 167.361 166.981C166.903 166.585 166.519 166.109 166.229 165.577C166.113 165.355 166.089 165.095 166.164 164.856C166.238 164.616 166.404 164.415 166.625 164.297Z" fill="#303033"/>
<path d="M324.656 153.087C330.317 156.484 329.128 163.165 329.128 163.165C329.128 163.165 340.598 161.58 340.259 173.356C340.259 173.356 349.396 177.569 345.207 186.73C345.207 186.73 351.491 188.361 348.343 198.439C345.297 208.256 339.024 214.451 334.892 215.005C332.695 215.3 327.577 213.16 328.155 205.188C328.155 205.188 322.652 208.256 318.983 205.188C317.6 204.006 316.578 202.457 316.036 200.721C315.493 198.984 315.451 197.129 315.915 195.37C315.915 195.37 310.412 197.216 307.989 192.935C305.328 188.27 308.6 181.883 308.6 181.883C307.391 182.058 306.159 181.779 305.143 181.099C304.127 180.42 303.398 179.388 303.098 178.203C300.742 169.144 310.491 161.455 312.88 159.19L311.069 154.287C311.069 154.287 318.995 149.667 324.656 153.087Z" fill="#FEBBA2"/>
<path fill-rule="evenodd" clip-rule="evenodd" d="M330.317 162.565C330.53 162.704 330.678 162.921 330.731 163.169C330.784 163.417 330.737 163.676 330.6 163.89C324.554 173.119 313.888 180.796 306.902 184.895C306.794 184.959 306.675 185 306.551 185.017C306.427 185.034 306.302 185.027 306.181 184.995C306.06 184.964 305.946 184.909 305.846 184.833C305.747 184.758 305.663 184.664 305.6 184.556C305.535 184.448 305.493 184.329 305.475 184.205C305.457 184.081 305.464 183.954 305.495 183.833C305.527 183.712 305.583 183.598 305.659 183.498C305.735 183.399 305.831 183.316 305.94 183.253C312.835 179.2 323.207 171.703 329.004 162.871C329.07 162.764 329.156 162.672 329.258 162.598C329.36 162.525 329.475 162.473 329.597 162.445C329.719 162.416 329.846 162.412 329.969 162.433C330.093 162.454 330.211 162.498 330.317 162.565Z" fill="#303033"/>
<path fill-rule="evenodd" clip-rule="evenodd" d="M341.278 173.3C341.377 173.376 341.46 173.472 341.522 173.58C341.584 173.689 341.624 173.809 341.64 173.933C341.656 174.057 341.647 174.183 341.614 174.304C341.581 174.424 341.524 174.537 341.448 174.636C334.171 183.918 325.194 191.73 314.998 197.657C314.89 197.731 314.768 197.781 314.64 197.805C314.511 197.829 314.379 197.827 314.252 197.798C314.125 197.769 314.005 197.714 313.899 197.636C313.794 197.559 313.706 197.46 313.641 197.347C313.575 197.234 313.534 197.109 313.519 196.979C313.504 196.849 313.516 196.718 313.554 196.593C313.592 196.468 313.656 196.352 313.74 196.253C313.825 196.154 313.929 196.073 314.047 196.015C324.031 190.212 332.819 182.561 339.942 173.47C340.018 173.371 340.114 173.288 340.222 173.226C340.331 173.163 340.451 173.123 340.575 173.108C340.699 173.092 340.825 173.101 340.945 173.134C341.066 173.167 341.179 173.223 341.278 173.3Z" fill="#303033"/>
<path fill-rule="evenodd" clip-rule="evenodd" d="M346.407 186.99C346.509 187.062 346.596 187.154 346.662 187.261C346.728 187.367 346.772 187.486 346.791 187.609C346.81 187.733 346.804 187.859 346.773 187.981C346.742 188.102 346.687 188.216 346.611 188.315C341.633 195.204 335.749 201.39 329.117 206.705C329.019 206.794 328.903 206.862 328.777 206.904C328.651 206.946 328.518 206.961 328.386 206.949C328.254 206.936 328.126 206.896 328.01 206.831C327.894 206.766 327.794 206.677 327.714 206.571C327.635 206.464 327.579 206.343 327.549 206.213C327.52 206.084 327.518 205.95 327.543 205.819C327.569 205.689 327.621 205.566 327.697 205.457C327.773 205.348 327.871 205.256 327.985 205.188C334.443 199.975 340.178 193.923 345.037 187.194C345.108 187.085 345.202 186.992 345.313 186.922C345.423 186.851 345.547 186.805 345.676 186.786C345.805 186.766 345.937 186.775 346.063 186.81C346.189 186.845 346.306 186.907 346.407 186.99Z" fill="#303033"/>
<path d="M306.471 47.9677C306.471 81.3277 271.02 119.783 256.968 119.783C242.917 119.783 207.454 81.2824 207.454 47.9677C207.843 35.1026 213.227 22.8948 222.464 13.9323C231.701 4.96984 244.065 -0.0427246 256.934 -0.0427246C269.804 -0.0427246 282.168 4.96984 291.405 13.9323C300.642 22.8948 306.025 35.1026 306.415 47.9677H306.471Z" fill="#FE4400"/>
<path d="M256.991 63.5267C260.073 63.5356 263.088 62.6298 265.654 60.9239C268.221 59.2179 270.223 56.7887 271.408 53.9437C272.593 51.0988 272.907 47.9661 272.311 44.9425C271.714 41.9189 270.234 39.1403 268.057 36.9587C265.881 34.7771 263.106 33.2905 260.084 32.6873C257.062 32.0842 253.929 32.3915 251.081 33.5703C248.234 34.7492 245.801 36.7466 244.089 39.3096C242.378 41.8726 241.466 44.8858 241.468 47.9677C241.465 50.0089 241.864 52.0307 242.643 53.9176C243.421 55.8044 244.564 57.5193 246.006 58.9642C247.447 60.4091 249.16 61.5558 251.045 62.3386C252.929 63.1215 254.95 63.5252 256.991 63.5267Z" fill="white"/>
<path d="M451.164 1099H274.927C266.218 1099 257.866 1095.54 251.708 1089.38C245.55 1083.22 242.091 1074.87 242.091 1066.16V830.093C242.091 821.384 245.55 813.031 251.708 806.872C257.866 800.714 266.218 797.254 274.927 797.254H451.164C459.873 797.254 468.225 800.714 474.383 806.872C480.541 813.031 484 821.384 484 830.093V1066.16C484 1074.87 480.541 1083.22 474.383 1089.38C468.225 1095.54 459.873 1099 451.164 1099ZM274.927 798.386C266.518 798.386 258.454 801.727 252.509 807.673C246.563 813.619 243.223 821.684 243.223 830.093V1066.16C243.223 1074.57 246.563 1082.63 252.509 1088.58C258.454 1094.53 266.518 1097.87 274.927 1097.87H451.164C459.573 1097.87 467.637 1094.53 473.582 1088.58C479.528 1082.63 482.868 1074.57 482.868 1066.16V830.093C482.868 821.684 479.528 813.619 473.582 807.673C467.637 801.727 459.573 798.386 451.164 798.386H274.927Z" fill="#E5E5E5"/>
<path d="M392.23 713.129H135.703C128.496 713.129 121.584 715.993 116.488 721.089C111.391 726.186 108.528 733.099 108.528 740.306V1022.15C108.528 1029.35 111.391 1036.27 116.488 1041.36C121.584 1046.46 128.496 1049.32 135.703 1049.32H392.23C399.437 1049.32 406.349 1046.46 411.445 1041.36C416.541 1036.27 419.404 1029.35 419.404 1022.15V740.306C419.404 733.099 416.541 726.186 411.445 721.089C406.349 715.993 399.437 713.129 392.23 713.129Z" fill="#F1F1F6"/>
<path d="M373.57 731.587H153.751C146.544 731.587 139.632 734.45 134.535 739.547C129.439 744.644 126.576 751.556 126.576 758.764V1022.42C126.576 1029.62 129.439 1036.54 134.535 1041.63C139.632 1046.73 146.544 1049.59 153.751 1049.59H373.57C380.777 1049.59 387.689 1046.73 392.785 1041.63C397.881 1036.54 400.744 1029.62 400.744 1022.42V758.764C400.744 751.556 397.881 744.644 392.785 739.547C387.689 734.45 380.777 731.587 373.57 731.587Z" fill="white"/>
<path d="M428.553 1030.91H99.3343C96.8928 1030.91 94.5514 1031.88 92.8251 1033.61C91.0987 1035.33 90.1289 1037.67 90.1289 1040.12C90.1289 1042.56 91.0987 1044.9 92.8251 1046.63C94.5514 1048.35 96.8928 1049.32 99.3343 1049.32H428.553C430.994 1049.32 433.336 1048.35 435.062 1046.63C436.789 1044.9 437.758 1042.56 437.758 1040.12C437.758 1037.67 436.789 1035.33 435.062 1033.61C433.336 1031.88 430.994 1030.91 428.553 1030.91Z" fill="#F1F1F6"/>
<path d="M414.501 841.315H113.431V859.728H414.501V841.315Z" fill="#F1F1F6"/>
<path d="M225.424 827.817C224.19 820.457 219.298 814.942 216.241 814.229C208.938 812.507 204.919 819.109 204.919 819.109C204.919 819.109 199.144 813.809 191.071 820.921C191.071 820.921 181.809 818.022 177.812 826.356C177.812 826.356 173.702 824.794 169.139 833.332C165.425 840.273 162.345 850.691 166.704 853.579C168.539 854.802 174.008 854.19 175.876 849.899C176.339 850.755 177.055 851.448 177.926 851.884C178.797 852.319 179.781 852.476 180.745 852.333C187.482 851.11 188.059 845.539 188.059 845.539C188.059 845.539 188.625 847.622 192.328 847.973C198.351 848.585 201.51 842.459 201.51 842.459C201.51 842.459 203.775 843.988 208.304 842.459C214.249 840.409 215.777 831.497 215.777 831.497L225.424 827.817Z" fill="#D17458"/>
<path d="M457.131 927.829C467.322 917.117 465.714 898.863 453.429 887.063C441.144 875.264 422.858 874.335 412.667 885.036C402.477 895.737 404.085 913.991 416.37 925.802C428.655 937.613 446.941 938.53 457.131 927.829Z" fill="#303033"/>
<path d="M338.662 889.985C343.802 873.712 336.544 856.885 322.447 852.401C308.351 847.917 292.737 857.485 287.596 873.769C282.456 890.053 289.714 906.869 303.81 911.353C317.907 915.837 333.521 906.268 338.662 889.985Z" fill="#303033"/>
<path d="M190.856 753.895L129.419 777.483C124.844 779.248 121.155 782.756 119.162 787.237C117.169 791.718 117.034 796.807 118.787 801.387L142.361 862.978C144.101 867.544 147.583 871.234 152.042 873.234C156.5 875.234 161.571 875.382 166.138 873.645L227.575 850.068C232.15 848.303 235.839 844.795 237.832 840.314C239.825 835.833 239.96 830.744 238.207 826.164L214.69 764.562C213.828 762.295 212.526 760.22 210.861 758.457C209.196 756.693 207.199 755.275 204.985 754.285C202.771 753.294 200.384 752.749 197.959 752.683C195.535 752.616 193.121 753.028 190.856 753.895Z" fill="#FE4400"/>
<path d="M388.798 886.112C380.873 883.666 363.719 882.421 353.902 881.232C333.091 870.179 338.605 841.349 338.605 841.349C339.828 840.737 359.744 837.114 356.993 821.51C354.559 807.4 337.982 807.4 328.89 817.365C328.89 817.365 315.959 811.907 312.291 794.106C312.291 794.106 301.376 795.363 293.801 793.359C292.171 800.674 291.74 808.646 290.257 816.81C290.257 816.81 282.331 817.422 281.686 820.49C281.086 823.74 287.347 827.557 287.347 827.557C283.067 843.161 283.678 857.293 293.303 862.83C301.863 867.711 312.268 865.899 312.268 865.899L311.045 880.62C300.323 881.043 289.757 883.343 279.829 887.414C259.539 895.715 211.893 927.297 211.893 927.297C215.572 915.022 230.632 876.34 236.372 851.835C238.807 841.394 241.241 831.588 235.149 830.965C228.446 830.286 218.63 851.212 218.63 851.212L177.019 866.556C152.482 899.825 123.802 975.151 161.099 994.175C194.761 1011.35 270.035 969.625 270.035 969.625L263.241 1030.99H385.798L413.335 900.301C413.335 900.301 413.459 900.176 413.663 899.938C406.366 893.779 397.94 889.098 388.855 886.157L388.798 886.112Z" fill="#D17458"/>
<path d="M372.891 874.064H311.635L311.092 880.575C306.317 880.715 301.565 881.284 296.893 882.273C295.33 882.59 293.643 882.953 291.956 883.406C287.841 884.447 283.804 885.775 279.875 887.38C279.014 887.731 278.097 888.128 277.135 888.513C275.357 889.328 273.455 890.257 271.394 891.298C257.592 898.319 238.558 910.073 225.82 918.215L242.408 951.417L250.73 968.108L255.169 976.997C264.284 972.705 270.092 969.489 270.092 969.489L263.355 1030.85H385.799L413.336 900.165C414.803 898.52 416.161 896.78 417.4 894.956V894.786L372.891 874.064Z" fill="#FE4400"/>
<path d="M312.314 794.072C315.983 811.873 328.925 817.308 328.925 817.308C337.983 807.366 354.548 807.366 357.016 821.442C359.768 837.046 339.851 840.692 338.628 841.281C338.628 841.281 333.114 870.123 353.925 881.164C363.719 882.387 380.851 883.598 388.822 886.044C397.903 888.976 406.329 893.645 413.63 899.791C416.687 896.326 439.989 868.209 418.159 840.647C403.032 821.487 378.19 824.794 378.19 824.794C379.005 814.84 380.624 789.146 359.168 773.395C337.711 757.643 310.39 765.932 300.471 778.366C297.125 782.759 294.842 787.867 293.802 793.291C301.399 795.329 312.314 794.072 312.314 794.072Z" fill="#303033"/>
<path fill-rule="evenodd" clip-rule="evenodd" d="M217.928 849.785C218.044 849.833 218.148 849.904 218.236 849.993C218.323 850.082 218.392 850.187 218.439 850.303C218.485 850.419 218.508 850.543 218.506 850.668C218.504 850.793 218.477 850.917 218.426 851.031C217.566 853.024 216.683 855.277 215.913 857.576L215.743 858.086L215.211 858.199H215.098L214.667 858.312C214.282 858.403 213.739 858.561 213.06 858.776C211.306 859.329 209.595 860.01 207.942 860.815C204.024 862.74 199.823 865.74 198.068 870.168C197.973 870.403 197.788 870.591 197.555 870.69C197.322 870.79 197.059 870.794 196.823 870.7C196.589 870.607 196.401 870.425 196.301 870.193C196.202 869.962 196.198 869.7 196.291 869.466C198.317 864.382 203.084 861.098 207.104 859.105C208.845 858.257 210.647 857.538 212.493 856.953C213.195 856.738 213.773 856.568 214.18 856.466H214.305C215.052 854.292 215.89 852.175 216.705 850.283C216.803 850.056 216.986 849.877 217.215 849.783C217.444 849.69 217.7 849.691 217.928 849.785Z" fill="#303033"/>
<path fill-rule="evenodd" clip-rule="evenodd" d="M214.055 925.111C214.172 925.156 214.279 925.224 214.37 925.311C214.46 925.397 214.533 925.501 214.584 925.615C214.634 925.73 214.661 925.854 214.664 925.979C214.667 926.104 214.644 926.229 214.599 926.346L207.33 945.438C207.24 945.673 207.059 945.864 206.829 945.967C206.599 946.07 206.337 946.077 206.101 945.987C205.865 945.897 205.675 945.717 205.572 945.486C205.469 945.256 205.462 944.994 205.552 944.758L212.821 925.666C212.912 925.43 213.093 925.239 213.324 925.135C213.555 925.031 213.818 925.023 214.055 925.111Z" fill="#303033"/>
<path fill-rule="evenodd" clip-rule="evenodd" d="M271.439 945.902C271.689 945.933 271.916 946.061 272.073 946.258C272.229 946.454 272.303 946.705 272.277 946.955L269.741 969.92C269.727 970.044 269.688 970.164 269.628 970.273C269.567 970.383 269.486 970.479 269.388 970.557C269.29 970.635 269.178 970.692 269.058 970.727C268.938 970.761 268.812 970.772 268.688 970.758C268.564 970.744 268.443 970.705 268.334 970.644C268.225 970.584 268.129 970.502 268.051 970.405C267.973 970.307 267.915 970.195 267.881 970.075C267.846 969.954 267.836 969.829 267.85 969.705L270.386 946.751C270.415 946.499 270.541 946.269 270.738 946.11C270.935 945.951 271.187 945.876 271.439 945.902Z" fill="#303033"/>
<path fill-rule="evenodd" clip-rule="evenodd" d="M327.067 862.513C327.12 862.627 327.149 862.751 327.153 862.877C327.156 863.002 327.135 863.127 327.09 863.245C327.044 863.362 326.976 863.469 326.888 863.559C326.801 863.649 326.696 863.721 326.581 863.77C321.29 866.107 315.718 867.743 310.004 868.639C309.877 868.666 309.747 868.665 309.62 868.639C309.493 868.613 309.373 868.561 309.267 868.487C309.161 868.413 309.072 868.318 309.004 868.208C308.936 868.098 308.891 867.975 308.872 867.847C308.847 867.72 308.849 867.59 308.876 867.464C308.903 867.338 308.955 867.218 309.028 867.113C309.102 867.007 309.197 866.917 309.306 866.849C309.415 866.781 309.537 866.735 309.664 866.714C315.22 865.861 320.641 864.284 325.788 862.026C325.904 861.973 326.029 861.944 326.156 861.94C326.284 861.936 326.41 861.957 326.529 862.003C326.648 862.048 326.757 862.116 326.85 862.204C326.942 862.292 327.016 862.397 327.067 862.513Z" fill="#303033"/>
<path fill-rule="evenodd" clip-rule="evenodd" d="M345.977 822.631C346.043 822.737 346.088 822.855 346.108 822.979C346.129 823.102 346.125 823.229 346.097 823.351C346.068 823.473 346.016 823.588 345.943 823.69C345.87 823.792 345.777 823.878 345.671 823.944L337.745 828.847C337.64 828.914 337.522 828.958 337.399 828.979C337.277 828.999 337.151 828.995 337.03 828.967C336.909 828.938 336.795 828.886 336.694 828.813C336.593 828.74 336.508 828.648 336.443 828.542C336.376 828.435 336.331 828.317 336.311 828.194C336.29 828.07 336.294 827.943 336.323 827.821C336.351 827.699 336.403 827.584 336.476 827.482C336.549 827.38 336.642 827.294 336.748 827.228L344.674 822.325C344.78 822.259 344.897 822.214 345.02 822.194C345.143 822.173 345.268 822.177 345.389 822.206C345.511 822.234 345.625 822.286 345.726 822.359C345.826 822.432 345.912 822.524 345.977 822.631Z" fill="#303033"/>
<path d="M379.14 824.567C378.676 829.097 378.076 834.815 377.51 839.288" stroke="#303033" stroke-width="4" stroke-miterlimit="10" stroke-linecap="round"/>
<path d="M334.28 835.506L332.016 849.095C331.924 849.692 331.982 850.303 332.186 850.872C332.389 851.439 332.736 851.942 333.193 852.333C333.649 852.729 334.199 853.002 334.79 853.126C335.378 853.245 335.986 853.21 336.556 853.024L348.479 849.196C349.057 849.014 349.58 848.686 349.996 848.245C350.407 847.802 350.696 847.26 350.834 846.671C350.994 846.086 350.994 845.468 350.834 844.882C350.67 844.299 350.358 843.768 349.928 843.342L340.27 833.581C339.819 833.106 339.242 832.772 338.606 832.618C337.97 832.459 337.303 832.483 336.681 832.686C336.056 832.887 335.5 833.258 335.076 833.758C334.651 834.259 334.376 834.868 334.28 835.517V835.506Z" fill="white"/>
<path fill-rule="evenodd" clip-rule="evenodd" d="M306.268 831.339C306.385 831.437 306.477 831.56 306.538 831.7C306.599 831.839 306.627 831.991 306.619 832.143C306.313 836.559 303.834 839.152 300.958 839.673C299.454 839.931 297.907 839.625 296.614 838.815C295.321 838.004 294.372 836.746 293.949 835.279C293.896 835.162 293.868 835.035 293.868 834.906C293.868 834.777 293.896 834.649 293.949 834.532C294.01 834.415 294.095 834.312 294.198 834.23C294.302 834.148 294.421 834.089 294.549 834.056L305.396 831.158C305.545 831.115 305.702 831.11 305.854 831.141C306.006 831.173 306.148 831.241 306.268 831.339ZM296.077 835.619C296.497 836.406 297.154 837.04 297.955 837.432C298.756 837.825 299.66 837.955 300.539 837.805C302.192 837.51 303.935 836.151 304.49 833.366L296.077 835.619Z" fill="#303033"/>
<path fill-rule="evenodd" clip-rule="evenodd" d="M298.161 812.87C298.397 812.779 298.659 812.784 298.891 812.884C299.124 812.983 299.309 813.169 299.407 813.402C299.722 814.163 300.223 814.834 300.863 815.352C301.504 815.87 302.265 816.22 303.075 816.369C303.784 816.531 304.512 816.592 305.238 816.55C305.7 816.532 306.155 816.436 306.585 816.267C306.697 816.21 306.82 816.177 306.945 816.168C307.07 816.159 307.196 816.175 307.314 816.215C307.433 816.255 307.543 816.319 307.638 816.401C307.732 816.484 307.809 816.584 307.865 816.697C307.974 816.925 307.989 817.188 307.907 817.428C307.824 817.667 307.65 817.864 307.423 817.977C306.783 818.246 306.101 818.403 305.408 818.441C304.496 818.505 303.58 818.432 302.69 818.226C301.582 818.006 300.545 817.515 299.672 816.798C298.799 816.081 298.117 815.159 297.685 814.115C297.589 813.886 297.584 813.629 297.673 813.397C297.761 813.164 297.936 812.976 298.161 812.87Z" fill="#303033"/>
<path d="M388.799 886.112L388.617 985.105C388.617 985.105 328.46 949.005 323.818 948.721C320.421 948.506 317.851 956.263 324.021 962.684C307.377 959.592 290.835 957.962 288.23 963.046C286.668 966.115 289.215 969.308 289.215 969.308C287.223 969.546 285.275 970.078 284.165 971.392C281.482 974.54 285.162 979.318 285.162 979.318C281.765 980.938 282.897 986.113 285.977 988.525C293.461 994.504 315.88 998.795 315.88 998.795C307.819 999.781 292.295 1000.7 293.156 1005.31C294.379 1012.1 328.652 1012.1 328.652 1012.1C341.504 1020.68 352.102 1020.47 352.102 1020.47C352.102 1020.47 383.533 1052.78 415.124 1060.35C496.511 1074.46 432.878 921.692 415.747 902.056C405.103 889.872 388.799 886.112 388.799 886.112Z" fill="#D17458"/>
<path fill-rule="evenodd" clip-rule="evenodd" d="M324.554 1001.22C319.889 1001.22 315.247 1001.22 310.967 1001.22C310.714 1001.22 310.473 1001.12 310.294 1000.94C310.116 1000.76 310.016 1000.52 310.016 1000.27C310.016 1000.02 310.116 999.773 310.294 999.595C310.473 999.417 310.714 999.316 310.967 999.316C315.258 999.316 319.912 999.26 324.554 999.316C324.805 999.322 325.044 999.426 325.22 999.606C325.396 999.786 325.494 1000.03 325.494 1000.28C325.491 1000.53 325.391 1000.76 325.215 1000.94C325.04 1001.12 324.802 1001.22 324.554 1001.22Z" fill="#303033"/>
<path fill-rule="evenodd" clip-rule="evenodd" d="M283.656 980.564C283.678 980.438 283.725 980.318 283.794 980.211C283.863 980.104 283.954 980.013 284.059 979.942C284.165 979.871 284.285 979.822 284.41 979.799C284.535 979.775 284.664 979.777 284.788 979.805C294.798 981.64 312.506 985.037 325.437 988.242C325.678 988.301 325.887 988.453 326.016 988.665C326.146 988.877 326.186 989.132 326.128 989.374C326.068 989.616 325.917 989.825 325.705 989.956C325.493 990.088 325.238 990.131 324.995 990.076C312.144 986.894 294.481 983.508 284.471 981.663C284.344 981.648 284.221 981.607 284.111 981.542C284 981.478 283.903 981.392 283.827 981.289C283.75 981.186 283.696 981.069 283.667 980.944C283.637 980.82 283.634 980.69 283.656 980.564Z" fill="#303033"/>
<path fill-rule="evenodd" clip-rule="evenodd" d="M287.676 969.467C287.71 969.218 287.841 968.992 288.04 968.84C288.24 968.687 288.491 968.619 288.74 968.651C301.195 970.35 318.983 972.955 330.261 975.378C330.384 975.402 330.502 975.451 330.606 975.521C330.711 975.592 330.8 975.682 330.869 975.788C330.937 975.894 330.984 976.012 331.006 976.136C331.028 976.26 331.025 976.387 330.997 976.51C330.971 976.633 330.921 976.75 330.851 976.853C330.78 976.957 330.689 977.046 330.584 977.114C330.479 977.182 330.361 977.229 330.237 977.252C330.114 977.275 329.987 977.273 329.864 977.246C318.666 974.846 300.89 972.252 288.48 970.554C288.355 970.537 288.234 970.496 288.126 970.432C288.017 970.368 287.922 970.282 287.847 970.181C287.772 970.079 287.718 969.964 287.689 969.841C287.66 969.719 287.655 969.591 287.676 969.467Z" fill="#303033"/>
<path fill-rule="evenodd" clip-rule="evenodd" d="M324.418 961.755C324.445 961.634 324.495 961.518 324.567 961.417C324.638 961.315 324.729 961.228 324.835 961.162C324.94 961.095 325.058 961.051 325.18 961.03C325.303 961.009 325.429 961.013 325.55 961.042C330.092 962.073 334.565 963.386 338.945 964.971C339.161 965.074 339.332 965.254 339.422 965.476C339.513 965.698 339.518 965.945 339.436 966.17C339.354 966.395 339.191 966.582 338.978 966.693C338.766 966.804 338.52 966.832 338.288 966.772C333.987 965.199 329.588 963.905 325.12 962.899C324.877 962.837 324.668 962.683 324.537 962.47C324.406 962.256 324.363 962 324.418 961.755Z" fill="#303033"/>
<path d="M444.065 963.239L402.782 972.139L388.629 975.208V959.706L388.765 886.101C388.765 886.101 405.047 889.894 415.69 902.09C416.746 903.323 417.715 904.629 418.589 905.997L416.539 908.624L418.634 905.985C423.056 913.062 426.975 920.441 430.364 928.067C435.566 939.534 440.139 951.275 444.065 963.239Z" fill="#FE4400"/>
<path fill-rule="evenodd" clip-rule="evenodd" d="M387.394 945.007C387.646 945.01 387.886 945.111 388.064 945.289C388.242 945.467 388.343 945.707 388.346 945.958V982.818C388.346 983.07 388.245 983.312 388.067 983.49C387.889 983.669 387.647 983.769 387.394 983.769C387.142 983.769 386.9 983.669 386.722 983.49C386.544 983.312 386.443 983.07 386.443 982.818V945.958C386.443 945.706 386.544 945.464 386.722 945.286C386.9 945.108 387.142 945.007 387.394 945.007Z" fill="#303033"/>
<path fill-rule="evenodd" clip-rule="evenodd" d="M386.342 982.331C386.406 982.223 386.49 982.13 386.591 982.056C386.691 981.982 386.805 981.929 386.926 981.899C387.048 981.87 387.174 981.865 387.297 981.884C387.42 981.904 387.538 981.948 387.644 982.014L387.157 982.817L386.659 983.633C386.445 983.502 386.291 983.291 386.232 983.047C386.173 982.803 386.212 982.546 386.342 982.331ZM387.157 982.817L386.659 983.633L387.202 983.973L388.799 984.935L394.89 988.615C400.156 991.797 407.708 996.361 416.89 1001.89C417.107 1002.02 417.366 1002.06 417.611 1002C417.856 1001.94 418.068 1001.78 418.198 1001.56C418.329 1001.35 418.368 1001.09 418.308 1000.84C418.247 1000.6 418.092 1000.39 417.876 1000.26C408.693 994.73 401.141 990.167 395.876 986.985L389.784 983.304L388.199 982.342L387.644 982.014L387.157 982.817Z" fill="#303033"/>
<path d="M154.226 837.329L156.944 830.116C158.731 831.031 160.692 831.56 162.697 831.667C164.703 831.774 166.708 831.458 168.583 830.738C172.75 829.108 174.426 826.3 173.395 823.616C172.263 820.706 169.478 820.083 164.405 822.087L160.091 823.718L157.453 816.81L161.79 815.18C165.888 813.606 167.768 811.114 166.749 808.385C165.73 805.656 162.458 804.886 158.733 806.313C155.007 807.74 153.071 810.503 151.554 814.104L145.055 810.944C145.926 808.139 147.439 805.576 149.473 803.457C151.507 801.338 154.007 799.722 156.774 798.737C165.254 795.487 172.195 797.786 174.505 803.754C176.124 808.091 174.403 812.36 170.757 815.157C175.207 814.511 180.098 815.961 182.001 820.966C184.492 827.477 180.563 834.419 171.81 837.771C165.005 840.5 158.8 839.786 154.226 837.329Z" fill="white"/>
<path d="M187.651 798.375L182.783 804.886L177.461 800.413L185.84 788.523L192.294 786.077L206.685 823.672L198.566 826.786L187.651 798.375Z" fill="white"/>
<path d="M120.949 423.239C120.949 423.239 113.431 500.004 214.667 558.808C294.016 604.896 273.432 713.118 273.432 713.118" stroke="#E5E5E5" stroke-dasharray="12 12"/>
<path d="M217.939 517.873C209.263 517.875 200.781 520.45 193.568 525.272C186.354 530.095 180.732 536.948 177.413 544.965C174.093 552.983 173.226 561.805 174.919 570.316C176.612 578.826 180.791 586.644 186.926 592.78C193.061 598.916 200.878 603.095 209.388 604.788C217.898 606.482 226.719 605.614 234.736 602.294C242.753 598.974 249.605 593.352 254.427 586.138C259.249 578.923 261.824 570.441 261.826 561.764V517.873H217.939ZM239.996 537.123H214.463V557.993H233.961C234.523 557.963 235.084 558.049 235.612 558.243C236.14 558.438 236.622 558.738 237.03 559.126C237.438 559.513 237.763 559.979 237.985 560.496C238.207 561.013 238.322 561.569 238.322 562.132C238.322 562.694 238.207 563.251 237.985 563.768C237.763 564.284 237.438 564.751 237.03 565.138C236.622 565.525 236.14 565.825 235.612 566.02C235.084 566.215 234.523 566.3 233.961 566.271H214.463V590.186C214.463 591.346 214.003 592.458 213.183 593.277C212.364 594.097 211.252 594.557 210.093 594.557C208.934 594.557 207.822 594.097 207.002 593.277C206.183 592.458 205.722 591.346 205.722 590.186V533.454C205.736 532.278 206.2 531.153 207.02 530.31C207.84 529.467 208.952 528.971 210.127 528.925H239.996C240.558 528.895 241.119 528.98 241.647 529.175C242.175 529.37 242.657 529.67 243.065 530.057C243.473 530.444 243.798 530.911 244.02 531.427C244.242 531.944 244.357 532.501 244.357 533.063C244.357 533.626 244.242 534.183 244.02 534.699C243.798 535.216 243.473 535.682 243.065 536.07C242.657 536.457 242.175 536.757 241.647 536.952C241.119 537.146 240.558 537.232 239.996 537.202V537.123Z" fill="#FE4400"/>
<path d="M244.174 532.967C244.177 533.517 244.071 534.062 243.862 534.57C243.653 535.078 243.345 535.54 242.957 535.929C242.568 536.317 242.106 536.625 241.598 536.834C241.09 537.043 240.545 537.149 239.995 537.146H214.463V557.993H233.96C234.522 557.963 235.084 558.049 235.612 558.243C236.139 558.438 236.622 558.738 237.03 559.126C237.438 559.513 237.763 559.979 237.985 560.496C238.207 561.013 238.321 561.569 238.321 562.132C238.321 562.694 238.207 563.251 237.985 563.768C237.763 564.284 237.438 564.751 237.03 565.138C236.622 565.525 236.139 565.825 235.612 566.02C235.084 566.215 234.522 566.3 233.96 566.271H214.463V590.187C214.463 591.346 214.002 592.458 213.183 593.277C212.363 594.097 211.251 594.557 210.092 594.557C208.933 594.557 207.821 594.097 207.002 593.277C206.182 592.458 205.722 591.346 205.722 590.187V533.454C205.735 532.278 206.2 531.153 207.02 530.31C207.839 529.467 208.951 528.971 210.126 528.925H239.995C241.083 528.915 242.131 529.334 242.912 530.09C243.694 530.847 244.147 531.88 244.174 532.967Z" fill="white"/>
<path d="M384.508 498.554H292.149C286.485 498.554 281.053 496.304 277.049 492.299C273.044 488.294 270.794 482.862 270.794 477.197C270.794 471.533 273.044 466.101 277.049 462.096C281.053 458.091 286.485 455.841 292.149 455.841H384.508C390.171 455.841 395.603 458.091 399.608 462.096C403.613 466.101 405.862 471.533 405.862 477.197C405.862 482.862 403.613 488.294 399.608 492.299C395.603 496.304 390.171 498.554 384.508 498.554ZM292.149 456.973C286.785 456.973 281.642 459.104 277.849 462.897C274.057 466.689 271.926 471.834 271.926 477.197C271.926 482.561 274.057 487.705 277.849 491.498C281.642 495.291 286.785 497.422 292.149 497.422H384.508C389.871 497.422 395.015 495.291 398.807 491.498C402.6 487.705 404.73 482.561 404.73 477.197C404.73 471.834 402.6 466.689 398.807 462.897C395.015 459.104 389.871 456.973 384.508 456.973H292.149Z" fill="#E5E5E5"/>
<path d="M300.481 481.636L301.614 480.187C302.296 480.923 303.123 481.511 304.042 481.914C304.962 482.317 305.954 482.527 306.958 482.531C309.483 482.531 310.762 481.161 310.762 479.677C310.762 477.945 309.223 477.254 306.369 476.586C303.086 475.827 301.014 474.808 301.014 471.977C301.014 469.361 303.346 467.323 306.482 467.323C308.622 467.325 310.675 468.167 312.2 469.667L311.068 471.128C309.84 469.843 308.157 469.091 306.381 469.033C305.542 468.95 304.705 469.201 304.051 469.731C303.396 470.261 302.976 471.027 302.882 471.864C302.882 473.551 304.501 474.129 307.286 474.808C310.4 475.544 312.631 476.665 312.631 479.541C312.631 482.135 310.683 484.241 306.879 484.241C305.693 484.256 304.515 484.034 303.416 483.586C302.318 483.139 301.32 482.476 300.481 481.636Z" fill="#E5E5E5"/>
<path d="M325.788 476.461V483.946H323.976V482.021C323.498 482.726 322.853 483.302 322.098 483.697C321.344 484.092 320.503 484.295 319.651 484.286C317.058 484.286 315.122 482.78 315.122 480.357C315.122 477.933 317.307 476.269 319.946 476.269C321.305 476.295 322.653 476.528 323.942 476.96V476.461C323.942 474.797 323.274 472.894 320.614 472.894C319.345 472.985 318.116 473.373 317.024 474.027L316.311 472.577C317.669 471.84 319.182 471.433 320.727 471.388C324.112 471.388 325.788 473.506 325.788 476.461ZM324.01 480.096V478.216C322.8 477.887 321.551 477.719 320.297 477.718C318.462 477.718 316.9 478.771 316.9 480.243C316.9 481.716 318.236 482.667 319.968 482.667C320.821 482.719 321.668 482.499 322.388 482.039C323.109 481.579 323.665 480.903 323.976 480.108L324.01 480.096Z" fill="#E5E5E5"/>
<path d="M339.851 476.144V483.958H338.073V476.382C338.113 475.954 338.063 475.522 337.927 475.114C337.79 474.706 337.571 474.331 337.283 474.011C336.995 473.692 336.644 473.436 336.252 473.26C335.859 473.083 335.435 472.989 335.005 472.985C334.084 472.918 333.172 473.211 332.463 473.802C331.753 474.394 331.301 475.237 331.201 476.156V483.969H329.423V471.671H331.201V473.642C331.619 472.945 332.212 472.369 332.921 471.972C333.63 471.575 334.43 471.37 335.243 471.377C335.865 471.365 336.482 471.482 337.057 471.719C337.632 471.957 338.152 472.31 338.585 472.757C339.017 473.205 339.352 473.736 339.57 474.319C339.788 474.902 339.884 475.523 339.851 476.144Z" fill="#E5E5E5"/>
<path d="M349.747 483.459C349.099 483.965 348.303 484.243 347.482 484.252C347.073 484.259 346.668 484.182 346.291 484.024C345.914 483.866 345.573 483.632 345.291 483.336C345.009 483.04 344.792 482.689 344.652 482.305C344.513 481.921 344.455 481.512 344.482 481.104V473.268H342.557V471.671H344.482V468.274H346.259V471.671H349.282V473.268H346.259V481.104C346.244 481.294 346.266 481.485 346.325 481.666C346.384 481.847 346.479 482.015 346.603 482.159C346.727 482.303 346.879 482.422 347.049 482.507C347.22 482.592 347.405 482.643 347.595 482.655C347.831 482.662 348.066 482.621 348.285 482.536C348.505 482.45 348.706 482.321 348.875 482.157L349.747 483.459Z" fill="#E5E5E5"/>
<path d="M351.604 477.809C351.619 476.554 352.005 475.332 352.713 474.296C353.422 473.26 354.42 472.457 355.584 471.987C356.747 471.517 358.023 471.402 359.252 471.655C360.481 471.909 361.607 472.52 362.49 473.412C363.372 474.304 363.971 475.437 364.212 476.668C364.452 477.9 364.323 479.175 363.841 480.334C363.359 481.492 362.545 482.482 361.502 483.179C360.459 483.877 359.233 484.25 357.978 484.252C356.284 484.225 354.668 483.536 353.476 482.331C352.284 481.127 351.612 479.503 351.604 477.809ZM362.439 477.809C362.377 476.926 362.058 476.081 361.521 475.378C360.985 474.675 360.254 474.144 359.419 473.851C358.584 473.559 357.682 473.517 356.823 473.732C355.965 473.946 355.188 474.408 354.589 475.059C353.99 475.709 353.595 476.522 353.452 477.395C353.309 478.268 353.425 479.164 353.785 479.972C354.146 480.78 354.735 481.464 355.48 481.941C356.225 482.418 357.094 482.667 357.978 482.655C359.207 482.588 360.36 482.044 361.193 481.139C362.027 480.233 362.474 479.039 362.439 477.809Z" fill="#E5E5E5"/>
<path d="M366.55 482.418L367.478 481.104C368.66 482.056 370.117 482.6 371.634 482.655C373.253 482.655 374.34 481.897 374.34 480.73C374.34 479.564 372.924 478.964 371.249 478.466C368.282 477.616 367.139 476.733 367.139 474.978C367.139 472.713 368.996 471.366 371.441 471.366C373.01 471.395 374.537 471.87 375.846 472.736L374.985 474.117C373.934 473.414 372.705 473.022 371.441 472.985C370.071 472.985 368.928 473.608 368.928 474.797C368.928 475.986 369.822 476.201 372.109 476.937C374.079 477.548 376.129 478.217 376.129 480.549C376.129 482.882 374.181 484.263 371.6 484.263C369.759 484.222 367.983 483.573 366.55 482.418Z" fill="#E5E5E5"/>
<path d="M175.683 668.298H41.3849C35.7213 668.298 30.2897 666.048 26.2849 662.043C22.2801 658.038 20.0303 652.606 20.0303 646.941C20.0303 641.277 22.2801 635.845 26.2849 631.84C30.2897 627.835 35.7213 625.585 41.3849 625.585H175.683C178.488 625.585 181.265 626.137 183.855 627.21C186.446 628.284 188.8 629.857 190.783 631.84C192.766 633.823 194.339 636.178 195.412 638.769C196.486 641.36 197.038 644.137 197.038 646.941C197.038 649.746 196.486 652.523 195.412 655.114C194.339 657.705 192.766 660.06 190.783 662.043C188.8 664.026 186.446 665.599 183.855 666.673C181.265 667.746 178.488 668.298 175.683 668.298ZM41.3849 626.717C36.0216 626.717 30.878 628.848 27.0855 632.641C23.2931 636.434 21.1625 641.578 21.1625 646.941C21.1625 652.305 23.2931 657.45 27.0855 661.242C30.878 665.035 36.0216 667.166 41.3849 667.166H175.683C181.047 667.166 186.19 665.035 189.983 661.242C193.775 657.45 195.906 652.305 195.906 646.941C195.906 641.578 193.775 636.434 189.983 632.641C186.19 628.848 181.047 626.717 175.683 626.717H41.3849Z" fill="#E5E5E5"/>
<path d="M51.5068 651.177L52.6391 649.727C53.3182 650.469 54.1439 651.061 55.0639 651.466C55.9839 651.872 56.9781 652.082 57.9834 652.083C60.4971 652.083 61.7878 650.701 61.7878 649.229C61.7878 647.496 60.2366 646.806 57.3833 646.138C54.1111 645.379 52.039 644.36 52.039 641.529C52.039 638.913 54.3715 636.863 57.5079 636.863C59.6506 636.854 61.7101 637.693 63.2372 639.196L62.1049 640.645C60.8802 639.37 59.2068 638.623 57.4399 638.562C56.6048 638.479 55.7706 638.729 55.118 639.256C54.4653 639.784 54.0467 640.547 53.9525 641.381C53.9525 643.069 55.5717 643.646 58.3458 644.337C61.4595 645.073 63.7014 646.183 63.7014 649.07C63.7014 651.652 61.7426 653.77 57.9495 653.77C56.756 653.796 55.5696 653.58 54.4622 653.134C53.3548 652.688 52.3494 652.022 51.5068 651.177Z" fill="#E5E5E5"/>
<path d="M76.7791 646.024V653.509H74.9901V651.584C74.5141 652.292 73.8693 652.869 73.1142 653.264C72.359 653.66 71.5172 653.861 70.6648 653.849C68.0719 653.849 66.1357 652.354 66.1357 649.931C66.1357 647.508 68.321 645.843 70.9592 645.843C72.319 645.868 73.667 646.101 74.9561 646.534V646.081C74.9561 644.416 74.2881 642.514 71.6272 642.514C70.3599 642.612 69.1319 642.999 68.038 643.646L67.3246 642.197C68.6943 641.486 70.2089 641.098 71.7518 641.064C75.1373 640.929 76.7791 643.046 76.7791 646.024ZM74.9901 649.716V647.836C73.7835 647.506 72.5384 647.339 71.2876 647.338C69.4533 647.338 67.8908 648.38 67.8908 649.863C67.8908 651.346 69.2155 652.286 70.9479 652.286C71.8076 652.345 72.6635 652.127 73.3907 651.664C74.1179 651.202 74.6783 650.519 74.9901 649.716ZM69.2155 639.943L68.0832 639.774C68.321 637.973 69.057 636.954 70.3478 636.954C71.6386 636.954 72.4425 638.517 73.4162 638.517C74.039 638.517 74.4126 638.041 74.5485 636.897L75.6808 637.067C75.443 638.879 74.707 639.898 73.4162 639.898C72.1254 639.898 71.3215 638.324 70.3478 638.324C69.7816 638.268 69.408 638.743 69.2155 639.887V639.943Z" fill="#E5E5E5"/>
<path d="M79.7461 647.349C79.7617 646.094 80.1479 644.872 80.856 643.837C81.5642 642.801 82.5627 641.997 83.7261 641.528C84.8895 641.058 86.1658 640.942 87.3946 641.196C88.6234 641.449 89.7499 642.06 90.6323 642.952C91.5148 643.844 92.1139 644.977 92.3544 646.209C92.5948 647.44 92.4659 648.716 91.9837 649.874C91.5016 651.032 90.6878 652.022 89.6446 652.72C88.6014 653.417 87.3755 653.79 86.1208 653.792C84.4276 653.763 82.813 653.072 81.622 651.869C80.4309 650.665 79.7577 649.043 79.7461 647.349ZM90.5932 647.349C90.5294 646.47 90.2104 645.629 89.6755 644.928C89.1406 644.228 88.413 643.699 87.5819 643.406C86.7508 643.113 85.8522 643.069 84.9964 643.279C84.1405 643.489 83.3645 643.944 82.7635 644.589C82.1625 645.233 81.7627 646.039 81.6129 646.908C81.4631 647.776 81.57 648.67 81.9203 649.478C82.2707 650.287 82.8494 650.976 83.5854 651.461C84.3215 651.945 85.1829 652.205 86.0642 652.207C87.3066 652.157 88.4791 651.619 89.3271 650.709C90.1751 649.8 90.63 648.592 90.5932 647.349Z" fill="#E5E5E5"/>
<path d="M102.391 637.18H109.014C112.411 637.18 115.038 639.343 115.038 642.412C115.038 645.481 112.389 647.644 109.014 647.644H104.236V653.509H102.391V637.18ZM108.686 645.877C111.347 645.877 113.215 644.597 113.215 642.412C113.215 640.226 111.403 638.936 108.686 638.936H104.236V645.877H108.686Z" fill="#E5E5E5"/>
<path d="M127.641 646.024V653.509H125.829V651.584C125.352 652.291 124.707 652.868 123.952 653.263C123.197 653.658 122.356 653.86 121.504 653.849C118.911 653.849 116.975 652.354 116.975 649.931C116.975 647.508 119.16 645.843 121.798 645.843C123.158 645.868 124.506 646.101 125.795 646.534V646.081C125.795 644.416 125.127 642.514 122.466 642.514C121.199 642.612 119.971 642.999 118.877 643.646L118.163 642.197C119.533 641.485 121.048 641.097 122.591 641.064C125.976 640.929 127.641 643.046 127.641 646.024ZM125.829 649.716V647.836C124.619 647.506 123.37 647.339 122.115 647.338C120.292 647.338 118.718 648.38 118.718 649.863C118.718 651.347 120.054 652.286 121.787 652.286C122.646 652.345 123.502 652.127 124.23 651.664C124.957 651.202 125.517 650.519 125.829 649.716Z" fill="#E5E5E5"/>
<path d="M141.692 641.223V653.509H139.903V651.539C139.485 652.236 138.892 652.812 138.183 653.209C137.474 653.606 136.674 653.811 135.861 653.804C135.24 653.815 134.623 653.699 134.049 653.462C133.475 653.226 132.956 652.873 132.524 652.427C132.091 651.981 131.756 651.451 131.537 650.87C131.318 650.288 131.222 649.668 131.253 649.048V641.234H133.03V648.81C132.991 649.238 133.041 649.67 133.177 650.078C133.313 650.486 133.532 650.862 133.821 651.181C134.109 651.5 134.46 651.756 134.852 651.932C135.244 652.109 135.669 652.203 136.099 652.207C137.02 652.274 137.931 651.981 138.641 651.39C139.351 650.798 139.803 649.955 139.903 649.036V641.223H141.692Z" fill="#E5E5E5"/>
<path d="M145.327 636.897H147.116V653.509H145.327V636.897Z" fill="#E5E5E5"/>
<path d="M150.06 647.349C150.075 646.094 150.461 644.872 151.169 643.837C151.878 642.801 152.876 641.997 154.04 641.528C155.203 641.058 156.479 640.942 157.708 641.196C158.937 641.449 160.063 642.06 160.946 642.952C161.828 643.844 162.427 644.977 162.668 646.209C162.908 647.44 162.779 648.716 162.297 649.874C161.815 651.032 161.001 652.022 159.958 652.72C158.915 653.417 157.689 653.79 156.434 653.792C154.74 653.766 153.124 653.076 151.932 651.872C150.741 650.667 150.068 649.044 150.06 647.349ZM160.895 647.349C160.831 646.467 160.51 645.623 159.972 644.922C159.434 644.22 158.703 643.691 157.868 643.4C157.033 643.11 156.131 643.07 155.274 643.285C154.416 643.501 153.641 643.963 153.043 644.614C152.444 645.265 152.05 646.077 151.908 646.95C151.766 647.823 151.882 648.718 152.243 649.525C152.604 650.333 153.193 651.017 153.937 651.493C154.682 651.97 155.55 652.218 156.434 652.207C157.666 652.143 158.823 651.598 159.657 650.689C160.491 649.781 160.936 648.582 160.895 647.349Z" fill="#E5E5E5"/>
</g>
<defs>
<clipPath id="clip0">
<rect width="484" height="1099" fill="white"/>
</clipPath>
</defs>
</svg>
