<svg width="664" height="944" viewBox="0 0 664 944" fill="none" xmlns="http://www.w3.org/2000/svg">
<g clip-path="url(#clip0)">
<path d="M664 0H0V944H664V0Z" fill="#FE4400"/>
<path d="M704.185 801.396C665.664 821.046 624.946 833.069 593.276 821.434C573.886 813.936 555.66 803.723 539.114 791.053C542.604 783.684 546.87 776.962 551.912 771.015C546.741 777.091 542.346 783.814 538.985 791.053C466.209 736.756 408.816 639.666 381.8 588.472H471.38C482.238 588.472 487.409 579.68 483.143 568.821L446.432 478.325L446.69 478.066L446.044 477.42C435.962 467.853 426.525 457.64 417.865 446.781C401.319 425.708 396.277 410.324 402.094 404.118C403.775 402.438 405.972 401.403 408.299 401.145C410.755 400.886 413.082 401.016 415.408 401.533C434.152 405.67 466.08 431.138 501.886 473.154C545.06 523.961 629.082 624.411 629.082 624.411C637.872 617.689 650.54 606.441 665.793 592.738L786.655 748.132C760.802 768.429 733.269 786.141 704.185 801.396Z" fill="#FEBBA2"/>
<path fill-rule="evenodd" clip-rule="evenodd" d="M633.341 620.822C634.139 620.189 635.299 620.321 635.933 621.118L664.522 657.072C665.156 657.869 665.023 659.029 664.226 659.662C663.428 660.296 662.268 660.163 661.634 659.366L633.045 623.413C632.411 622.616 632.544 621.456 633.341 620.822Z" fill="#303033"/>
<path d="M245.105 341.383L336.549 568.507C340.934 579.366 353.186 588.156 364.02 588.156H470.941C481.774 588.156 486.933 579.366 482.677 568.507L446.048 478.02L445.662 477.115C435.473 467.549 426.057 457.337 417.416 446.478C417.287 453.459 412.257 458.5 404.132 458.5H326.102C315.268 458.5 303.015 449.71 298.501 438.851L274.641 379.776C270.256 368.917 275.544 360.127 286.377 360.127H364.536C375.37 360.127 387.623 368.917 392.008 379.776L401.681 403.949C403.358 402.268 405.55 401.234 407.872 400.976C410.322 400.717 412.644 400.847 415.094 401.364L390.847 341.383C386.462 330.525 374.209 321.734 363.247 321.734H342.095L343.9 326.259C346.609 332.981 343.384 338.539 336.678 338.539H296.437C288.957 338.022 282.25 333.239 279.284 326.259L277.478 321.734H256.326C245.75 321.734 240.591 330.525 245.105 341.383ZM361.054 552.22C358.345 545.627 361.57 540.198 368.019 540.198H427.992C435.344 540.715 441.921 545.368 444.759 552.22C447.467 558.812 444.243 564.242 437.536 564.242H377.821C374.08 564.112 370.598 562.82 367.632 560.493C364.923 558.295 362.602 555.451 361.054 552.22Z" fill="#303033"/>
<path d="M361.545 552.203C362.963 555.554 365.284 558.389 368.249 560.45C371.214 562.77 374.694 564.059 378.433 564.188H438.248C444.823 564.188 448.045 558.775 445.467 552.203C442.502 545.373 436.057 540.863 428.709 540.219H368.893C362.061 540.219 358.838 545.631 361.545 552.203Z" fill="white"/>
<path d="M344.862 326.45L343.033 321.734H277.589L279.418 326.45C282.422 333.726 289.084 338.576 296.791 339.25H337.547C344.34 339.25 347.605 333.591 344.862 326.45Z" fill="white"/>
<path d="M324.833 539.034C340.829 515.348 374.628 510.301 378.627 487.78C382.24 467.589 360.567 465.129 360.567 465.129C360.567 465.129 381.336 449.08 369.726 431.995C360.18 417.887 340.7 422.418 340.7 422.418C340.7 422.418 351.279 405.333 336.056 392.519C327.284 385.142 302.902 391.743 286.132 406.109C284.713 407.274 295.678 360.42 266.91 367.669C257.364 370.128 235.433 393.425 234.272 425.783C233.498 448.045 249.237 451.022 248.721 452.704C240.98 479.626 267.942 487.391 267.942 487.391C260.202 514.313 289.615 527.903 289.615 527.903C292.969 564.014 333.992 562.332 333.992 562.332L324.833 539.034Z" fill="#FEBBA2"/>
<path fill-rule="evenodd" clip-rule="evenodd" d="M363.24 460.294C363.595 461.248 363.11 462.309 362.155 462.665C350.645 466.954 334.984 473.785 320.805 483.412C306.602 493.056 294.08 505.375 288.544 520.568C288.196 521.525 287.137 522.018 286.18 521.67C285.223 521.321 284.73 520.263 285.078 519.307C290.995 503.068 304.24 490.202 318.733 480.362C333.25 470.505 349.213 463.552 360.867 459.21C361.822 458.854 362.884 459.339 363.24 460.294Z" fill="#303033"/>
<path fill-rule="evenodd" clip-rule="evenodd" d="M337.306 419.489C337.796 420.381 337.469 421.502 336.576 421.992C326.787 427.357 313.282 435.524 300.291 445.919C287.285 456.327 274.895 468.89 267.221 483.02C266.735 483.915 265.615 484.247 264.72 483.761C263.825 483.275 263.493 482.156 263.979 481.261C271.982 466.524 284.79 453.6 297.986 443.041C311.198 432.468 324.899 424.186 334.802 418.758C335.696 418.269 336.817 418.596 337.306 419.489Z" fill="#303033"/>
<path fill-rule="evenodd" clip-rule="evenodd" d="M283.582 400.716C284.257 401.479 284.185 402.645 283.422 403.319C270.434 414.794 256.38 430.097 247.899 447.902C247.461 448.821 246.36 449.212 245.441 448.774C244.521 448.336 244.13 447.236 244.568 446.317C253.351 427.88 267.809 412.192 280.979 400.556C281.742 399.882 282.908 399.953 283.582 400.716Z" fill="#303033"/>
<path d="M138.402 121.44V116.291H117.912V142.891H138.402V137.741H123.644V131.895H137.007V126.745H123.644V121.44H138.402Z" fill="white"/>
<path d="M150.085 143.355C155.004 143.355 158.219 140.839 158.219 136.889C158.219 132.514 154.384 131.352 150.937 130.462C148.225 129.726 147.412 129.417 147.412 128.332C147.412 127.635 148.38 127.132 149.775 127.132C151.479 127.132 153.571 127.79 155.391 128.913L157.676 124.886C155.468 123.415 152.641 122.408 149.775 122.408C145.049 122.408 141.912 125.119 141.951 128.913C141.989 132.862 145.165 133.985 149.271 134.992C151.324 135.534 152.796 135.921 152.796 137.16C152.796 138.051 151.711 138.67 150.201 138.67C147.528 138.67 145.282 137.702 143.5 136.425L141.06 140.335C143.461 142.271 146.87 143.355 150.085 143.355Z" fill="white"/>
<path d="M172.548 137.935C172.161 138.322 171.386 138.593 170.611 138.593C169.566 138.593 168.713 137.664 168.713 136.347V127.442H173.052V122.873H168.713V117.375H163.291V122.873H160.541V127.442H163.291V137.238C163.291 140.839 165.77 143.355 169.294 143.355C170.921 143.355 172.742 142.658 173.904 141.613L172.548 137.935Z" fill="white"/>
<path d="M192.164 115.516L187.09 114.587L182.597 120.627H186.432L192.164 115.516ZM186.393 122.408C183.604 122.408 180.854 123.183 178.026 124.615L179.924 128.371C181.512 127.558 183.255 126.938 185.115 126.938C188.407 126.938 189.724 128.797 189.724 130.927V131.314C188.02 130.656 186.238 130.307 184.611 130.307C179.963 130.307 176.283 133.017 176.283 136.967C176.283 140.8 179.576 143.355 183.836 143.355C186.005 143.355 188.291 142.503 189.724 140.877V142.891H195.185V130.927C195.185 125.699 191.622 122.408 186.393 122.408ZM185.115 139.445C183.178 139.445 181.745 138.438 181.745 136.812C181.745 135.186 183.372 133.985 185.424 133.985C186.974 133.985 188.446 134.256 189.724 134.721V136.579C189.337 138.438 187.284 139.445 185.115 139.445Z" fill="white"/>
<path d="M220.569 143.355C223.9 143.355 226.612 142 228.587 139.832L224.83 136.657C223.784 137.818 222.157 138.593 220.608 138.593C217.625 138.593 215.147 135.96 215.147 132.824C215.147 129.765 217.625 127.171 220.569 127.171C222.119 127.171 223.707 127.906 224.714 129.029L228.471 125.816C226.534 123.725 223.862 122.408 220.608 122.408C214.682 122.408 209.646 127.171 209.646 132.862C209.646 138.554 214.643 143.355 220.569 143.355Z" fill="white"/>
<path d="M241.412 143.355C247.338 143.355 252.296 138.554 252.296 132.862C252.296 127.171 247.338 122.408 241.412 122.408C235.447 122.408 230.45 127.171 230.45 132.862C230.45 138.554 235.447 143.355 241.412 143.355ZM241.412 138.593C238.391 138.593 235.873 135.96 235.873 132.862C235.873 129.765 238.391 127.171 241.412 127.171C244.394 127.171 246.912 129.765 246.912 132.862C246.912 135.96 244.394 138.593 241.412 138.593Z" fill="white"/>
<path d="M279.943 122.408C276.961 122.408 274.482 123.841 273.436 126.048C272.197 123.802 269.834 122.408 267.084 122.408C264.605 122.408 262.63 123.609 261.661 125.506V122.873H256.006V142.891H261.661V130.81C261.661 128.681 263.249 127.171 265.535 127.171C267.588 127.171 269.059 128.797 269.059 131.12V142.929H274.482V130.81C274.482 128.681 276.109 127.171 278.355 127.171C280.447 127.171 281.919 128.797 281.919 131.12V142.929H287.342V130.152C287.342 125.622 284.127 122.408 279.943 122.408Z" fill="white"/>
<path d="M125.271 185.762C130.19 185.762 133.405 183.245 133.405 179.295C133.405 174.92 129.57 173.759 126.123 172.868C123.412 172.133 122.598 171.823 122.598 170.739C122.598 170.042 123.567 169.538 124.961 169.538C126.665 169.538 128.757 170.197 130.577 171.319L132.863 167.293C130.655 165.821 127.827 164.815 124.961 164.815C120.236 164.815 117.098 167.525 117.137 171.319C117.176 175.269 120.352 176.392 124.458 177.398C126.51 177.94 127.982 178.328 127.982 179.567C127.982 180.457 126.898 181.077 125.387 181.077C122.715 181.077 120.468 180.109 118.686 178.831L116.246 182.741C118.648 184.677 122.056 185.762 125.271 185.762Z" fill="white"/>
<path d="M146.146 164.815C143.358 164.815 140.608 165.589 137.78 167.022L139.678 170.777C141.266 169.964 143.009 169.345 144.868 169.345C148.161 169.345 149.477 171.203 149.477 173.333V173.72C147.773 173.062 145.991 172.713 144.365 172.713C139.717 172.713 136.037 175.424 136.037 179.373C136.037 183.206 139.329 185.762 143.59 185.762C145.759 185.762 148.044 184.91 149.477 183.283V185.297H154.939V173.333C154.939 168.106 151.375 164.815 146.146 164.815ZM144.868 181.851C142.932 181.851 141.498 180.844 141.498 179.218C141.498 177.592 143.125 176.392 145.178 176.392C146.727 176.392 148.199 176.663 149.477 177.127V178.986C149.09 180.844 147.037 181.851 144.868 181.851Z" fill="white"/>
<path d="M172.991 165.279V177.243L172.952 177.127C172.952 179.295 171.132 180.999 168.769 180.999C166.522 180.999 164.973 179.295 164.973 176.817V165.279H159.512V178.018C159.512 182.548 162.61 185.762 166.948 185.762C169.543 185.762 171.79 184.6 172.991 182.78V185.297H178.646V165.279H172.991Z" fill="white"/>
<path d="M198.449 158.232V168.144C196.86 166.054 194.536 164.815 191.709 164.815C186.364 164.815 182.49 169.151 182.49 175.269C182.49 181.425 186.364 185.762 191.709 185.762C194.536 185.762 196.86 184.523 198.449 182.432V185.297H204.104V158.232H198.449ZM193.336 180.999C190.198 180.999 187.991 178.637 187.991 175.269C187.991 171.939 190.198 169.577 193.336 169.577C196.318 169.577 198.449 171.939 198.449 175.269C198.449 178.637 196.318 180.999 193.336 180.999Z" fill="white"/>
<path d="M218.015 164.815C215.226 164.815 212.476 165.589 209.649 167.022L211.546 170.777C213.135 169.964 214.878 169.345 216.737 169.345C220.029 169.345 221.346 171.203 221.346 173.333V173.72C219.642 173.062 217.86 172.713 216.233 172.713C211.585 172.713 207.906 175.424 207.906 179.373C207.906 183.206 211.198 185.762 215.459 185.762C217.628 185.762 219.913 184.91 221.346 183.283V185.297H226.807V173.333C226.807 168.106 223.244 164.815 218.015 164.815ZM216.737 181.851C214.8 181.851 213.367 180.844 213.367 179.218C213.367 177.592 214.994 176.392 217.047 176.392C218.596 176.392 220.068 176.663 221.346 177.127V178.986C220.959 180.844 218.906 181.851 216.737 181.851Z" fill="white"/>
<path d="M246.525 158.232V168.144C244.937 166.054 242.613 164.815 239.785 164.815C234.44 164.815 230.567 169.151 230.567 175.269C230.567 181.425 234.44 185.762 239.785 185.762C242.613 185.762 244.937 184.523 246.525 182.432V185.297H252.18V158.232H246.525ZM241.412 180.999C238.275 180.999 236.067 178.637 236.067 175.269C236.067 171.939 238.275 169.577 241.412 169.577C244.394 169.577 246.525 171.939 246.525 175.269C246.525 178.637 244.394 180.999 241.412 180.999Z" fill="white"/>
<path d="M266.595 180.767C264.232 180.767 262.489 179.295 261.83 177.127H276.278C276.278 169.577 272.598 164.815 266.324 164.815C260.475 164.815 256.02 169.19 256.02 175.23C256.02 181.386 260.668 185.762 266.633 185.762C269.577 185.762 273.024 184.523 274.806 182.664L271.204 178.986C270.119 180.031 268.183 180.767 266.595 180.767ZM266.556 169.809C268.841 169.809 270.313 171.087 270.855 173.062H261.908C262.644 171.048 264.426 169.809 266.556 169.809Z" fill="white"/>
<path d="M287.618 185.762C292.537 185.762 295.752 183.245 295.752 179.295C295.752 174.92 291.918 173.759 288.47 172.868C285.759 172.133 284.946 171.823 284.946 170.739C284.946 170.042 285.914 169.538 287.308 169.538C289.013 169.538 291.104 170.197 292.925 171.319L295.21 167.293C293.002 165.821 290.175 164.815 287.308 164.815C282.583 164.815 279.445 167.525 279.484 171.319C279.523 175.269 282.699 176.392 286.805 177.398C288.858 177.94 290.329 178.328 290.329 179.567C290.329 180.457 289.245 181.077 287.734 181.077C285.062 181.077 282.815 180.109 281.033 178.831L278.593 182.741C280.995 184.677 284.403 185.762 287.618 185.762Z" fill="white"/>
<path d="M325.315 158.232V168.144C323.727 166.054 321.403 164.815 318.576 164.815C313.231 164.815 309.357 169.151 309.357 175.269C309.357 181.425 313.231 185.762 318.576 185.762C321.403 185.762 323.727 184.523 325.315 182.432V185.297H330.97V158.232H325.315ZM320.203 180.999C317.065 180.999 314.857 178.637 314.857 175.269C314.857 171.939 317.065 169.577 320.203 169.577C323.185 169.577 325.315 171.939 325.315 175.269C325.315 178.637 323.185 180.999 320.203 180.999Z" fill="white"/>
<path d="M345.773 185.762C351.699 185.762 356.657 180.96 356.657 175.269C356.657 169.577 351.699 164.815 345.773 164.815C339.808 164.815 334.811 169.577 334.811 175.269C334.811 180.96 339.808 185.762 345.773 185.762ZM345.773 180.999C342.751 180.999 340.234 178.366 340.234 175.269C340.234 172.171 342.751 169.577 345.773 169.577C348.755 169.577 351.273 172.171 351.273 175.269C351.273 178.366 348.755 180.999 345.773 180.999Z" fill="white"/>
<path d="M367.997 185.762C372.916 185.762 376.131 183.245 376.131 179.295C376.131 174.92 372.297 173.759 368.849 172.868C366.138 172.133 365.325 171.823 365.325 170.739C365.325 170.042 366.293 169.538 367.687 169.538C369.392 169.538 371.483 170.197 373.304 171.319L375.589 167.293C373.381 165.821 370.554 164.815 367.687 164.815C362.962 164.815 359.825 167.525 359.863 171.319C359.902 175.269 363.078 176.392 367.184 177.398C369.237 177.94 370.709 178.328 370.709 179.567C370.709 180.457 369.624 181.077 368.114 181.077C365.441 181.077 363.194 180.109 361.413 178.831L358.972 182.741C361.374 184.677 364.782 185.762 367.997 185.762Z" fill="white"/>
<path d="M127.208 223.173C124.845 223.173 123.102 221.702 122.443 219.533H136.891C136.891 211.983 133.211 207.221 126.936 207.221C121.088 207.221 116.633 211.596 116.633 217.636C116.633 223.793 121.281 228.168 127.246 228.168C130.19 228.168 133.637 226.929 135.419 225.07L131.817 221.392C130.732 222.437 128.796 223.173 127.208 223.173ZM127.169 212.216C129.454 212.216 130.926 213.493 131.468 215.468H122.521C123.257 213.455 125.039 212.216 127.169 212.216Z" fill="white"/>
<path d="M148.231 228.168C153.15 228.168 156.365 225.651 156.365 221.702C156.365 217.327 152.53 216.165 149.083 215.274C146.372 214.539 145.558 214.229 145.558 213.145C145.558 212.448 146.527 211.945 147.921 211.945C149.625 211.945 151.717 212.603 153.538 213.726L155.823 209.699C153.615 208.228 150.787 207.221 147.921 207.221C143.196 207.221 140.058 209.931 140.097 213.726C140.136 217.675 143.312 218.798 147.418 219.805C149.471 220.347 150.942 220.734 150.942 221.973C150.942 222.863 149.858 223.483 148.347 223.483C145.675 223.483 143.428 222.515 141.646 221.237L139.206 225.148C141.608 227.084 145.016 228.168 148.231 228.168Z" fill="white"/>
<path d="M169.959 228.168C173.29 228.168 176.001 226.813 177.976 224.644L174.219 221.469C173.174 222.631 171.547 223.405 169.997 223.405C167.015 223.405 164.536 220.772 164.536 217.636C164.536 214.577 167.015 211.983 169.959 211.983C171.508 211.983 173.096 212.719 174.103 213.842L177.86 210.628C175.924 208.537 173.251 207.221 169.997 207.221C164.071 207.221 159.036 211.983 159.036 217.675C159.036 223.367 164.032 228.168 169.959 228.168Z" fill="white"/>
<path d="M187.034 211.403V207.686H181.379V227.703H187.034V218.14C187.034 214.384 189.707 211.983 193.89 211.983V207.221C190.83 207.221 188.351 208.808 187.034 211.403Z" fill="white"/>
<path d="M199.98 204.936C201.646 204.936 203.001 203.543 203.001 201.839C203.001 200.252 201.646 198.819 199.98 198.819C198.237 198.819 196.881 200.252 196.881 201.839C196.881 203.543 198.237 204.936 199.98 204.936ZM197.114 227.703H202.769V207.686H197.114V227.703Z" fill="white"/>
<path d="M218.241 222.747C217.854 223.134 217.079 223.405 216.305 223.405C215.259 223.405 214.407 222.476 214.407 221.16V212.254H218.745V207.686H214.407V202.187H208.984V207.686H206.234V212.254H208.984V222.05C208.984 225.651 211.463 228.168 214.988 228.168C216.614 228.168 218.435 227.471 219.597 226.425L218.241 222.747Z" fill="white"/>
<path d="M228.987 205.44H232.822L238.554 200.329L233.48 199.4L228.987 205.44ZM232.977 228.168C238.903 228.168 243.861 223.367 243.861 217.675C243.861 211.983 238.903 207.221 232.977 207.221C227.012 207.221 222.015 211.983 222.015 217.675C222.015 223.367 227.012 228.168 232.977 228.168ZM232.977 223.405C229.956 223.405 227.438 220.772 227.438 217.675C227.438 214.577 229.956 211.983 232.977 211.983C235.959 211.983 238.477 214.577 238.477 217.675C238.477 220.772 235.959 223.405 232.977 223.405Z" fill="white"/>
<path d="M253.342 211.403V207.686H247.687V227.703H253.342V218.14C253.342 214.384 256.015 211.983 260.198 211.983V207.221C257.138 207.221 254.659 208.808 253.342 211.403Z" fill="white"/>
<path d="M266.288 204.936C267.954 204.936 269.309 203.543 269.309 201.839C269.309 200.252 267.954 198.819 266.288 198.819C264.545 198.819 263.189 200.252 263.189 201.839C263.189 203.543 264.545 204.936 266.288 204.936ZM263.422 227.703H269.077V207.686H263.422V227.703Z" fill="white"/>
<path d="M283.852 228.168C289.778 228.168 294.736 223.367 294.736 217.675C294.736 211.983 289.778 207.221 283.852 207.221C277.887 207.221 272.891 211.983 272.891 217.675C272.891 223.367 277.887 228.168 283.852 228.168ZM283.852 223.405C280.831 223.405 278.313 220.772 278.313 217.675C278.313 214.577 280.831 211.983 283.852 211.983C286.835 211.983 289.352 214.577 289.352 217.675C289.352 220.772 286.835 223.405 283.852 223.405Z" fill="white"/>
<path d="M306.077 228.168C310.996 228.168 314.211 225.651 314.211 221.702C314.211 217.327 310.376 216.165 306.929 215.274C304.218 214.539 303.404 214.229 303.404 213.145C303.404 212.448 304.373 211.945 305.767 211.945C307.471 211.945 309.563 212.603 311.383 213.726L313.669 209.699C311.461 208.228 308.633 207.221 305.767 207.221C301.042 207.221 297.904 209.931 297.943 213.726C297.982 217.675 301.158 218.798 305.264 219.805C307.316 220.347 308.788 220.734 308.788 221.973C308.788 222.863 307.704 223.483 306.193 223.483C303.521 223.483 301.274 222.515 299.492 221.237L297.052 225.148C299.454 227.084 302.862 228.168 306.077 228.168Z" fill="white"/>
<path d="M322.072 218.566H327.107V215.778C331.097 214.848 333.963 211.712 333.963 208.228C333.963 203.852 330.4 200.639 325.248 200.639C321.414 200.639 318.354 202.342 316.146 204.82L319.399 208.15C320.639 206.756 322.382 205.75 324.28 205.75C326.643 205.75 328.153 207.143 328.153 208.77C328.153 210.628 325.635 212.061 322.072 212.216V218.566ZM324.59 228.168C326.488 228.168 328.037 226.542 328.037 224.567C328.037 222.747 326.488 221.121 324.59 221.121C322.576 221.121 320.987 222.747 320.987 224.567C320.987 226.542 322.576 228.168 324.59 228.168Z" fill="white"/>
<path d="M134.106 754.094H136.614L127.672 733.827H125.164L116.222 754.094H118.731L120.767 749.492H132.07L134.106 754.094ZM121.711 747.309L126.433 736.659L131.125 747.309H121.711Z" fill="white"/>
<path d="M151.662 738.842V741.468C150.481 739.609 148.533 738.488 146.113 738.488C142.011 738.488 139.09 741.468 139.09 745.716C139.09 749.964 142.011 752.973 146.113 752.973C148.533 752.973 150.481 751.852 151.662 749.993V752.471C151.662 755.451 149.596 757.191 146.084 757.191C144.195 757.191 142.366 756.513 141.185 755.392L140.211 757.132C141.598 758.312 143.9 759.168 146.379 759.168C150.776 759.168 153.875 756.395 153.875 752.471V738.842H151.662ZM146.527 750.996C143.546 750.996 141.421 748.813 141.421 745.716C141.421 742.648 143.546 740.465 146.527 740.465C149.537 740.465 151.662 742.648 151.662 745.716C151.662 748.813 149.537 750.996 146.527 750.996Z" fill="white"/>
<path d="M165.436 752.471C162.426 752.471 160.33 750.288 160.006 747.309H172.489C172.489 741.969 169.862 738.488 165.259 738.488C161.157 738.488 157.733 741.881 157.733 746.424C157.733 751.114 161.393 754.448 165.465 754.448C167.59 754.448 170.275 753.533 171.603 752.088L170.246 750.642C169.302 751.675 167.236 752.471 165.436 752.471ZM165.347 740.465C168.387 740.465 170.01 742.589 170.305 745.332H160.035C160.448 742.382 162.632 740.465 165.347 740.465Z" fill="white"/>
<path d="M183.37 738.488C181.216 738.488 179.239 739.668 178.353 741.291V738.842H176.14V754.094H178.353V744.388C178.353 742.264 180.508 740.465 183.075 740.465C185.318 740.465 186.882 742.205 186.882 744.683V754.094H189.095V744.388C189.095 740.937 186.735 738.488 183.37 738.488Z" fill="white"/>
<path d="M205.498 733.473V741.704C204.347 739.698 202.399 738.488 199.95 738.488C195.936 738.488 192.926 741.792 192.926 746.453C192.926 751.144 195.936 754.448 199.95 754.448C202.399 754.448 204.347 753.238 205.498 751.232V754.094H207.711V733.473H205.498ZM200.363 752.471C197.382 752.471 195.257 749.964 195.257 746.453C195.257 742.943 197.382 740.465 200.363 740.465C203.373 740.465 205.498 742.943 205.498 746.453C205.498 749.964 203.373 752.471 200.363 752.471Z" fill="white"/>
<path d="M219.27 752.471C216.26 752.471 214.165 750.288 213.84 747.309H226.324C226.324 741.969 223.697 738.488 219.093 738.488C214.991 738.488 211.568 741.881 211.568 746.424C211.568 751.114 215.227 754.448 219.3 754.448C221.425 754.448 224.11 753.533 225.438 752.088L224.081 750.642C223.136 751.675 221.071 752.471 219.27 752.471ZM219.182 740.465C222.221 740.465 223.845 742.589 224.14 745.332H213.87C214.283 742.382 216.467 740.465 219.182 740.465Z" fill="white"/>
<path d="M244.702 738.488C243.226 738.488 241.397 738.872 239.213 739.963L240.098 741.763C241.485 741.055 243.02 740.376 244.554 740.376C247.86 740.376 248.686 742.736 248.686 744.801V745.362C247.122 744.86 245.381 744.506 243.728 744.506C240.452 744.506 237.737 746.542 237.737 749.58C237.737 752.589 240.098 754.448 243.315 754.448C245.322 754.448 247.594 753.504 248.686 751.704V754.094H250.899V744.801C250.899 741.114 248.863 738.488 244.702 738.488ZM243.699 752.501C241.544 752.501 239.892 751.38 239.892 749.492C239.892 747.663 241.81 746.365 244.082 746.365C245.735 746.365 247.299 746.601 248.686 746.984V749.315C248.096 751.468 245.705 752.501 243.699 752.501Z" fill="white"/>
<path d="M267.285 738.842V741.468C266.105 739.609 264.157 738.488 261.737 738.488C257.635 738.488 254.713 741.468 254.713 745.716C254.713 749.964 257.635 752.973 261.737 752.973C264.157 752.973 266.105 751.852 267.285 749.993V752.471C267.285 755.451 265.219 757.191 261.708 757.191C259.819 757.191 257.989 756.513 256.809 755.392L255.835 757.132C257.222 758.312 259.524 759.168 262.003 759.168C266.4 759.168 269.499 756.395 269.499 752.471V738.842H267.285ZM262.15 750.996C259.17 750.996 257.045 748.813 257.045 745.716C257.045 742.648 259.17 740.465 262.15 740.465C265.16 740.465 267.285 742.648 267.285 745.716C267.285 748.813 265.16 750.996 262.15 750.996Z" fill="white"/>
<path d="M281.266 754.448C285.545 754.448 289.145 750.79 289.145 746.453C289.145 742.117 285.545 738.488 281.266 738.488C276.987 738.488 273.357 742.117 273.357 746.453C273.357 750.79 276.987 754.448 281.266 754.448ZM281.266 752.471C278.226 752.471 275.688 749.728 275.688 746.453C275.688 743.208 278.226 740.465 281.266 740.465C284.276 740.465 286.814 743.208 286.814 746.453C286.814 749.728 284.276 752.471 281.266 752.471Z" fill="white"/>
<path d="M295.22 741.822V738.842H293.007V754.094H295.22V745.568C295.22 742.589 297.67 740.465 301.123 740.465V738.488C298.319 738.488 296.135 739.786 295.22 741.822Z" fill="white"/>
<path d="M310.382 738.488C308.906 738.488 307.076 738.872 304.892 739.963L305.778 741.763C307.165 741.055 308.699 740.376 310.234 740.376C313.539 740.376 314.366 742.736 314.366 744.801V745.362C312.801 744.86 311.06 744.506 309.408 744.506C306.132 744.506 303.417 746.542 303.417 749.58C303.417 752.589 305.778 754.448 308.995 754.448C311.001 754.448 313.274 753.504 314.366 751.704V754.094H316.579V744.801C316.579 741.114 314.543 738.488 310.382 738.488ZM309.378 752.501C307.224 752.501 305.571 751.38 305.571 749.492C305.571 747.663 307.489 746.365 309.762 746.365C311.414 746.365 312.979 746.601 314.366 746.984V749.315C313.775 751.468 311.385 752.501 309.378 752.501Z" fill="white"/>
<path d="M335.061 754.448C338.219 754.448 340.639 752.648 340.639 749.846C340.639 746.955 338.101 746.129 335.651 745.362C332.818 744.447 331.697 744.034 331.697 742.707C331.697 741.232 333.113 740.465 334.825 740.465C336.183 740.465 337.688 740.937 339.222 741.91L340.285 740.199C338.661 739.137 336.714 738.488 334.825 738.488C331.785 738.488 329.484 740.199 329.484 742.972C329.484 745.155 330.9 746.247 334.589 747.309C336.655 747.899 338.425 748.43 338.425 750.082C338.425 751.527 337.068 752.471 335.061 752.471C333.379 752.471 331.638 751.822 329.897 750.554L328.746 752.176C330.575 753.651 332.936 754.448 335.061 754.448Z" fill="white"/>
<path d="M355.043 738.842V748.548C355.043 750.672 352.889 752.471 350.321 752.471C348.078 752.471 346.514 750.731 346.514 748.253V738.842H344.301V748.548C344.301 751.999 346.662 754.448 350.026 754.448C352.18 754.448 354.158 753.268 355.043 751.645V754.094H357.256V738.842H355.043Z" fill="white"/>
<path d="M367.963 738.488C366.487 738.488 364.658 738.872 362.474 739.963L363.359 741.763C364.746 741.055 366.281 740.376 367.815 740.376C371.12 740.376 371.947 742.736 371.947 744.801V745.362C370.383 744.86 368.642 744.506 366.989 744.506C363.713 744.506 360.998 746.542 360.998 749.58C360.998 752.589 363.359 754.448 366.576 754.448C368.583 754.448 370.855 753.504 371.947 751.704V754.094H374.16V744.801C374.16 741.114 372.124 738.488 367.963 738.488ZM366.959 752.501C364.805 752.501 363.152 751.38 363.152 749.492C363.152 747.663 365.071 746.365 367.343 746.365C368.996 746.365 370.56 746.601 371.947 746.984V749.315C371.357 751.468 368.966 752.501 366.959 752.501Z" fill="white"/>
<path d="M119.321 769.013C120.59 769.013 121.623 767.951 121.623 766.653C121.623 765.444 120.59 764.352 119.321 764.352C117.993 764.352 116.96 765.444 116.96 766.653C116.96 767.951 117.993 769.013 119.321 769.013ZM117.137 786.359H121.446V771.108H117.137V786.359Z" fill="white"/>
<path d="M136.598 765.739V773.291C135.388 771.698 133.618 770.754 131.464 770.754C127.391 770.754 124.44 774.058 124.44 778.719C124.44 783.409 127.391 786.713 131.464 786.713C133.618 786.713 135.388 785.769 136.598 784.176V786.359H140.907V765.739H136.598ZM132.703 783.085C130.313 783.085 128.63 781.285 128.63 778.719C128.63 776.182 130.313 774.382 132.703 774.382C134.975 774.382 136.598 776.182 136.598 778.719C136.598 781.285 134.975 783.085 132.703 783.085Z" fill="white"/>
<path d="M151.506 770.754C149.381 770.754 147.286 771.344 145.132 772.435L146.578 775.297C147.788 774.677 149.116 774.205 150.532 774.205C153.041 774.205 154.044 775.621 154.044 777.244V777.539C152.746 777.037 151.388 776.772 150.149 776.772C146.607 776.772 143.804 778.837 143.804 781.846C143.804 784.766 146.312 786.713 149.558 786.713C151.211 786.713 152.952 786.064 154.044 784.825V786.359H158.205V777.244C158.205 773.261 155.49 770.754 151.506 770.754ZM150.532 783.734C149.057 783.734 147.965 782.967 147.965 781.728C147.965 780.489 149.204 779.574 150.768 779.574C151.949 779.574 153.07 779.781 154.044 780.135V781.551C153.749 782.967 152.185 783.734 150.532 783.734Z" fill="white"/>
<path d="M176.896 770.754C174.771 770.754 172.676 771.344 170.522 772.435L171.968 775.297C173.178 774.677 174.506 774.205 175.922 774.205C178.431 774.205 179.434 775.621 179.434 777.244V777.539C178.136 777.037 176.778 776.772 175.539 776.772C171.997 776.772 169.194 778.837 169.194 781.846C169.194 784.766 171.702 786.713 174.948 786.713C176.601 786.713 178.342 786.064 179.434 784.825V786.359H183.595V777.244C183.595 773.261 180.88 770.754 176.896 770.754ZM175.922 783.734C174.447 783.734 173.355 782.967 173.355 781.728C173.355 780.489 174.594 779.574 176.158 779.574C177.339 779.574 178.46 779.781 179.434 780.135V781.551C179.139 782.967 177.575 783.734 175.922 783.734Z" fill="white"/>
<path d="M205.591 771.108V780.223L205.562 780.135C205.562 781.787 204.175 783.085 202.375 783.085C200.663 783.085 199.482 781.787 199.482 779.899V771.108H195.321V780.813C195.321 784.265 197.682 786.713 200.988 786.713C202.965 786.713 204.676 785.828 205.591 784.442V786.359H209.9V771.108H205.591Z" fill="white"/>
<path d="M231.746 770.754C229.473 770.754 227.585 771.845 226.788 773.527C225.844 771.816 224.043 770.754 221.948 770.754C220.059 770.754 218.554 771.668 217.816 773.114V771.108H213.508V786.359H217.816V777.155C217.816 775.533 219.026 774.382 220.768 774.382C222.332 774.382 223.453 775.621 223.453 777.391V786.389H227.585V777.155C227.585 775.533 228.824 774.382 230.536 774.382C232.129 774.382 233.251 775.621 233.251 777.391V786.389H237.382V776.654C237.382 773.202 234.933 770.754 231.746 770.754Z" fill="white"/>
<path d="M247.821 770.754C245.696 770.754 243.601 771.344 241.446 772.435L242.892 775.297C244.102 774.677 245.43 774.205 246.847 774.205C249.355 774.205 250.359 775.621 250.359 777.244V777.539C249.06 777.037 247.703 776.772 246.463 776.772C242.922 776.772 240.118 778.837 240.118 781.846C240.118 784.766 242.627 786.713 245.873 786.713C247.526 786.713 249.267 786.064 250.359 784.825V786.359H254.52V777.244C254.52 773.261 251.805 770.754 247.821 770.754ZM246.847 783.734C245.371 783.734 244.279 782.967 244.279 781.728C244.279 780.489 245.519 779.574 247.083 779.574C248.263 779.574 249.385 779.781 250.359 780.135V781.551C250.064 782.967 248.5 783.734 246.847 783.734Z" fill="white"/>
<path d="M277.785 765.739V773.291C276.575 771.698 274.804 770.754 272.65 770.754C268.577 770.754 265.626 774.058 265.626 778.719C265.626 783.409 268.577 786.713 272.65 786.713C274.804 786.713 276.575 785.769 277.785 784.176V786.359H282.094V765.739H277.785ZM273.889 783.085C271.499 783.085 269.817 781.285 269.817 778.719C269.817 776.182 271.499 774.382 273.889 774.382C276.162 774.382 277.785 776.182 277.785 778.719C277.785 781.285 276.162 783.085 273.889 783.085Z" fill="white"/>
<path d="M293.076 782.908C291.276 782.908 289.948 781.787 289.446 780.135H300.454C300.454 774.382 297.651 770.754 292.87 770.754C288.414 770.754 285.02 774.087 285.02 778.689C285.02 783.38 288.561 786.713 293.106 786.713C295.349 786.713 297.975 785.769 299.333 784.353L296.588 781.551C295.762 782.347 294.286 782.908 293.076 782.908ZM293.047 774.559C294.788 774.559 295.909 775.533 296.323 777.037H289.505C290.066 775.503 291.424 774.559 293.047 774.559Z" fill="white"/>
<path d="M125.99 803.02C124.013 803.02 122.301 803.905 121.387 805.291V803.374H117.078V818.625H121.387V809.51L121.416 809.598C121.416 807.946 122.803 806.648 124.603 806.648C126.315 806.648 127.495 807.946 127.495 809.834V818.625H131.656V808.92C131.656 805.468 129.296 803.02 125.99 803.02Z" fill="white"/>
<path d="M142.79 818.979C147.305 818.979 151.082 815.321 151.082 810.985C151.082 806.648 147.305 803.02 142.79 803.02C138.245 803.02 134.438 806.648 134.438 810.985C134.438 815.321 138.245 818.979 142.79 818.979ZM142.79 815.351C140.488 815.351 138.57 813.345 138.57 810.985C138.57 808.625 140.488 806.648 142.79 806.648C145.062 806.648 146.98 808.625 146.98 810.985C146.98 813.345 145.062 815.351 142.79 815.351Z" fill="white"/>
<path d="M159.723 818.979C163.471 818.979 165.92 817.062 165.92 814.053C165.92 810.719 162.999 809.834 160.372 809.156C158.306 808.595 157.687 808.359 157.687 807.533C157.687 807.002 158.424 806.619 159.487 806.619C160.785 806.619 162.379 807.12 163.766 807.976L165.507 804.908C163.825 803.787 161.671 803.02 159.487 803.02C155.886 803.02 153.496 805.085 153.526 807.976C153.555 810.985 155.975 811.84 159.103 812.607C160.667 813.02 161.789 813.315 161.789 814.259C161.789 814.938 160.962 815.41 159.811 815.41C157.775 815.41 156.064 814.672 154.706 813.699L152.847 816.678C154.677 818.153 157.274 818.979 159.723 818.979Z" fill="white"/>
<path d="M174.536 818.979C178.284 818.979 180.733 817.062 180.733 814.053C180.733 810.719 177.812 809.834 175.185 809.156C173.12 808.595 172.5 808.359 172.5 807.533C172.5 807.002 173.238 806.619 174.3 806.619C175.599 806.619 177.192 807.12 178.579 807.976L180.32 804.908C178.638 803.787 176.484 803.02 174.3 803.02C170.7 803.02 168.309 805.085 168.339 807.976C168.368 810.985 170.788 811.84 173.916 812.607C175.48 813.02 176.602 813.315 176.602 814.259C176.602 814.938 175.776 815.41 174.625 815.41C172.588 815.41 170.877 814.672 169.519 813.699L167.66 816.678C169.49 818.153 172.087 818.979 174.536 818.979Z" fill="white"/>
<path d="M190.441 803.02C188.316 803.02 186.221 803.61 184.067 804.701L185.513 807.563C186.723 806.943 188.051 806.471 189.467 806.471C191.976 806.471 192.979 807.887 192.979 809.51V809.805C191.681 809.303 190.323 809.038 189.084 809.038C185.542 809.038 182.739 811.103 182.739 814.112C182.739 817.032 185.247 818.979 188.494 818.979C190.146 818.979 191.887 818.33 192.979 817.091V818.625H197.14V809.51C197.14 805.527 194.425 803.02 190.441 803.02ZM189.467 816C187.992 816 186.9 815.233 186.9 813.994C186.9 812.755 188.139 811.84 189.703 811.84C190.884 811.84 192.005 812.047 192.979 812.401V813.817C192.684 815.233 191.12 816 189.467 816Z" fill="white"/>
<path d="M206.497 818.979C210.245 818.979 212.694 817.062 212.694 814.053C212.694 810.719 209.773 809.834 207.146 809.156C205.08 808.595 204.461 808.359 204.461 807.533C204.461 807.002 205.198 806.619 206.261 806.619C207.559 806.619 209.153 807.12 210.54 807.976L212.281 804.908C210.599 803.787 208.445 803.02 206.261 803.02C202.66 803.02 200.27 805.085 200.3 807.976C200.329 810.985 202.749 811.84 205.877 812.607C207.441 813.02 208.563 813.315 208.563 814.259C208.563 814.938 207.736 815.41 206.585 815.41C204.549 815.41 202.838 814.672 201.48 813.699L199.621 816.678C201.45 818.153 204.047 818.979 206.497 818.979Z" fill="white"/>
<path d="M233.95 803.374V812.489L233.92 812.401C233.92 814.053 232.533 815.351 230.733 815.351C229.021 815.351 227.841 814.053 227.841 812.165V803.374H223.68V813.079C223.68 816.531 226.041 818.979 229.346 818.979C231.323 818.979 233.035 818.094 233.95 816.708V818.625H238.258V803.374H233.95Z" fill="white"/>
<path d="M250.779 803.02C248.801 803.02 247.09 803.905 246.175 805.291V803.374H241.866V818.625H246.175V809.51L246.204 809.598C246.204 807.946 247.591 806.648 249.392 806.648C251.103 806.648 252.284 807.946 252.284 809.834V818.625H256.445V808.92C256.445 805.468 254.084 803.02 250.779 803.02Z" fill="white"/>
<path d="M262.236 801.279C263.505 801.279 264.538 800.217 264.538 798.919C264.538 797.71 263.505 796.618 262.236 796.618C260.908 796.618 259.876 797.71 259.876 798.919C259.876 800.217 260.908 801.279 262.236 801.279ZM260.053 818.625H264.361V803.374H260.053V818.625Z" fill="white"/>
<path d="M279.514 798.005V805.557C278.304 803.964 276.533 803.02 274.379 803.02C270.307 803.02 267.356 806.324 267.356 810.985C267.356 815.675 270.307 818.979 274.379 818.979C276.533 818.979 278.304 818.035 279.514 816.442V818.625H283.823V798.005H279.514ZM275.619 815.351C273.228 815.351 271.546 813.551 271.546 810.985C271.546 808.448 273.228 806.648 275.619 806.648C277.891 806.648 279.514 808.448 279.514 810.985C279.514 813.551 277.891 815.351 275.619 815.351Z" fill="white"/>
<path d="M294.422 803.02C292.297 803.02 290.202 803.61 288.047 804.701L289.493 807.563C290.703 806.943 292.031 806.471 293.448 806.471C295.956 806.471 296.96 807.887 296.96 809.51V809.805C295.661 809.303 294.304 809.038 293.064 809.038C289.523 809.038 286.719 811.103 286.719 814.112C286.719 817.032 289.228 818.979 292.474 818.979C294.127 818.979 295.868 818.33 296.96 817.091V818.625H301.121V809.51C301.121 805.527 298.406 803.02 294.422 803.02ZM293.448 816C291.972 816 290.88 815.233 290.88 813.994C290.88 812.755 292.12 811.84 293.684 811.84C294.864 811.84 295.986 812.047 296.96 812.401V813.817C296.665 815.233 295.101 816 293.448 816Z" fill="white"/>
<path d="M316.144 798.005V805.557C314.934 803.964 313.163 803.02 311.009 803.02C306.936 803.02 303.985 806.324 303.985 810.985C303.985 815.675 306.936 818.979 311.009 818.979C313.163 818.979 314.934 818.035 316.144 816.442V818.625H320.452V798.005H316.144ZM312.248 815.351C309.858 815.351 308.176 813.551 308.176 810.985C308.176 808.448 309.858 806.648 312.248 806.648C314.52 806.648 316.144 808.448 316.144 810.985C316.144 813.551 314.52 815.351 312.248 815.351Z" fill="white"/>
<path d="M331.435 815.174C329.635 815.174 328.307 814.053 327.805 812.401H338.813C338.813 806.648 336.009 803.02 331.228 803.02C326.772 803.02 323.378 806.353 323.378 810.955C323.378 815.646 326.92 818.979 331.464 818.979C333.707 818.979 336.334 818.035 337.691 816.619L334.947 813.817C334.12 814.613 332.645 815.174 331.435 815.174ZM331.405 806.825C333.147 806.825 334.268 807.799 334.681 809.303H327.864C328.425 807.769 329.782 806.825 331.405 806.825Z" fill="white"/>
<path d="M347.453 818.979C351.201 818.979 353.65 817.062 353.65 814.053C353.65 810.719 350.729 809.834 348.102 809.156C346.036 808.595 345.417 808.359 345.417 807.533C345.417 807.002 346.154 806.619 347.217 806.619C348.515 806.619 350.109 807.12 351.496 807.976L353.237 804.908C351.555 803.787 349.401 803.02 347.217 803.02C343.616 803.02 341.226 805.085 341.255 807.976C341.285 810.985 343.705 811.84 346.833 812.607C348.397 813.02 349.519 813.315 349.519 814.259C349.519 814.938 348.692 815.41 347.541 815.41C345.505 815.41 343.793 814.672 342.436 813.699L340.577 816.678C342.406 818.153 345.003 818.979 347.453 818.979Z" fill="white"/>
<path d="M358.99 818.979C360.436 818.979 361.617 817.74 361.617 816.236C361.617 814.849 360.436 813.61 358.99 813.61C357.456 813.61 356.246 814.849 356.246 816.236C356.246 817.74 357.456 818.979 358.99 818.979Z" fill="white"/>
<g clip-path="url(#clip1)">
<path d="M583.2 185.652C566.906 185.652 566.906 166.127 550.609 166.127C534.313 166.127 534.305 185.652 518.004 185.652C501.702 185.652 501.707 166.127 485.41 166.127C469.102 166.127 469.102 185.652 452.795 185.652C436.488 185.652 436.486 166.127 420.179 166.127" stroke="#FE885C" stroke-width="3.863" stroke-linecap="round" stroke-linejoin="round"/>
<path d="M583.2 158.644C566.906 158.644 566.906 139.122 550.609 139.122C534.312 139.122 534.305 158.644 518.004 158.644C501.702 158.644 501.707 139.122 485.41 139.122C469.101 139.122 469.101 158.644 452.795 158.644C436.488 158.644 436.485 139.122 420.178 139.122" stroke="#FE885C" stroke-width="3.863" stroke-linecap="round" stroke-linejoin="round"/>
<path d="M583.2 131.639C566.906 131.639 566.906 112.115 550.609 112.115C534.313 112.115 534.305 131.639 518.004 131.639C501.702 131.639 501.707 112.115 485.41 112.115C469.102 112.115 469.102 131.639 452.795 131.639C436.488 131.639 436.486 112.115 420.179 112.115" stroke="#FE885C" stroke-width="3.863" stroke-linecap="round" stroke-linejoin="round"/>
</g>
<g clip-path="url(#clip2)">
<g clip-path="url(#clip3)">
<path d="M205.726 676.428C206.985 676.428 208.005 675.408 208.005 674.151C208.005 672.893 206.985 671.873 205.726 671.873C204.468 671.873 203.448 672.893 203.448 674.151C203.448 675.408 204.468 676.428 205.726 676.428Z" fill="#FE885C"/>
<path d="M183.684 676.428C184.942 676.428 185.962 675.408 185.962 674.151C185.962 672.893 184.942 671.873 183.684 671.873C182.426 671.873 181.406 672.893 181.406 674.151C181.406 675.408 182.426 676.428 183.684 676.428Z" fill="#FE885C"/>
<path d="M161.641 676.428C162.9 676.428 163.92 675.408 163.92 674.151C163.92 672.893 162.9 671.873 161.641 671.873C160.383 671.873 159.363 672.893 159.363 674.151C159.363 675.408 160.383 676.428 161.641 676.428Z" fill="#FE885C"/>
<path d="M137.321 674.147C137.321 673.697 137.454 673.257 137.705 672.883C137.955 672.508 138.311 672.217 138.727 672.044C139.143 671.872 139.601 671.827 140.042 671.915C140.484 672.002 140.89 672.219 141.209 672.538C141.527 672.856 141.744 673.262 141.832 673.703C141.92 674.145 141.875 674.603 141.702 675.019C141.53 675.435 141.238 675.79 140.863 676.04C140.489 676.29 140.049 676.424 139.598 676.424C139.299 676.424 139.003 676.365 138.726 676.251C138.45 676.137 138.199 675.969 137.987 675.758C137.776 675.546 137.608 675.295 137.494 675.019C137.379 674.743 137.321 674.446 137.321 674.147V674.147Z" fill="#FE885C"/>
<path d="M117.556 676.428C118.814 676.428 119.834 675.408 119.834 674.151C119.834 672.893 118.814 671.873 117.556 671.873C116.298 671.873 115.278 672.893 115.278 674.151C115.278 675.408 116.298 676.428 117.556 676.428Z" fill="#FE885C"/>
<path d="M205.726 659.685C206.985 659.685 208.005 658.665 208.005 657.408C208.005 656.15 206.985 655.13 205.726 655.13C204.468 655.13 203.448 656.15 203.448 657.408C203.448 658.665 204.468 659.685 205.726 659.685Z" fill="#FE885C"/>
<path d="M183.684 659.685C184.942 659.685 185.962 658.665 185.962 657.408C185.962 656.15 184.942 655.13 183.684 655.13C182.426 655.13 181.406 656.15 181.406 657.408C181.406 658.665 182.426 659.685 183.684 659.685Z" fill="#FE885C"/>
<path d="M161.641 659.685C162.9 659.685 163.92 658.665 163.92 657.408C163.92 656.15 162.9 655.13 161.641 655.13C160.383 655.13 159.363 656.15 159.363 657.408C159.363 658.665 160.383 659.685 161.641 659.685Z" fill="#FE885C"/>
<path d="M137.321 657.407C137.321 656.957 137.455 656.517 137.706 656.143C137.956 655.769 138.312 655.477 138.728 655.305C139.144 655.133 139.602 655.089 140.044 655.177C140.486 655.265 140.891 655.482 141.209 655.8C141.528 656.119 141.744 656.524 141.832 656.966C141.92 657.407 141.874 657.865 141.702 658.281C141.53 658.697 141.238 659.052 140.863 659.302C140.489 659.552 140.048 659.686 139.598 659.686C139.299 659.686 139.003 659.627 138.726 659.512C138.45 659.398 138.198 659.23 137.987 659.018C137.775 658.806 137.608 658.555 137.493 658.279C137.379 658.002 137.32 657.706 137.321 657.407V657.407Z" fill="#FE885C"/>
<path d="M117.556 659.685C118.814 659.685 119.834 658.665 119.834 657.408C119.834 656.15 118.814 655.13 117.556 655.13C116.298 655.13 115.278 656.15 115.278 657.408C115.278 658.665 116.298 659.685 117.556 659.685Z" fill="#FE885C"/>
<path d="M205.726 642.941C206.985 642.941 208.005 641.921 208.005 640.664C208.005 639.406 206.985 638.386 205.726 638.386C204.468 638.386 203.448 639.406 203.448 640.664C203.448 641.921 204.468 642.941 205.726 642.941Z" fill="#FE885C"/>
<path d="M183.684 642.941C184.942 642.941 185.962 641.921 185.962 640.664C185.962 639.406 184.942 638.386 183.684 638.386C182.426 638.386 181.406 639.406 181.406 640.664C181.406 641.921 182.426 642.941 183.684 642.941Z" fill="#FE885C"/>
<path d="M161.641 642.941C162.9 642.941 163.92 641.921 163.92 640.664C163.92 639.406 162.9 638.386 161.641 638.386C160.383 638.386 159.363 639.406 159.363 640.664C159.363 641.921 160.383 642.941 161.641 642.941Z" fill="#FE885C"/>
<path d="M137.321 640.664C137.321 640.213 137.454 639.773 137.705 639.399C137.955 639.024 138.311 638.733 138.727 638.56C139.143 638.388 139.601 638.343 140.042 638.431C140.484 638.519 140.89 638.736 141.209 639.054C141.527 639.372 141.744 639.778 141.832 640.219C141.92 640.661 141.875 641.119 141.702 641.535C141.53 641.951 141.238 642.306 140.863 642.556C140.489 642.807 140.049 642.94 139.598 642.94C139.299 642.94 139.003 642.882 138.726 642.767C138.45 642.653 138.199 642.485 137.987 642.274C137.776 642.062 137.608 641.811 137.494 641.535C137.379 641.259 137.321 640.963 137.321 640.664V640.664Z" fill="#FE885C"/>
<path d="M117.556 642.941C118.814 642.941 119.834 641.921 119.834 640.664C119.834 639.406 118.814 638.386 117.556 638.386C116.298 638.386 115.278 639.406 115.278 640.664C115.278 641.921 116.298 642.941 117.556 642.941Z" fill="#FE885C"/>
<path d="M205.726 626.198C206.985 626.198 208.005 625.178 208.005 623.921C208.005 622.663 206.985 621.643 205.726 621.643C204.468 621.643 203.448 622.663 203.448 623.921C203.448 625.178 204.468 626.198 205.726 626.198Z" fill="#FE885C"/>
<path d="M183.684 626.198C184.942 626.198 185.962 625.178 185.962 623.921C185.962 622.663 184.942 621.643 183.684 621.643C182.426 621.643 181.406 622.663 181.406 623.921C181.406 625.178 182.426 626.198 183.684 626.198Z" fill="#FE885C"/>
<path d="M161.641 626.198C162.9 626.198 163.92 625.178 163.92 623.921C163.92 622.663 162.9 621.643 161.641 621.643C160.383 621.643 159.363 622.663 159.363 623.921C159.363 625.178 160.383 626.198 161.641 626.198Z" fill="#FE885C"/>
<path d="M137.321 623.921C137.321 623.471 137.454 623.031 137.705 622.657C137.955 622.282 138.311 621.99 138.727 621.818C139.143 621.646 139.601 621.601 140.042 621.689C140.484 621.776 140.89 621.993 141.209 622.312C141.527 622.63 141.744 623.036 141.832 623.477C141.92 623.919 141.875 624.377 141.702 624.792C141.53 625.208 141.238 625.564 140.863 625.814C140.489 626.064 140.049 626.198 139.598 626.198C138.994 626.198 138.415 625.958 137.988 625.531C137.561 625.104 137.321 624.525 137.321 623.921V623.921Z" fill="#FE885C"/>
<path d="M117.556 626.198C118.814 626.198 119.834 625.178 119.834 623.921C119.834 622.663 118.814 621.643 117.556 621.643C116.298 621.643 115.278 622.663 115.278 623.921C115.278 625.178 116.298 626.198 117.556 626.198Z" fill="#FE885C"/>
<path d="M205.726 609.454C206.985 609.454 208.005 608.434 208.005 607.177C208.005 605.919 206.985 604.899 205.726 604.899C204.468 604.899 203.448 605.919 203.448 607.177C203.448 608.434 204.468 609.454 205.726 609.454Z" fill="#FE885C"/>
<path d="M183.684 609.454C184.942 609.454 185.962 608.434 185.962 607.177C185.962 605.919 184.942 604.899 183.684 604.899C182.426 604.899 181.406 605.919 181.406 607.177C181.406 608.434 182.426 609.454 183.684 609.454Z" fill="#FE885C"/>
<path d="M161.641 609.454C162.9 609.454 163.92 608.434 163.92 607.177C163.92 605.919 162.9 604.899 161.641 604.899C160.383 604.899 159.363 605.919 159.363 607.177C159.363 608.434 160.383 609.454 161.641 609.454Z" fill="#FE885C"/>
<path d="M137.321 607.176C137.321 606.726 137.455 606.286 137.706 605.912C137.956 605.538 138.312 605.246 138.728 605.074C139.144 604.902 139.602 604.858 140.044 604.946C140.486 605.034 140.891 605.251 141.209 605.569C141.528 605.888 141.744 606.293 141.832 606.735C141.92 607.177 141.874 607.634 141.702 608.05C141.53 608.466 141.238 608.821 140.863 609.071C140.489 609.321 140.048 609.455 139.598 609.455C139.299 609.455 139.003 609.396 138.726 609.281C138.45 609.167 138.198 608.999 137.987 608.787C137.775 608.575 137.608 608.324 137.493 608.048C137.379 607.771 137.32 607.475 137.321 607.176V607.176Z" fill="#FE885C"/>
<path d="M117.556 609.454C118.814 609.454 119.834 608.434 119.834 607.177C119.834 605.919 118.814 604.899 117.556 604.899C116.298 604.899 115.278 605.919 115.278 607.177C115.278 608.434 116.298 609.454 117.556 609.454Z" fill="#FE885C"/>
<path d="M205.726 592.711C206.985 592.711 208.005 591.691 208.005 590.434C208.005 589.176 206.985 588.156 205.726 588.156C204.468 588.156 203.448 589.176 203.448 590.434C203.448 591.691 204.468 592.711 205.726 592.711Z" fill="#FE885C"/>
<path d="M183.684 592.711C184.942 592.711 185.962 591.691 185.962 590.434C185.962 589.176 184.942 588.156 183.684 588.156C182.426 588.156 181.406 589.176 181.406 590.434C181.406 591.691 182.426 592.711 183.684 592.711Z" fill="#FE885C"/>
<path d="M161.641 592.711C162.9 592.711 163.92 591.691 163.92 590.434C163.92 589.176 162.9 588.156 161.641 588.156C160.383 588.156 159.363 589.176 159.363 590.434C159.363 591.691 160.383 592.711 161.641 592.711Z" fill="#FE885C"/>
<path d="M137.321 590.434C137.321 589.984 137.454 589.544 137.705 589.17C137.955 588.795 138.311 588.503 138.727 588.331C139.143 588.159 139.601 588.114 140.042 588.202C140.484 588.289 140.89 588.506 141.209 588.825C141.527 589.143 141.744 589.549 141.832 589.99C141.92 590.432 141.875 590.89 141.702 591.306C141.53 591.721 141.238 592.077 140.863 592.327C140.489 592.577 140.049 592.711 139.598 592.711C139.299 592.711 139.003 592.652 138.726 592.538C138.45 592.424 138.199 592.256 137.987 592.045C137.776 591.833 137.608 591.582 137.494 591.306C137.379 591.029 137.321 590.733 137.321 590.434V590.434Z" fill="#FE885C"/>
<path d="M117.556 592.711C118.814 592.711 119.834 591.691 119.834 590.434C119.834 589.176 118.814 588.156 117.556 588.156C116.298 588.156 115.278 589.176 115.278 590.434C115.278 591.691 116.298 592.711 117.556 592.711Z" fill="#FE885C"/>
</g>
</g>
<circle cx="141" cy="359" r="16" fill="white"/>
<path d="M141 409.667C143.637 409.667 146.215 410.449 148.408 411.914C150.6 413.379 152.309 415.461 153.318 417.898C154.328 420.334 154.592 423.015 154.077 425.601C153.563 428.188 152.293 430.563 150.428 432.428C148.563 434.293 146.188 435.563 143.601 436.077C141.015 436.592 138.334 436.328 135.898 435.318C133.461 434.309 131.379 432.6 129.914 430.408C128.449 428.215 127.667 425.637 127.667 423C127.667 419.464 129.071 416.072 131.572 413.572C134.072 411.071 137.464 409.667 141 409.667ZM141 407C137.836 407 134.742 407.938 132.111 409.696C129.48 411.455 127.429 413.953 126.218 416.877C125.007 419.801 124.69 423.018 125.307 426.121C125.925 429.225 127.449 432.076 129.686 434.314C131.924 436.551 134.775 438.075 137.879 438.693C140.982 439.31 144.199 438.993 147.123 437.782C150.047 436.571 152.545 434.52 154.304 431.889C156.062 429.258 157 426.164 157 423C157 418.757 155.314 414.687 152.314 411.686C149.313 408.686 145.243 407 141 407Z" fill="white"/>
</g>
<defs>
<clipPath id="clip0">
<rect width="664" height="944" fill="white"/>
</clipPath>
<clipPath id="clip1">
<rect width="166" height="76.5156" fill="white" transform="translate(418.689 110.625)"/>
</clipPath>
<clipPath id="clip2">
<rect width="93.2762" height="88.5" fill="white" transform="translate(115.278 588.156)"/>
</clipPath>
<clipPath id="clip3">
<rect width="92.7268" height="88.2716" fill="white" transform="translate(115.278 588.156)"/>
</clipPath>
</defs>
</svg>
