<svg width="720" height="1126" viewBox="0 0 720 1126" fill="none" xmlns="http://www.w3.org/2000/svg">
<g clip-path="url(#clip0)">
<path d="M720 0H0V1126H720V0Z" fill="#F1F1F6"/>
<path d="M437.141 492.219C419.876 489.743 380.281 508.312 379.04 544.935C377.696 581.557 410.469 593.318 415.741 596L491.727 584.24L497 500.575L437.141 492.219Z" fill="#303033"/>
<path d="M571 401C603.585 401 630 374.585 630 342C630 309.415 603.585 283 571 283C538.415 283 512 309.415 512 342C512 374.585 538.415 401 571 401Z" fill="#303033"/>
<path d="M532.708 381.972C536.271 383.617 506.345 312.069 491.179 323.171C476.827 333.759 514.692 373.543 532.708 381.972Z" fill="#303033"/>
<path d="M535.125 386.615C538.427 390.547 615.709 363.436 604.979 347.81C594.764 332.806 531.824 382.579 535.125 386.615Z" fill="#303033"/>
<path d="M637.271 584.581C637.271 584.581 689.233 541.365 655.762 493.198C634.482 462.565 576.631 474.736 576.631 474.736C578.077 457.924 582.622 409.344 546.052 382.631C509.482 355.917 463.098 370.047 446.156 391.088C429.214 412.129 433.553 451.426 427.871 479.584C422.292 507.638 426.011 526.719 443.367 535.692C459.172 543.841 477.664 538.89 477.664 538.89L475.701 568.491C475.701 568.491 439.958 569.832 418.057 577.774C365.268 596.855 272.5 727.741 272.5 727.741C214.442 725.266 160 722.791 160 722.791L188.409 806.748C188.409 806.748 260.103 830.161 312.065 816.546C364.751 802.725 414.648 728.876 414.648 728.876L431.9 778.281L402.251 861H660.618L617.333 784.469C624.874 716.602 637.271 584.581 637.271 584.581Z" fill="#D17458"/>
<path d="M554.411 565L486.591 687.946L458.884 569.339C446.684 570.579 430.453 572.955 418.357 577.295C365.424 596.408 272.585 727.516 272.585 727.516C214.484 725.036 160 722.557 160 722.557L188.431 806.656C188.431 806.656 260.179 830.109 312.182 816.471C364.908 802.627 414.842 728.652 414.842 728.652L432.107 778.141L402.436 861H661L617.682 784.34C625.126 716.358 637.428 584.01 637.428 584.01C625.953 577.088 613.443 572.025 600.313 569.236C585.53 565.93 569.298 567.893 554.411 565Z" fill="#FE4400"/>
<path d="M203.141 853H417L368.386 699.57C365.496 690.29 356.826 684 347.124 684H166.294C154.012 684 144 694.002 144 706.272C144 708.541 144.31 710.809 145.032 713.077L185.182 840.008C187.763 847.638 194.988 853 203.141 853Z" fill="#303033"/>
<path d="M541.403 835.107C543.571 842.393 539.648 850.107 532.628 852.357C531.389 852.786 530.047 853 528.705 853H203.202C195.046 853 187.82 847.536 185.342 839.393L184 835L541.403 835.107Z" fill="#303033"/>
<path d="M795.5 853H143.5C134.94 853 128 859.94 128 868.5C128 877.06 134.94 884 143.5 884H795.5C804.06 884 811 877.06 811 868.5C811 859.94 804.06 853 795.5 853Z" fill="#E5E5E5"/>
<path d="M149.639 727C135.248 734.26 128 746.291 128 754.693C128 767.035 140.528 769.317 140.528 769.317C140.528 769.317 131.21 784.045 147.465 790.89C147.465 790.89 147.465 806.033 162.582 806.033C162.582 806.033 160.614 817.856 176.352 818.894C192.09 820.035 208.345 811.737 209.691 806.448C211.244 800.121 206.999 794.831 195.61 793.172C195.61 793.172 211.037 785.911 208.656 776.784C206.171 767.657 195.817 767.865 195.817 767.865C195.817 767.865 205.86 761.849 200.476 753.033C195.092 744.217 184.946 747.225 184.946 747.225C184.946 747.225 187.638 741.002 182.978 736.335C177.387 730.734 153.47 737.787 153.47 737.787L149.639 727Z" fill="#D17458"/>
<path d="M163 807C175.843 803.794 188.278 799.092 200 793" stroke="#303033" stroke-width="4" stroke-miterlimit="10" stroke-linecap="round"/>
<path d="M148 791C165.964 786.111 183.204 778.676 199 769" stroke="#303033" stroke-width="4" stroke-miterlimit="10" stroke-linecap="round"/>
<path d="M139 771C155.741 766.178 171.65 758.744 186 749" stroke="#303033" stroke-width="4" stroke-miterlimit="10" stroke-linecap="round"/>
<path d="M655.796 492.922C634.515 462.356 576.664 474.5 576.664 474.5C578.11 457.725 582.656 409.253 546.086 382.598C509.516 355.944 463.132 370.043 446.19 391.037C439.269 399.682 435.963 411.208 434 423.867C445.26 425.719 461.686 421.911 461.686 421.911C484.206 447.125 504.351 451.139 504.351 451.139C520.053 435.496 547.739 436.01 552.181 459.783C556.83 484.483 517.264 495.494 517.264 495.494C517.264 495.494 513.545 539.85 533.276 555.802C539.371 560.536 546.499 563.829 554.144 565.064C568.916 568.048 585.238 565.99 600.114 569.283C613.234 572.062 625.734 577.105 637.201 584C641.746 579.986 645.878 575.664 649.494 570.93C662.51 554.567 678.006 524.825 655.796 492.922Z" fill="#303033"/>
<path d="M485 413C477.542 419.05 468.944 422.58 459 425" stroke="#D17458" stroke-width="4" stroke-miterlimit="10" stroke-linecap="round"/>
<path d="M455 503.946C457.284 505.327 465.624 506.412 469 500" stroke="#303033" stroke-width="4" stroke-miterlimit="10" stroke-linecap="round"/>
<path d="M477.5 472C479.985 472 482 470.209 482 468C482 465.791 479.985 464 477.5 464C475.015 464 473 465.791 473 468C473 470.209 475.015 472 477.5 472Z" fill="#303033"/>
<path d="M442.5 466C444.985 466 447 464.209 447 462C447 459.791 444.985 458 442.5 458C440.015 458 438 459.791 438 462C438 464.209 440.015 466 442.5 466Z" fill="#303033"/>
<path d="M524 512C532.284 512 539 505.284 539 497C539 488.716 532.284 482 524 482C515.716 482 509 488.716 509 497C509 505.284 515.716 512 524 512Z" fill="white"/>
<path d="M580 476L577 492" stroke="#303033" stroke-width="4" stroke-miterlimit="10" stroke-linecap="round"/>
<path d="M600 743.173C584.858 741.826 569.613 741.619 554.368 742.655C532.634 744.416 503.38 750.217 491.637 755.915C479.894 761.612 434.984 781.812 447.035 788.546C458.057 794.761 481.336 785.438 481.336 785.438C481.336 785.438 458.16 806.881 454.246 815.79C450.331 824.699 463.413 829.775 463.413 829.775C466.916 845.106 482.367 838.476 482.367 838.476C492.152 859.401 544.892 814.132 544.892 814.132C557.458 815.479 570.128 814.858 582.592 812.579C582.592 812.579 589.287 816.308 600 821.591V743.173Z" fill="#D17458"/>
<path d="M732.857 847.875C832.188 800.951 688.225 625.736 637.262 585L608.719 699.782L644.735 749.181C628.959 746.499 613.908 744.643 600 743.509V821.474C631.45 836.737 697.774 864.479 732.857 847.875Z" fill="#FE4400"/>
<path fill-rule="evenodd" clip-rule="evenodd" d="M436.101 438.629C425.552 436.576 414.805 444.398 412.427 456.617C410.049 468.837 417.079 480.118 427.629 482.17C438.178 484.223 448.925 476.401 451.303 464.182C453.68 451.962 446.65 440.681 436.101 438.629ZM408.5 455.853C411.224 441.857 423.775 432.155 436.865 434.702C448.775 437.02 456.47 448.571 455.708 461.178L462.228 461.902C465.18 448.218 477.565 438.818 490.474 441.33C503.564 443.877 511.562 457.577 508.838 471.573C506.115 485.569 493.564 495.271 480.474 492.724C468.442 490.383 460.712 478.619 461.656 465.863L455.19 465.145C452.387 479.034 439.892 488.632 426.865 486.097C413.775 483.55 405.777 469.849 408.5 455.853ZM489.71 445.256C479.161 443.203 468.414 451.025 466.036 463.245C463.658 475.464 470.689 486.745 481.238 488.797C491.787 490.85 502.534 483.029 504.912 470.809C507.29 458.589 500.259 447.309 489.71 445.256ZM531.687 462.926C532.28 463.858 532.005 465.094 531.073 465.687L520.073 472.687C519.141 473.28 517.905 473.006 517.312 472.074C516.719 471.142 516.994 469.906 517.926 469.313L528.926 462.313C529.858 461.72 531.094 461.994 531.687 462.926ZM454.86 477.095C455.912 477.432 456.492 478.558 456.155 479.61C455.751 480.872 455.391 482.128 455.181 483.149C455.075 483.662 455.019 484.064 455.004 484.349C455 484.411 454.999 484.46 455 484.497C455.395 485.15 456.044 485.732 456.978 486.256C457.941 486.796 458.284 488.015 457.744 488.978C457.204 489.942 455.985 490.285 455.021 489.744C453.575 488.933 452.199 487.797 451.345 486.154L451.323 486.112L451.304 486.07C450.986 485.382 450.983 484.628 451.009 484.138C451.039 483.573 451.137 482.954 451.263 482.343C451.516 481.114 451.927 479.7 452.346 478.39C452.682 477.338 453.808 476.758 454.86 477.095ZM495.719 532.978C496.283 533.927 495.971 535.154 495.022 535.719C489.495 539.006 483.746 541.729 477.668 543.885C476.627 544.254 475.484 543.71 475.115 542.669C474.745 541.628 475.29 540.484 476.331 540.115C482.154 538.049 487.667 535.439 492.977 532.281C493.927 531.716 495.154 532.028 495.719 532.978ZM597.823 688.383C598.717 687.733 599.967 687.93 600.617 688.824L624.617 721.824C625.267 722.717 625.069 723.968 624.176 724.617C623.283 725.267 622.032 725.07 621.382 724.176L597.382 691.176C596.732 690.283 596.93 689.032 597.823 688.383ZM400.351 695.108C401.396 694.75 402.533 695.306 402.891 696.351L414.891 731.351C415.25 732.396 414.693 733.534 413.648 733.892C412.603 734.25 411.466 733.694 411.108 732.649L399.108 697.649C398.749 696.604 399.306 695.466 400.351 695.108ZM512.676 759.909C513.278 760.835 513.016 762.074 512.09 762.677C501.416 769.62 487.018 781.309 478.274 788.541C477.423 789.245 476.163 789.126 475.458 788.275C474.754 787.424 474.874 786.163 475.725 785.459C484.444 778.247 499.012 766.412 509.909 759.323C510.835 758.721 512.074 758.984 512.676 759.909ZM524.68 776.915C525.279 777.843 525.012 779.081 524.085 779.68C498.837 795.985 475.914 817.898 464.415 829.413C463.634 830.195 462.368 830.196 461.586 829.415C460.805 828.635 460.804 827.368 461.584 826.587C473.13 815.025 496.297 792.863 521.915 776.32C522.842 775.721 524.08 775.987 524.68 776.915ZM535.632 794.844C536.27 795.745 536.057 796.994 535.156 797.632C518.178 809.658 498.393 827.905 485.387 840.44C484.592 841.207 483.326 841.183 482.56 840.388C481.793 839.593 481.816 838.327 482.612 837.56C495.63 825.012 515.6 806.582 532.844 794.368C533.745 793.729 534.993 793.943 535.632 794.844ZM598.285 822.97C598.854 822.023 600.083 821.717 601.03 822.286C614.761 830.536 637.697 838.75 650.637 843.104C651.684 843.457 652.247 844.591 651.895 845.638C651.543 846.685 650.409 847.248 649.362 846.896C636.476 842.56 613.131 834.223 598.97 825.714C598.023 825.145 597.716 823.917 598.285 822.97Z" fill="#303033"/>
<g clip-path="url(#clip1)">
<path d="M589.078 1006.69C571.454 1006.69 571.454 985.878 553.828 985.878C536.202 985.878 536.194 1006.69 518.563 1006.69C500.932 1006.69 500.937 985.878 483.311 985.878C465.671 985.878 465.671 1006.69 448.034 1006.69C430.397 1006.69 430.395 985.878 412.758 985.878" stroke="#FE885C" stroke-width="3.863" stroke-linecap="round" stroke-linejoin="round"/>
<path d="M589.078 977.903C571.454 977.903 571.454 957.097 553.828 957.097C536.202 957.097 536.194 977.903 518.563 977.903C500.931 977.903 500.936 957.097 483.31 957.097C465.671 957.097 465.671 977.903 448.034 977.903C430.397 977.903 430.394 957.097 412.757 957.097" stroke="#FE885C" stroke-width="3.863" stroke-linecap="round" stroke-linejoin="round"/>
<path d="M589.078 949.123C571.454 949.123 571.454 928.315 553.828 928.315C536.202 928.315 536.194 949.123 518.563 949.123C500.932 949.123 500.937 928.315 483.311 928.315C465.671 928.315 465.671 949.123 448.034 949.123C430.397 949.123 430.395 928.315 412.758 928.315" stroke="#FE885C" stroke-width="3.863" stroke-linecap="round" stroke-linejoin="round"/>
</g>
<g clip-path="url(#clip2)">
<path d="M588.077 223.752C589.441 223.752 590.547 222.646 590.547 221.282C590.547 219.918 589.441 218.812 588.077 218.812C586.712 218.812 585.606 219.918 585.606 221.282C585.606 222.646 586.712 223.752 588.077 223.752Z" fill="#FE885C"/>
<path d="M564.175 223.752C565.54 223.752 566.646 222.646 566.646 221.282C566.646 219.918 565.54 218.812 564.175 218.812C562.811 218.812 561.705 219.918 561.705 221.282C561.705 222.646 562.811 223.752 564.175 223.752Z" fill="#FE885C"/>
<path d="M540.274 223.752C541.638 223.752 542.744 222.646 542.744 221.282C542.744 219.918 541.638 218.812 540.274 218.812C538.91 218.812 537.804 219.918 537.804 221.282C537.804 222.646 538.91 223.752 540.274 223.752Z" fill="#FE885C"/>
<path d="M513.902 221.279C513.902 220.79 514.047 220.313 514.319 219.907C514.59 219.501 514.976 219.184 515.427 218.997C515.878 218.81 516.375 218.761 516.854 218.857C517.333 218.952 517.773 219.187 518.118 219.532C518.463 219.878 518.698 220.318 518.794 220.797C518.889 221.276 518.84 221.772 518.653 222.224C518.466 222.675 518.15 223.06 517.744 223.332C517.338 223.603 516.86 223.748 516.372 223.748C516.047 223.748 515.726 223.684 515.427 223.56C515.127 223.436 514.854 223.255 514.625 223.025C514.396 222.796 514.214 222.524 514.09 222.224C513.966 221.924 513.902 221.603 513.902 221.279Z" fill="#FE885C"/>
<path d="M492.47 223.752C493.835 223.752 494.941 222.646 494.941 221.282C494.941 219.918 493.835 218.812 492.47 218.812C491.106 218.812 490 219.918 490 221.282C490 222.646 491.106 223.752 492.47 223.752Z" fill="#FE885C"/>
<path d="M588.077 205.59C589.441 205.59 590.547 204.484 590.547 203.12C590.547 201.756 589.441 200.65 588.077 200.65C586.712 200.65 585.606 201.756 585.606 203.12C585.606 204.484 586.712 205.59 588.077 205.59Z" fill="#FE885C"/>
<path d="M564.175 205.59C565.54 205.59 566.646 204.484 566.646 203.12C566.646 201.756 565.54 200.65 564.175 200.65C562.811 200.65 561.705 201.756 561.705 203.12C561.705 204.484 562.811 205.59 564.175 205.59Z" fill="#FE885C"/>
<path d="M540.274 205.59C541.638 205.59 542.744 204.484 542.744 203.12C542.744 201.756 541.638 200.65 540.274 200.65C538.91 200.65 537.804 201.756 537.804 203.12C537.804 204.484 538.91 205.59 540.274 205.59Z" fill="#FE885C"/>
<path d="M513.902 203.119C513.903 202.631 514.048 202.154 514.32 201.748C514.591 201.342 514.977 201.026 515.429 200.84C515.88 200.653 516.376 200.604 516.855 200.7C517.334 200.796 517.774 201.031 518.119 201.376C518.464 201.722 518.699 202.162 518.794 202.641C518.889 203.12 518.84 203.616 518.653 204.067C518.466 204.518 518.149 204.904 517.743 205.175C517.337 205.446 516.86 205.591 516.372 205.591C516.047 205.591 515.726 205.527 515.426 205.403C515.126 205.279 514.854 205.097 514.625 204.867C514.395 204.637 514.214 204.365 514.09 204.065C513.966 203.765 513.902 203.444 513.902 203.119Z" fill="#FE885C"/>
<path d="M492.47 205.59C493.835 205.59 494.941 204.484 494.941 203.12C494.941 201.756 493.835 200.65 492.47 200.65C491.106 200.65 490 201.756 490 203.12C490 204.484 491.106 205.59 492.47 205.59Z" fill="#FE885C"/>
<path d="M588.077 187.427C589.441 187.427 590.547 186.321 590.547 184.957C590.547 183.593 589.441 182.487 588.077 182.487C586.712 182.487 585.606 183.593 585.606 184.957C585.606 186.321 586.712 187.427 588.077 187.427Z" fill="#FE885C"/>
<path d="M564.175 187.427C565.54 187.427 566.646 186.321 566.646 184.957C566.646 183.593 565.54 182.487 564.175 182.487C562.811 182.487 561.705 183.593 561.705 184.957C561.705 186.321 562.811 187.427 564.175 187.427Z" fill="#FE885C"/>
<path d="M540.274 187.427C541.638 187.427 542.744 186.321 542.744 184.957C542.744 183.593 541.638 182.487 540.274 182.487C538.91 182.487 537.804 183.593 537.804 184.957C537.804 186.321 538.91 187.427 540.274 187.427Z" fill="#FE885C"/>
<path d="M513.902 184.957C513.902 184.469 514.047 183.991 514.319 183.585C514.59 183.179 514.976 182.863 515.427 182.676C515.878 182.489 516.375 182.44 516.854 182.535C517.333 182.63 517.773 182.866 518.118 183.211C518.463 183.556 518.698 183.996 518.794 184.475C518.889 184.954 518.84 185.451 518.653 185.902C518.466 186.353 518.15 186.739 517.744 187.01C517.338 187.282 516.86 187.427 516.372 187.427C516.047 187.427 515.726 187.363 515.427 187.239C515.127 187.115 514.854 186.933 514.625 186.704C514.396 186.474 514.214 186.202 514.09 185.902C513.966 185.603 513.902 185.281 513.902 184.957Z" fill="#FE885C"/>
<path d="M492.47 187.427C493.835 187.427 494.941 186.321 494.941 184.957C494.941 183.593 493.835 182.487 492.47 182.487C491.106 182.487 490 183.593 490 184.957C490 186.321 491.106 187.427 492.47 187.427Z" fill="#FE885C"/>
<path d="M588.077 169.265C589.441 169.265 590.547 168.159 590.547 166.795C590.547 165.431 589.441 164.325 588.077 164.325C586.712 164.325 585.606 165.431 585.606 166.795C585.606 168.159 586.712 169.265 588.077 169.265Z" fill="#FE885C"/>
<path d="M564.175 169.265C565.54 169.265 566.646 168.159 566.646 166.795C566.646 165.431 565.54 164.325 564.175 164.325C562.811 164.325 561.705 165.431 561.705 166.795C561.705 168.159 562.811 169.265 564.175 169.265Z" fill="#FE885C"/>
<path d="M540.274 169.265C541.638 169.265 542.744 168.159 542.744 166.795C542.744 165.431 541.638 164.325 540.274 164.325C538.91 164.325 537.804 165.431 537.804 166.795C537.804 168.159 538.91 169.265 540.274 169.265Z" fill="#FE885C"/>
<path d="M513.902 166.796C513.902 166.308 514.047 165.83 514.319 165.424C514.59 165.018 514.976 164.701 515.427 164.515C515.878 164.328 516.375 164.279 516.854 164.374C517.333 164.469 517.773 164.704 518.118 165.05C518.463 165.395 518.698 165.835 518.794 166.314C518.889 166.793 518.84 167.29 518.653 167.741C518.466 168.192 518.15 168.578 517.744 168.849C517.338 169.121 516.86 169.265 516.372 169.265C515.717 169.265 515.089 169.005 514.626 168.542C514.163 168.079 513.902 167.451 513.902 166.796Z" fill="#FE885C"/>
<path d="M492.47 169.265C493.835 169.265 494.941 168.159 494.941 166.795C494.941 165.431 493.835 164.325 492.47 164.325C491.106 164.325 490 165.431 490 166.795C490 168.159 491.106 169.265 492.47 169.265Z" fill="#FE885C"/>
<path d="M588.077 151.103C589.441 151.103 590.547 149.997 590.547 148.632C590.547 147.268 589.441 146.162 588.077 146.162C586.712 146.162 585.606 147.268 585.606 148.632C585.606 149.997 586.712 151.103 588.077 151.103Z" fill="#FE885C"/>
<path d="M564.175 151.103C565.54 151.103 566.646 149.997 566.646 148.632C566.646 147.268 565.54 146.162 564.175 146.162C562.811 146.162 561.705 147.268 561.705 148.632C561.705 149.997 562.811 151.103 564.175 151.103Z" fill="#FE885C"/>
<path d="M540.274 151.103C541.638 151.103 542.744 149.997 542.744 148.632C542.744 147.268 541.638 146.162 540.274 146.162C538.91 146.162 537.804 147.268 537.804 148.632C537.804 149.997 538.91 151.103 540.274 151.103Z" fill="#FE885C"/>
<path d="M513.902 148.631C513.903 148.143 514.048 147.666 514.32 147.26C514.591 146.854 514.977 146.538 515.429 146.352C515.88 146.165 516.376 146.117 516.855 146.212C517.334 146.308 517.774 146.543 518.119 146.889C518.464 147.234 518.699 147.674 518.794 148.153C518.889 148.632 518.84 149.129 518.653 149.58C518.466 150.031 518.149 150.416 517.743 150.687C517.337 150.959 516.86 151.103 516.372 151.103C516.047 151.103 515.726 151.039 515.426 150.915C515.126 150.791 514.854 150.609 514.625 150.379C514.395 150.15 514.214 149.877 514.09 149.577C513.966 149.277 513.902 148.956 513.902 148.631Z" fill="#FE885C"/>
<path d="M492.47 151.103C493.835 151.103 494.941 149.997 494.941 148.632C494.941 147.268 493.835 146.162 492.47 146.162C491.106 146.162 490 147.268 490 148.632C490 149.997 491.106 151.103 492.47 151.103Z" fill="#FE885C"/>
<path d="M588.077 132.941C589.441 132.941 590.547 131.835 590.547 130.47C590.547 129.106 589.441 128 588.077 128C586.712 128 585.606 129.106 585.606 130.47C585.606 131.835 586.712 132.941 588.077 132.941Z" fill="#FE885C"/>
<path d="M564.175 132.941C565.54 132.941 566.646 131.835 566.646 130.47C566.646 129.106 565.54 128 564.175 128C562.811 128 561.705 129.106 561.705 130.47C561.705 131.835 562.811 132.941 564.175 132.941Z" fill="#FE885C"/>
<path d="M540.274 132.941C541.638 132.941 542.744 131.835 542.744 130.47C542.744 129.106 541.638 128 540.274 128C538.91 128 537.804 129.106 537.804 130.47C537.804 131.835 538.91 132.941 540.274 132.941Z" fill="#FE885C"/>
<path d="M513.902 130.471C513.902 129.983 514.047 129.505 514.319 129.099C514.59 128.693 514.976 128.377 515.427 128.19C515.878 128.003 516.375 127.954 516.854 128.049C517.333 128.144 517.773 128.38 518.118 128.725C518.463 129.07 518.698 129.51 518.794 129.989C518.889 130.468 518.84 130.965 518.653 131.416C518.466 131.867 518.15 132.253 517.744 132.524C517.338 132.796 516.86 132.941 516.372 132.941C516.047 132.941 515.726 132.877 515.427 132.753C515.127 132.629 514.854 132.447 514.625 132.218C514.396 131.988 514.214 131.716 514.09 131.416C513.966 131.117 513.902 130.795 513.902 130.471Z" fill="#FE885C"/>
<path d="M492.47 132.941C493.835 132.941 494.941 131.835 494.941 130.47C494.941 129.106 493.835 128 492.47 128C491.106 128 490 129.106 490 130.47C490 131.835 491.106 132.941 492.47 132.941Z" fill="#FE885C"/>
</g>
<path d="M144 314.667C146.637 314.667 149.215 315.449 151.408 316.914C153.6 318.379 155.309 320.461 156.318 322.898C157.328 325.334 157.592 328.015 157.077 330.601C156.563 333.188 155.293 335.563 153.428 337.428C151.563 339.293 149.188 340.563 146.601 341.077C144.015 341.592 141.334 341.328 138.898 340.318C136.461 339.309 134.379 337.6 132.914 335.408C131.449 333.215 130.667 330.637 130.667 328C130.667 324.464 132.071 321.072 134.572 318.572C137.072 316.071 140.464 314.667 144 314.667ZM144 312C140.836 312 137.742 312.938 135.111 314.696C132.48 316.455 130.429 318.953 129.218 321.877C128.007 324.801 127.69 328.018 128.307 331.121C128.925 334.225 130.449 337.076 132.686 339.314C134.924 341.551 137.775 343.075 140.879 343.693C143.982 344.31 147.199 343.993 150.123 342.782C153.047 341.571 155.545 339.52 157.304 336.889C159.062 334.258 160 331.164 160 328C160 323.757 158.314 319.687 155.314 316.686C152.313 313.686 148.243 312 144 312Z" fill="#FE4400"/>
<circle cx="144" cy="392" r="16" fill="#FE4400"/>
<path d="M130.856 163H137.03V153.634H143.834C150.092 153.634 154.712 149.602 154.712 143.89C154.712 138.178 150.092 134.146 143.834 134.146H130.856V163ZM137.03 147.964V139.816H143.162C146.228 139.816 148.328 141.412 148.328 143.89C148.328 146.368 146.228 147.964 143.162 147.964H137.03Z" fill="#949495"/>
<path d="M164.547 145.318V141.286H158.415V163H164.547V152.626C164.547 148.552 167.445 145.948 171.981 145.948V140.782C168.663 140.782 165.975 142.504 164.547 145.318Z" fill="#949495"/>
<path d="M178.584 138.304C180.39 138.304 181.86 136.792 181.86 134.944C181.86 133.222 180.39 131.668 178.584 131.668C176.694 131.668 175.224 133.222 175.224 134.944C175.224 136.792 176.694 138.304 178.584 138.304ZM175.476 163H181.608V141.286H175.476V163Z" fill="#949495"/>
<path d="M212.791 140.782C209.557 140.782 206.869 142.336 205.735 144.73C204.391 142.294 201.829 140.782 198.847 140.782C196.159 140.782 194.017 142.084 192.967 144.142V141.286H186.835V163H192.967V149.896C192.967 147.586 194.689 145.948 197.167 145.948C199.393 145.948 200.989 147.712 200.989 150.232V163.042H206.869V149.896C206.869 147.586 208.633 145.948 211.069 145.948C213.337 145.948 214.933 147.712 214.933 150.232V163.042H220.813V149.182C220.813 144.268 217.327 140.782 212.791 140.782Z" fill="#949495"/>
<path d="M236.215 158.086C233.653 158.086 231.763 156.49 231.049 154.138H246.715C246.715 145.948 242.725 140.782 235.921 140.782C229.579 140.782 224.749 145.528 224.749 152.08C224.749 158.758 229.789 163.504 236.257 163.504C239.449 163.504 243.187 162.16 245.119 160.144L241.213 156.154C240.037 157.288 237.937 158.086 236.215 158.086ZM236.173 146.2C238.651 146.2 240.247 147.586 240.835 149.728H231.133C231.931 147.544 233.863 146.2 236.173 146.2Z" fill="#949495"/>
<path d="M253.93 138.304C255.736 138.304 257.206 136.792 257.206 134.944C257.206 133.222 255.736 131.668 253.93 131.668C252.04 131.668 250.57 133.222 250.57 134.944C250.57 136.792 252.04 138.304 253.93 138.304ZM250.822 163H256.954V141.286H250.822V163Z" fill="#949495"/>
<path d="M268.439 145.318V141.286H262.307V163H268.439V152.626C268.439 148.552 271.337 145.948 275.873 145.948V140.782C272.555 140.782 269.867 142.504 268.439 145.318Z" fill="#949495"/>
<path d="M289.113 140.782C286.089 140.782 283.107 141.622 280.041 143.176L282.099 147.25C283.821 146.368 285.711 145.696 287.727 145.696C291.297 145.696 292.725 147.712 292.725 150.022V150.442C290.877 149.728 288.945 149.35 287.181 149.35C282.141 149.35 278.151 152.29 278.151 156.574C278.151 160.732 281.721 163.504 286.341 163.504C288.693 163.504 291.171 162.58 292.725 160.816V163H298.647V150.022C298.647 144.352 294.783 140.782 289.113 140.782ZM287.727 159.262C285.627 159.262 284.073 158.17 284.073 156.406C284.073 154.642 285.837 153.34 288.063 153.34C289.743 153.34 291.339 153.634 292.725 154.138V156.154C292.305 158.17 290.079 159.262 287.727 159.262Z" fill="#949495"/>
<path d="M322.811 163H328.481L337.763 141.286H331.379L325.667 155.944L319.829 141.286H313.403L322.811 163Z" fill="#949495"/>
<path d="M349.911 158.086C347.349 158.086 345.459 156.49 344.745 154.138H360.411C360.411 145.948 356.421 140.782 349.617 140.782C343.275 140.782 338.445 145.528 338.445 152.08C338.445 158.758 343.485 163.504 349.953 163.504C353.145 163.504 356.883 162.16 358.815 160.144L354.909 156.154C353.733 157.288 351.633 158.086 349.911 158.086ZM349.869 146.2C352.347 146.2 353.943 147.586 354.531 149.728H344.829C345.627 147.544 347.559 146.2 349.869 146.2Z" fill="#949495"/>
<path d="M363.593 163H382.577V157.792H371.573L382.493 145.612V141.286H363.887V146.494H374.513L363.593 158.674V163Z" fill="#949495"/>
<path d="M144.086 186.782C141.062 186.782 138.542 188.084 136.82 190.31V187.286H130.688V216.224H136.82V205.934C138.542 208.202 141.062 209.504 144.086 209.504C149.882 209.504 154.082 204.8 154.082 198.122C154.082 191.486 149.882 186.782 144.086 186.782ZM142.322 204.338C139.34 204.338 137.156 202.154 136.82 198.962V197.282C137.156 194.132 139.34 191.948 142.322 191.948C145.724 191.948 148.118 194.51 148.118 198.122C148.118 201.776 145.724 204.338 142.322 204.338Z" fill="#949495"/>
<path d="M169.083 209.504C175.509 209.504 180.885 204.296 180.885 198.122C180.885 191.948 175.509 186.782 169.083 186.782C162.615 186.782 157.197 191.948 157.197 198.122C157.197 204.296 162.615 209.504 169.083 209.504ZM169.083 204.338C165.807 204.338 163.077 201.482 163.077 198.122C163.077 194.762 165.807 191.948 169.083 191.948C172.317 191.948 175.047 194.762 175.047 198.122C175.047 201.482 172.317 204.338 169.083 204.338Z" fill="#949495"/>
<path d="M191.166 191.318V187.286H185.034V209H191.166V198.626C191.166 194.552 194.064 191.948 198.6 191.948V186.782C195.282 186.782 192.594 188.504 191.166 191.318Z" fill="#949495"/>
<path d="M223.57 186.782C220.546 186.782 217.564 187.622 214.498 189.176L216.556 193.25C218.278 192.368 220.168 191.696 222.184 191.696C225.754 191.696 227.182 193.712 227.182 196.022V196.442C225.334 195.728 223.402 195.35 221.638 195.35C216.598 195.35 212.608 198.29 212.608 202.574C212.608 206.732 216.178 209.504 220.798 209.504C223.15 209.504 225.628 208.58 227.182 206.816V209H233.104V196.022C233.104 190.352 229.24 186.782 223.57 186.782ZM222.184 205.262C220.084 205.262 218.53 204.17 218.53 202.406C218.53 200.642 220.294 199.34 222.52 199.34C224.2 199.34 225.796 199.634 227.182 200.138V202.154C226.762 204.17 224.536 205.262 222.184 205.262Z" fill="#949495"/>
<path d="M254.484 187.286V190.394C252.762 188.126 250.242 186.782 247.176 186.782C241.38 186.782 237.18 191.486 237.18 198.122C237.18 204.8 241.38 209.504 247.176 209.504C250.242 209.504 252.762 208.16 254.484 205.892V216.224H260.616V187.286H254.484ZM248.94 204.338C245.538 204.338 243.144 201.776 243.144 198.122C243.144 194.51 245.538 191.948 248.94 191.948C252.174 191.948 254.484 194.51 254.484 198.122C254.484 201.776 252.174 204.338 248.94 204.338Z" fill="#949495"/>
<path d="M280.405 187.286V200.264L280.363 200.138C280.363 202.49 278.389 204.338 275.827 204.338C273.391 204.338 271.711 202.49 271.711 199.802V187.286H265.789V201.104C265.789 206.018 269.149 209.504 273.853 209.504C276.667 209.504 279.103 208.244 280.405 206.27V209H286.537V187.286H280.405Z" fill="#949495"/>
<path d="M294.863 184.304C296.669 184.304 298.139 182.792 298.139 180.944C298.139 179.222 296.669 177.668 294.863 177.668C292.973 177.668 291.503 179.222 291.503 180.944C291.503 182.792 292.973 184.304 294.863 184.304ZM291.755 209H297.887V187.286H291.755V209Z" fill="#949495"/>
<path d="M307.651 199.088H313.111V196.064C317.437 195.056 320.545 191.654 320.545 187.874C320.545 183.128 316.681 179.642 311.095 179.642C306.937 179.642 303.619 181.49 301.225 184.178L304.753 187.79C306.097 186.278 307.987 185.186 310.045 185.186C312.607 185.186 314.245 186.698 314.245 188.462C314.245 190.478 311.515 192.032 307.651 192.2V199.088ZM310.381 209.504C312.439 209.504 314.119 207.74 314.119 205.598C314.119 203.624 312.439 201.86 310.381 201.86C308.197 201.86 306.475 203.624 306.475 205.598C306.475 207.74 308.197 209.504 310.381 209.504Z" fill="#949495"/>
<path d="M130.368 960H141.92C146.112 960 149.12 957.568 149.12 954.048C149.12 951.616 147.648 949.568 145.088 948.416C147.04 947.392 148.16 945.76 148.16 943.52C148.16 940.32 145.44 938.016 141.504 938.016H130.368V960ZM135.072 946.88V942.048H140.32C142.08 942.048 143.328 943.072 143.328 944.448C143.328 945.856 142.08 946.88 140.32 946.88H135.072ZM135.072 955.968V950.592H141.056C142.944 950.592 144.288 951.712 144.288 953.28C144.288 954.848 142.944 955.968 141.056 955.968H135.072Z" fill="#949495"/>
<path d="M160.551 960.384C165.447 960.384 169.543 956.416 169.543 951.712C169.543 947.008 165.447 943.072 160.551 943.072C155.623 943.072 151.495 947.008 151.495 951.712C151.495 956.416 155.623 960.384 160.551 960.384ZM160.551 956.448C158.055 956.448 155.975 954.272 155.975 951.712C155.975 949.152 158.055 947.008 160.551 947.008C163.015 947.008 165.095 949.152 165.095 951.712C165.095 954.272 163.015 956.448 160.551 956.448Z" fill="#949495"/>
<path d="M180.096 943.072C177.792 943.072 175.52 943.712 173.184 944.896L174.752 948C176.064 947.328 177.504 946.816 179.04 946.816C181.76 946.816 182.848 948.352 182.848 950.112V950.432C181.44 949.888 179.968 949.6 178.624 949.6C174.784 949.6 171.744 951.84 171.744 955.104C171.744 958.272 174.464 960.384 177.984 960.384C179.776 960.384 181.664 959.68 182.848 958.336V960H187.36V950.112C187.36 945.792 184.416 943.072 180.096 943.072ZM179.04 957.152C177.44 957.152 176.256 956.32 176.256 954.976C176.256 953.632 177.6 952.64 179.296 952.64C180.576 952.64 181.792 952.864 182.848 953.248V954.784C182.528 956.32 180.832 957.152 179.04 957.152Z" fill="#949495"/>
<path d="M197.506 960.384C201.57 960.384 204.226 958.304 204.226 955.04C204.226 951.424 201.058 950.464 198.21 949.728C195.97 949.12 195.298 948.864 195.298 947.968C195.298 947.392 196.098 946.976 197.25 946.976C198.658 946.976 200.386 947.52 201.89 948.448L203.778 945.12C201.954 943.904 199.618 943.072 197.25 943.072C193.346 943.072 190.754 945.312 190.786 948.448C190.818 951.712 193.442 952.64 196.834 953.472C198.53 953.92 199.746 954.24 199.746 955.264C199.746 956 198.85 956.512 197.602 956.512C195.394 956.512 193.538 955.712 192.066 954.656L190.05 957.888C192.034 959.488 194.85 960.384 197.506 960.384Z" fill="#949495"/>
<path d="M206.753 953.184H215.521V949.216H206.753V953.184Z" fill="#949495"/>
<path d="M224.553 960H228.873L235.945 943.456H231.081L226.729 954.624L222.281 943.456H217.385L224.553 960Z" fill="#949495"/>
<path d="M240.759 941.184C242.135 941.184 243.255 940.032 243.255 938.624C243.255 937.312 242.135 936.128 240.759 936.128C239.319 936.128 238.199 937.312 238.199 938.624C238.199 940.032 239.319 941.184 240.759 941.184ZM238.391 960H243.063V943.456H238.391V960Z" fill="#949495"/>
<path d="M256.71 943.072C254.566 943.072 252.71 944.032 251.718 945.536V943.456H247.046V960H251.718V950.112L251.75 950.208C251.75 948.416 253.254 947.008 255.206 947.008C257.062 947.008 258.342 948.416 258.342 950.464V960H262.854V949.472C262.854 945.728 260.294 943.072 256.71 943.072Z" fill="#949495"/>
<path d="M279.15 937.632V945.824C277.838 944.096 275.918 943.072 273.582 943.072C269.166 943.072 265.966 946.656 265.966 951.712C265.966 956.8 269.166 960.384 273.582 960.384C275.918 960.384 277.838 959.36 279.15 957.632V960H283.822V937.632H279.15ZM274.926 956.448C272.334 956.448 270.51 954.496 270.51 951.712C270.51 948.96 272.334 947.008 274.926 947.008C277.39 947.008 279.15 948.96 279.15 951.712C279.15 954.496 277.39 956.448 274.926 956.448Z" fill="#949495"/>
<path d="M295.315 943.072C293.011 943.072 290.739 943.712 288.403 944.896L289.971 948C291.283 947.328 292.723 946.816 294.259 946.816C296.979 946.816 298.067 948.352 298.067 950.112V950.432C296.659 949.888 295.187 949.6 293.843 949.6C290.003 949.6 286.963 951.84 286.963 955.104C286.963 958.272 289.683 960.384 293.203 960.384C294.995 960.384 296.883 959.68 298.067 958.336V960H302.579V950.112C302.579 945.792 299.635 943.072 295.315 943.072ZM294.259 957.152C292.659 957.152 291.475 956.32 291.475 954.976C291.475 953.632 292.819 952.64 294.515 952.64C295.795 952.64 297.011 952.864 298.067 953.248V954.784C297.747 956.32 296.051 957.152 294.259 957.152Z" fill="#949495"/>
<path d="M312.725 960.384C316.789 960.384 319.445 958.304 319.445 955.04C319.445 951.424 316.277 950.464 313.429 949.728C311.189 949.12 310.517 948.864 310.517 947.968C310.517 947.392 311.317 946.976 312.469 946.976C313.877 946.976 315.605 947.52 317.109 948.448L318.997 945.12C317.173 943.904 314.837 943.072 312.469 943.072C308.565 943.072 305.973 945.312 306.005 948.448C306.037 951.712 308.661 952.64 312.053 953.472C313.749 953.92 314.965 954.24 314.965 955.264C314.965 956 314.069 956.512 312.821 956.512C310.613 956.512 308.757 955.712 307.285 954.656L305.269 957.888C307.253 959.488 310.069 960.384 312.725 960.384Z" fill="#949495"/>
<path d="M139.616 976.568L135.744 971.96L133.216 972.536L137.76 976.568H139.616ZM137.152 978.072C135.552 978.072 133.568 978.488 131.2 979.672L132.16 981.624C133.664 980.856 135.328 980.12 136.992 980.12C140.576 980.12 141.472 982.68 141.472 984.92V985.528C139.776 984.984 137.888 984.6 136.096 984.6C132.544 984.6 129.6 986.808 129.6 990.104C129.6 993.368 132.16 995.384 135.648 995.384C137.824 995.384 140.288 994.36 141.472 992.408V995H143.872V984.92C143.872 980.92 141.664 978.072 137.152 978.072ZM136.064 993.272C133.728 993.272 131.936 992.056 131.936 990.008C131.936 988.024 134.016 986.616 136.48 986.616C138.272 986.616 139.968 986.872 141.472 987.288V989.816C140.832 992.152 138.24 993.272 136.064 993.272Z" fill="#949495"/>
<path d="M168.553 995.384C174.665 995.384 179.785 990.168 179.785 983.992C179.785 977.816 174.665 972.632 168.553 972.632C162.473 972.632 157.289 977.816 157.289 983.992C157.289 990.168 162.473 995.384 168.553 995.384ZM168.553 993.08C163.817 993.08 159.817 988.92 159.817 983.992C159.817 979.096 163.817 974.936 168.553 974.936C173.289 974.936 177.257 979.096 177.257 983.992C177.257 988.92 173.289 993.08 168.553 993.08Z" fill="#949495"/>
<path d="M186.494 981.688V978.456H184.094V995H186.494V985.752C186.494 982.52 189.15 980.216 192.894 980.216V978.072C189.854 978.072 187.486 979.48 186.494 981.688Z" fill="#949495"/>
<path d="M202.933 978.072C201.333 978.072 199.349 978.488 196.981 979.672L197.941 981.624C199.445 980.856 201.109 980.12 202.773 980.12C206.357 980.12 207.253 982.68 207.253 984.92V985.528C205.557 984.984 203.669 984.6 201.877 984.6C198.325 984.6 195.381 986.808 195.381 990.104C195.381 993.368 197.941 995.384 201.429 995.384C203.605 995.384 206.069 994.36 207.253 992.408V995H209.653V984.92C209.653 980.92 207.445 978.072 202.933 978.072ZM201.845 993.272C199.509 993.272 197.717 992.056 197.717 990.008C197.717 988.024 199.797 986.616 202.261 986.616C204.053 986.616 205.749 986.872 207.253 987.288V989.816C206.613 992.152 204.021 993.272 201.845 993.272Z" fill="#949495"/>
<path d="M222.429 978.072C220.093 978.072 217.949 979.352 216.989 981.112V978.456H214.589V995H216.989V984.472C216.989 982.168 219.325 980.216 222.109 980.216C224.541 980.216 226.237 982.104 226.237 984.792V995H228.637V984.472C228.637 980.728 226.077 978.072 222.429 978.072Z" fill="#949495"/>
<path d="M246.359 978.456V981.304C245.079 979.288 242.967 978.072 240.343 978.072C235.895 978.072 232.727 981.304 232.727 985.912C232.727 990.52 235.895 993.784 240.343 993.784C242.967 993.784 245.079 992.568 246.359 990.552V993.24C246.359 996.472 244.119 998.36 240.311 998.36C238.263 998.36 236.279 997.624 234.999 996.408L233.943 998.296C235.447 999.576 237.943 1000.5 240.631 1000.5C245.399 1000.5 248.759 997.496 248.759 993.24V978.456H246.359ZM240.791 991.64C237.559 991.64 235.255 989.272 235.255 985.912C235.255 982.584 237.559 980.216 240.791 980.216C244.055 980.216 246.359 982.584 246.359 985.912C246.359 989.272 244.055 991.64 240.791 991.64Z" fill="#949495"/>
<path d="M261.294 993.24C258.03 993.24 255.758 990.872 255.406 987.64H268.942C268.942 981.848 266.094 978.072 261.102 978.072C256.654 978.072 252.942 981.752 252.942 986.68C252.942 991.768 256.91 995.384 261.326 995.384C263.63 995.384 266.542 994.392 267.982 992.824L266.51 991.256C265.486 992.376 263.246 993.24 261.294 993.24ZM261.198 980.216C264.494 980.216 266.254 982.52 266.574 985.496H255.438C255.886 982.296 258.254 980.216 261.198 980.216Z" fill="#949495"/>
<path d="M282.247 995H284.743V987.096H291.175C295.719 987.096 299.271 984.184 299.271 980.056C299.271 975.928 295.719 973.016 291.175 973.016H282.247V995ZM284.743 984.728V975.384H290.727C294.311 975.384 296.743 977.112 296.743 980.056C296.743 983 294.311 984.728 290.727 984.728H284.743Z" fill="#949495"/>
<path d="M310.425 995.384C315.065 995.384 318.969 991.416 318.969 986.712C318.969 982.008 315.065 978.072 310.425 978.072C305.785 978.072 301.849 982.008 301.849 986.712C301.849 991.416 305.785 995.384 310.425 995.384ZM310.425 993.24C307.129 993.24 304.377 990.264 304.377 986.712C304.377 983.192 307.129 980.216 310.425 980.216C313.689 980.216 316.441 983.192 316.441 986.712C316.441 990.264 313.689 993.24 310.425 993.24Z" fill="#949495"/>
<path d="M324.116 975.448C324.98 975.448 325.684 974.712 325.684 973.848C325.684 973.016 324.98 972.28 324.116 972.28C323.22 972.28 322.516 973.016 322.516 973.848C322.516 974.712 323.22 975.448 324.116 975.448ZM322.9 995H325.3V978.456H322.9V995Z" fill="#949495"/>
<path d="M337.992 978.072C335.656 978.072 333.512 979.352 332.552 981.112V978.456H330.152V995H332.552V984.472C332.552 982.168 334.888 980.216 337.672 980.216C340.104 980.216 341.8 982.104 341.8 984.792V995H344.2V984.472C344.2 980.728 341.64 978.072 337.992 978.072Z" fill="#949495"/>
<path d="M356.321 992.568C355.969 992.952 355.329 993.24 354.593 993.24C353.633 993.24 352.801 992.376 352.801 991.16V980.6H356.865V978.456H352.801V973.912H350.401V978.456H347.809V980.6H350.401V991.16C350.401 993.624 352.065 995.384 354.433 995.384C355.553 995.384 356.641 995 357.505 994.328L356.321 992.568Z" fill="#949495"/>
<path d="M362.053 988.824H363.749L364.389 973.016H361.445L362.053 988.824ZM362.885 995.384C363.813 995.384 364.581 994.584 364.581 993.624C364.581 992.728 363.813 991.928 362.885 991.928C361.893 991.928 361.125 992.728 361.125 993.624C361.125 994.584 361.893 995.384 362.885 995.384Z" fill="#949495"/>
</g>
<defs>
<clipPath id="clip0">
<rect width="720" height="1126" fill="white"/>
</clipPath>
<clipPath id="clip1">
<rect width="180.105" height="83" fill="white" transform="translate(411 926)"/>
</clipPath>
<clipPath id="clip2">
<rect width="100.547" height="95.7523" fill="white" transform="translate(490 128)"/>
</clipPath>
</defs>
</svg>
