<svg width="16" height="16" viewBox="0 0 16 16" fill="none" xmlns="http://www.w3.org/2000/svg">
<path d="M8 1.33333C9.31854 1.33333 10.6075 1.72433 11.7038 2.45687C12.8001 3.18941 13.6546 4.2306 14.1592 5.44877C14.6638 6.66695 14.7958 8.00739 14.5386 9.3006C14.2813 10.5938 13.6464 11.7817 12.714 12.714C11.7817 13.6464 10.5938 14.2813 9.3006 14.5386C8.0074 14.7958 6.66695 14.6638 5.44878 14.1592C4.2306 13.6546 3.18941 12.8001 2.45687 11.7038C1.72433 10.6075 1.33334 9.31854 1.33334 8C1.33334 6.23189 2.03571 4.53619 3.28596 3.28595C4.5362 2.03571 6.23189 1.33333 8 1.33333ZM8 0C6.41775 0 4.87103 0.469191 3.55544 1.34824C2.23984 2.22729 1.21447 3.47672 0.608966 4.93853C0.00346553 6.40034 -0.15496 8.00887 0.153722 9.56072C0.462403 11.1126 1.22433 12.538 2.34315 13.6568C3.46197 14.7757 4.88743 15.5376 6.43928 15.8463C7.99113 16.155 9.59966 15.9965 11.0615 15.391C12.5233 14.7855 13.7727 13.7602 14.6518 12.4446C15.5308 11.129 16 9.58225 16 8C16 5.87827 15.1571 3.84343 13.6569 2.34314C12.1566 0.842852 10.1217 0 8 0Z" fill="#FE4400"/>
</svg>
