<svg width="311" height="192" viewBox="0 0 311 192" fill="none" xmlns="http://www.w3.org/2000/svg">
<g clip-path="url(#clip0)">
<path d="M232.077 8.82675C235.524 8.82675 238.831 10.2 241.269 12.6444C243.707 15.0889 245.077 18.4042 245.077 21.8612V145.482C245.077 148.939 243.707 152.255 241.269 154.699C238.831 157.143 235.524 158.517 232.077 158.517H72.1115C68.6636 158.517 65.357 157.143 62.919 154.699C60.481 152.255 59.1114 148.939 59.1114 145.482V21.8612C59.1114 18.4042 60.481 15.0889 62.919 12.6444C65.357 10.2 68.6636 8.82675 72.1115 8.82675H232.077ZM232.077 7.65958H72.1115C68.3561 7.66344 64.7556 9.16092 62.1001 11.8234C59.4447 14.4859 57.9511 18.0958 57.9473 21.8612V145.482C57.9511 149.248 59.4447 152.858 62.1001 155.52C64.7556 158.183 68.3561 159.68 72.1115 159.684H232.077C235.832 159.68 239.433 158.183 242.088 155.52C244.743 152.858 246.237 149.248 246.241 145.482V21.8612C246.237 18.0958 244.743 14.4859 242.088 11.8234C239.433 9.16092 235.832 7.66344 232.077 7.65958Z" fill="white"/>
<path d="M232.077 8.82675H72.1117C64.9319 8.82675 59.1116 14.6625 59.1116 21.8612V145.482C59.1116 152.681 64.9319 158.517 72.1117 158.517H232.077C239.257 158.517 245.077 152.681 245.077 145.482V21.8612C245.077 14.6625 239.257 8.82675 232.077 8.82675Z" fill="#F1F1F6"/>
<path d="M59.1116 36.8389H245.659" stroke="white" stroke-width="4" stroke-miterlimit="10"/>
<path d="M72.7897 27.5015C75.5221 27.5015 77.7372 25.2806 77.7372 22.541C77.7372 19.8014 75.5221 17.5806 72.7897 17.5806C70.0573 17.5806 67.8423 19.8014 67.8423 22.541C67.8423 25.2806 70.0573 27.5015 72.7897 27.5015Z" fill="white"/>
<path d="M87.7834 27.5015C90.5158 27.5015 92.7308 25.2806 92.7308 22.541C92.7308 19.8014 90.5158 17.5806 87.7834 17.5806C85.051 17.5806 82.8359 19.8014 82.8359 22.541C82.8359 25.2806 85.051 27.5015 87.7834 27.5015Z" fill="white"/>
<path d="M102.774 27.5015C105.506 27.5015 107.722 25.2806 107.722 22.541C107.722 19.8014 105.506 17.5806 102.774 17.5806C100.042 17.5806 97.8267 19.8014 97.8267 22.541C97.8267 25.2806 100.042 27.5015 102.774 27.5015Z" fill="white"/>
<path d="M255.068 44.2884L254.978 44.2009V44.3818L255.068 44.2884Z" fill="#FE4400"/>
<path d="M229.944 77.9438C251.411 77.9438 268.813 60.4955 268.813 38.9719C268.813 17.4483 251.411 0 229.944 0C208.477 0 191.074 17.4483 191.074 38.9719C191.074 60.4955 208.477 77.9438 229.944 77.9438Z" fill="#FE4400"/>
<path d="M201.714 65.7264C201.714 65.7264 205.788 50.2614 203.46 48.2188C200.649 45.7532 195.894 53.7629 192.061 63.3921C188.03 73.5086 176.345 102.201 175.763 104.243C175.763 104.243 155.854 93.3301 146.952 89.3617C139.094 85.8602 129.522 84.588 129.522 84.588L128.306 77.261C128.306 77.261 133.99 79.3036 138.861 76.4469C143.733 73.5903 144.952 68.303 143.329 60.1619C142.365 55.3386 142.4 49.3656 141.582 44.0404C138.34 44.5889 133.591 43.4714 133.591 43.4714C127.092 50.7983 120.204 52.4265 120.204 52.4265C115.736 47.5419 107.614 47.5419 106.397 54.4691C105.05 62.1286 114.517 64.2383 114.517 64.2383C114.517 64.2383 116.444 75.3556 112.369 86.4438C106.709 101.85 83.8895 105.938 74.5359 99.2827C57.6564 111.246 72.589 147.595 86.759 164.644C98.4 178.65 139.726 171.356 139.726 171.356C139.726 171.356 144.382 174.857 149.912 176.024C159.806 195.574 163.881 190.03 163.881 190.03C163.881 190.03 167.373 193.824 169.992 189.739C175.231 190.03 174.94 186.821 170.283 175.733C175.522 182.152 180.65 182.172 180.76 180.401C181.051 175.733 165.627 159.392 156.023 155.307C148.809 152.237 145.255 151.222 145.255 151.222L143.8 127.587C143.8 127.587 174.684 144.592 189.2 136.632C207.826 126.419 215.392 75.1193 215.392 75.1193C211.353 73.8412 206.662 70.2667 201.714 65.7264Z" fill="#FEBBA2"/>
<path d="M112.369 86.4438C116.444 75.3556 114.5 64.2325 114.5 64.2325C114.5 64.2325 105.032 62.1228 106.38 54.4632C107.596 47.5419 115.719 47.5419 120.186 52.4207C120.186 52.4207 127.086 50.7925 133.573 43.4655C133.573 43.4655 138.323 44.5831 141.565 44.0345C140.997 40.3667 140.017 36.9965 138.038 34.5045C133.166 28.4002 119.767 24.3268 109.212 32.0622C98.6561 39.7977 99.4652 52.4177 99.8726 57.3024C99.8726 57.3024 81.6166 52.8204 71.905 66.5931C59.973 83.5171 74.5243 99.2739 74.5243 99.2739C83.8895 105.938 106.709 101.85 112.369 86.4438Z" fill="#303033"/>
<path d="M144.309 135.865L143.8 127.587H143.826L141.39 87.2725C138.702 86.4405 135.973 85.7519 133.212 85.2095L131.868 112.997H109.168L100.545 98.9471C97.4668 100.47 94.1704 101.501 90.7749 102.002L103.743 134.228L108.586 146.261C108.586 146.261 119.645 146.845 129.54 148.304C139.434 149.763 145.255 151.222 145.255 151.222L144.309 135.865Z" fill="white"/>
<path fill-rule="evenodd" clip-rule="evenodd" d="M202.588 63.055C202.852 63.1376 202.998 63.4181 202.916 63.6817C202.706 64.352 202.491 65.0072 202.277 65.6276C202.32 65.6814 202.368 65.7446 202.423 65.8169C202.624 66.0835 202.903 66.474 203.223 66.9765C203.861 67.9808 204.661 69.4365 205.313 71.2471C206.618 74.8722 207.328 79.9295 204.94 85.6161C204.833 85.8707 204.54 85.9904 204.285 85.8835C204.031 85.7766 203.911 85.4835 204.018 85.2289C206.286 79.8273 205.614 75.0366 204.372 71.5857C203.75 69.8583 202.986 68.469 202.379 67.5129C202.075 67.0351 201.811 66.6665 201.625 66.419C201.531 66.2953 201.457 66.2019 201.408 66.1404C201.383 66.1096 201.364 66.0868 201.352 66.0722L201.338 66.0564L201.335 66.0531L201.335 66.0529L201.335 66.0527L201.335 66.0526L201.147 65.8342L201.242 65.5616C201.482 64.8757 201.724 64.1397 201.962 63.3826C202.044 63.1191 202.325 62.9725 202.588 63.055Z" fill="#303033"/>
<path fill-rule="evenodd" clip-rule="evenodd" d="M175.264 103.518C175.521 103.618 175.648 103.907 175.548 104.165L172.495 112.011C172.395 112.268 172.105 112.396 171.848 112.296C171.591 112.196 171.463 111.906 171.563 111.648L174.616 103.802C174.716 103.545 175.006 103.417 175.264 103.518Z" fill="#303033"/>
<path d="M171.447 177.092C170.216 174.294 168.694 171.02 167.35 168.63" stroke="#303033" stroke-width="1.25" stroke-miterlimit="10" stroke-linecap="round"/>
<path d="M161.887 171.539C165.38 177.705 168.118 184.609 169.835 189.458" stroke="#303033" stroke-width="1.25" stroke-miterlimit="10" stroke-linecap="round"/>
<path d="M156.457 174.994C159.076 179.815 161.625 185.432 163.517 189.847" stroke="#303033" stroke-width="1.25" stroke-miterlimit="10" stroke-linecap="round"/>
<path d="M90.7722 102.002C84.5035 102.939 78.3803 102.02 74.5359 99.2827C62.2692 107.978 66.8033 129.547 75.636 147.233L103.743 134.228L90.7722 102.002Z" fill="#FE4400"/>
<path d="M112.369 86.4438C110.268 92.16 105.804 96.3181 100.545 98.9471L109.168 112.997H131.868L133.212 85.2241C130.977 84.7835 129.522 84.588 129.522 84.588L128.958 81.1915H113.888C113.503 82.9753 112.996 84.7302 112.369 86.4438Z" fill="#FE4400"/>
<path d="M146.949 89.3617C145.136 88.566 143.28 87.8734 141.39 87.2871L143.826 127.601C147.692 129.653 151.667 131.494 155.732 133.113L167.664 99.8663C161.122 96.3647 152.155 91.6961 146.949 89.3617Z" fill="#FE4400"/>
<path d="M70.4567 114.179C78.2517 109.666 81.4019 100.505 77.493 93.717C73.5841 86.9286 64.0962 85.0835 56.3013 89.5958C48.5063 94.1081 45.3561 103.269 49.265 110.057C53.1739 116.846 62.6618 118.691 70.4567 114.179Z" fill="#303033"/>
<path fill-rule="evenodd" clip-rule="evenodd" d="M101.247 145.51C101.259 145.234 101.493 145.02 101.769 145.032L108.462 145.324C108.738 145.336 108.952 145.57 108.94 145.845C108.928 146.121 108.695 146.335 108.419 146.323L101.725 146.031C101.449 146.019 101.235 145.786 101.247 145.51Z" fill="#303033"/>
<path fill-rule="evenodd" clip-rule="evenodd" d="M122.662 75.468C122.794 75.2251 123.097 75.1347 123.34 75.266C124.952 76.1378 126.634 76.8752 128.366 77.471C128.628 77.5608 128.766 77.8453 128.677 78.1064C128.587 78.3676 128.302 78.5065 128.041 78.4167C126.257 77.8031 124.525 77.0435 122.864 76.1456C122.621 76.0143 122.531 75.7109 122.662 75.468Z" fill="#303033"/>
<path d="M99.4302 57.2265C99.6514 59.4529 99.9511 62.2249 100.242 64.4134" stroke="#303033" stroke-width="4" stroke-linecap="round" stroke-linejoin="round"/>
<path fill-rule="evenodd" clip-rule="evenodd" d="M130.104 84.299C130.376 84.2536 130.634 84.4377 130.679 84.7101L131.197 87.8206C131.242 88.0929 131.058 88.3505 130.786 88.3959C130.514 88.4413 130.256 88.2572 130.211 87.9848L129.693 84.8743C129.647 84.6019 129.831 84.3443 130.104 84.299Z" fill="#303033"/>
<path fill-rule="evenodd" clip-rule="evenodd" d="M111.639 55.4249C111.773 55.1837 112.077 55.0971 112.319 55.2315L115.942 57.2508C116.183 57.3852 116.27 57.6897 116.135 57.9309C116.001 58.1721 115.696 58.2587 115.455 58.1243L111.832 56.1051C111.591 55.9706 111.504 55.6661 111.639 55.4249Z" fill="#303033"/>
<path fill-rule="evenodd" clip-rule="evenodd" d="M132.683 64.1244C132.809 64.0237 132.976 63.9903 133.132 64.0348L138.222 65.4938C138.355 65.5319 138.466 65.6232 138.529 65.7461C138.592 65.8691 138.602 66.0126 138.555 66.1427C137.992 67.7184 136.53 68.4492 135.16 68.1789C133.768 67.9045 132.608 66.6407 132.495 64.5424C132.486 64.381 132.556 64.2252 132.683 64.1244ZM133.587 65.2056C133.857 66.447 134.621 67.0535 135.353 67.1978C136.094 67.3438 136.903 67.0479 137.379 66.2924L133.587 65.2056Z" fill="#303033"/>
<path d="M130.651 57.7897C131.318 57.7897 131.859 57.2475 131.859 56.5787C131.859 55.9099 131.318 55.3678 130.651 55.3678C129.984 55.3678 129.444 55.9099 129.444 56.5787C129.444 57.2475 129.984 57.7897 130.651 57.7897Z" fill="#303033"/>
<path d="M139.632 55.6012C140.299 55.6012 140.84 55.0591 140.84 54.3903C140.84 53.7215 140.299 53.1793 139.632 53.1793C138.965 53.1793 138.425 53.7215 138.425 54.3903C138.425 55.0591 138.965 55.6012 139.632 55.6012Z" fill="#303033"/>
<path fill-rule="evenodd" clip-rule="evenodd" d="M136.366 57.5901C136.624 57.4929 136.912 57.6235 137.01 57.882C137.157 58.2738 137.305 58.6971 137.405 59.069C137.455 59.2546 137.496 59.4381 137.518 59.6048C137.538 59.7581 137.55 59.9522 137.501 60.1309L137.498 60.1409L137.495 60.1508C137.338 60.6422 137.017 61.0648 136.586 61.3475C136.355 61.4989 136.045 61.4344 135.894 61.2035C135.742 60.9725 135.807 60.6626 136.038 60.5112C136.27 60.3588 136.445 60.1328 136.535 59.8692C136.535 59.8593 136.537 59.8189 136.526 59.735C136.513 59.6288 136.483 59.4921 136.439 59.329C136.352 59.0036 136.217 58.6156 136.074 58.2342C135.977 57.9758 136.107 57.6874 136.366 57.5901Z" fill="#303033"/>
<path d="M113.388 69.228C115.397 69.228 117.026 67.595 117.026 65.5805C117.026 63.5661 115.397 61.9331 113.388 61.9331C111.379 61.9331 109.75 63.5661 109.75 65.5805C109.75 67.595 111.379 69.228 113.388 69.228Z" fill="#FE4400"/>
<path fill-rule="evenodd" clip-rule="evenodd" d="M256.352 21.7085C257.134 22.4885 257.136 23.7548 256.356 24.5369L225.11 55.8656L210.306 41.0233C209.526 40.2412 209.528 38.9748 210.31 38.1948C211.092 37.4148 212.358 37.4165 213.138 38.1986L225.11 50.2012L253.524 21.7122C254.304 20.9301 255.57 20.9285 256.352 21.7085Z" fill="white"/>
</g>
<defs>
<clipPath id="clip0">
<path d="M0 7.99999C0 3.58171 3.58172 0 8 0H303C307.418 0 311 3.58172 311 8V183.633C311 188.051 307.418 191.633 303 191.633H8C3.58172 191.633 0 188.051 0 183.633V7.99999Z" fill="white"/>
</clipPath>
</defs>
</svg>
