<!-- Generated by IcoMoon.io -->
<svg version="1.1" xmlns="http://www.w3.org/2000/svg" width="768" height="768" viewBox="0 0 768 768">
<title></title>
<g id="icomoon-ignore">
</g>
<path d="M160 152c-22.091 0-40 17.909-40 40v448c0 22.093 17.909 40 40 40h448c22.093 0 40-17.907 40-40v-448c0-22.091-17.907-40-40-40h-448zM72 192c0-48.601 39.399-88 88-88h448c48.602 0 88 39.399 88 88v448c0 48.601-39.398 88-88 88h-448c-48.601 0-88-39.398-88-88v-448z"></path>
<path d="M512 40c13.255 0 24 10.745 24 24v128c0 13.255-10.745 24-24 24s-24-10.745-24-24v-128c0-13.255 10.745-24 24-24z"></path>
<path d="M256 40c13.255 0 24 10.745 24 24v128c0 13.255-10.745 24-24 24s-24-10.745-24-24v-128c0-13.255 10.745-24 24-24z"></path>
<path d="M72 320c0-13.255 10.745-24 24-24h576c13.255 0 24 10.745 24 24s-10.745 24-24 24h-576c-13.255 0-24-10.745-24-24z"></path>
</svg>
